<?xml version="1.0" encoding="utf-8"?>
<!-- Generator: Adobe Illustrator 27.5.0, SVG Export Plug-In . SVG Version: 6.00 Build 0)  -->
<svg version="1.1" id="Layer_1" xmlns="http://www.w3.org/2000/svg" xmlns:xlink="http://www.w3.org/1999/xlink" x="0px" y="0px"
	 viewBox="0 0 665.15 499.13" style="enable-background:new 0 0 665.15 499.13;" xml:space="preserve">
<style type="text/css">
	.st0{fill:#4670EA;stroke:#213740;stroke-width:0.5;stroke-miterlimit:10;}
	.st1{fill:#E6EAF6;stroke:#1F3741;stroke-width:0.5;stroke-miterlimit:10;}
	.st2{fill:#D0D9EE;stroke:#1F3741;stroke-width:0.5;stroke-miterlimit:10;}
	.st3{fill:#4670EA;}
	.st4{fill:#1F3741;stroke:#1F3741;stroke-width:0.5;stroke-miterlimit:10;}
	.st5{fill:#1F3741;}
	.st6{fill:#1F3741;stroke:#213740;stroke-width:0.5;stroke-miterlimit:10;}
	.st7{fill:#E6EAF6;stroke:#213740;stroke-width:0.5;stroke-miterlimit:10;}
	.st8{opacity:0.5;}
	.st9{fill:#9EC8FF;}
	.st10{fill:#E6EAF6;}
	.st11{fill:#FFFFFF;}
	.st12{fill:#243E8F;}
	.st13{fill:#4DA6DC;}
	.st14{fill:#77CFE9;}
	.st15{fill:#35C1D8;}
	.st16{fill:url(#card_bg_00000080894413398207889400000001913118973295495080_);}
	.st17{opacity:0.85;fill:url(#SVGID_1_);}
	.st18{fill:#FDE159;}
	.st19{fill:#F6BA17;}
	.st20{fill:#F3A61D;}
	.st21{fill:url(#card_bg_00000096746889349528192370000013539347029749971599_);}
	.st22{opacity:0.85;fill:url(#SVGID_00000103978279659966829770000012166572175089876415_);}
	.st23{fill:none;stroke:#4670EA;stroke-miterlimit:10;}
	.st24{opacity:0.3;fill:url(#SVGID_00000016776063680969590850000014248556668593714850_);}
	.st25{opacity:0.61;}
	.st26{fill:#5D87FF;}
	.st27{opacity:0.5;fill:#9EC8FF;}
	.st28{clip-path:url(#SVGID_00000064314331552495872120000010153581266719186562_);fill:#9EC8FF;}
	.st29{clip-path:url(#SVGID_00000064314331552495872120000010153581266719186562_);fill:#E7F3FE;}
	.st30{fill:#97E5FF;}
	.st31{fill:#1FAEFF;}
	.st32{fill:#136FFF;}
</style>
<g class="st8">
	<g id="dot_circle_00000054953236615591738320000016987641463765208193_">
		<path class="st9" d="M332.95,493.98c-1.42,0-2.86-0.01-4.28-0.04l0.08-4.35c2.95,0.06,5.93,0.05,8.86-0.01l0.09,4.35
			C336.13,493.96,334.53,493.98,332.95,493.98z M319.64,493.58c-2.99-0.18-6.02-0.43-9-0.74l0.44-4.33c2.92,0.3,5.89,0.54,8.82,0.72
			L319.64,493.58z M346.73,493.55l-0.27-4.34c2.94-0.18,5.9-0.43,8.82-0.74l0.45,4.33C352.76,493.1,349.73,493.36,346.73,493.55z
			 M301.67,491.73c-2.97-0.43-5.97-0.93-8.91-1.49l0.81-4.27c2.89,0.54,5.82,1.03,8.73,1.46L301.67,491.73z M364.7,491.66l-0.63-4.3
			c2.91-0.43,5.85-0.93,8.73-1.48l0.81,4.27C370.67,490.71,367.67,491.22,364.7,491.66z M283.91,488.38
			c-2.92-0.68-5.87-1.43-8.76-2.23l1.16-4.19c2.83,0.78,5.72,1.52,8.58,2.19L283.91,488.38z M382.45,488.27l-0.99-4.23
			c2.86-0.67,5.75-1.41,8.57-2.2l1.17,4.19C388.32,486.83,385.37,487.59,382.45,488.27z M266.5,483.55
			c-2.86-0.93-5.74-1.92-8.56-2.97l1.51-4.08c2.76,1.02,5.58,2,8.39,2.91L266.5,483.55z M399.85,483.41l-1.35-4.14
			c2.8-0.91,5.61-1.89,8.36-2.92l1.52,4.08C405.57,481.47,402.7,482.48,399.85,483.41z M249.52,477.26
			c-2.77-1.16-5.55-2.4-8.27-3.68l1.85-3.94c2.67,1.25,5.4,2.47,8.11,3.6L249.52,477.26z M416.76,477.1l-1.69-4.01
			c2.7-1.14,5.41-2.35,8.06-3.6l1.86,3.93C422.28,474.7,419.51,475.94,416.76,477.1z M233.13,469.55c-2.66-1.39-5.33-2.86-7.93-4.36
			l2.17-3.77c2.55,1.47,5.17,2.91,7.77,4.27L233.13,469.55z M433.06,469.4l-2.02-3.85c2.6-1.36,5.2-2.8,7.74-4.27l2.18,3.76
			C438.37,466.54,435.71,468.01,433.06,469.4z M217.46,460.51c-2.53-1.61-5.07-3.29-7.53-5.01l2.48-3.57
			c2.42,1.68,4.9,3.33,7.38,4.91L217.46,460.51z M448.67,460.35l-2.34-3.67c2.47-1.57,4.95-3.22,7.36-4.9l2.49,3.57
			C453.72,457.06,451.19,458.75,448.67,460.35z M202.61,450.18c-2.39-1.81-4.77-3.7-7.09-5.61l2.77-3.35
			c2.27,1.87,4.6,3.73,6.94,5.5L202.61,450.18z M463.48,450.03l-2.63-3.46c2.34-1.78,4.67-3.63,6.93-5.5l2.78,3.35
			C468.24,446.33,465.86,448.22,463.48,450.03z M188.68,438.66c-2.23-2.01-4.45-4.09-6.59-6.18l3.04-3.11
			c2.1,2.06,4.27,4.09,6.46,6.06L188.68,438.66z M477.38,438.51l-2.91-3.23c2.19-1.97,4.36-4.01,6.45-6.06l3.04,3.11
			C481.83,434.42,479.61,436.5,477.38,438.51z M175.77,426.03c-2.06-2.18-4.09-4.44-6.05-6.71l3.29-2.85
			c1.92,2.22,3.92,4.43,5.93,6.57L175.77,426.03z M490.29,425.86l-3.17-2.98c2.01-2.14,4.01-4.36,5.93-6.58l3.29,2.84
			C494.37,421.42,492.34,423.68,490.29,425.86z M163.95,412.37c-1.87-2.35-3.71-4.76-5.47-7.18l3.51-2.56
			c1.73,2.37,3.53,4.74,5.36,7.04L163.95,412.37z M502.1,412.18l-3.41-2.7c1.83-2.31,3.63-4.68,5.36-7.06l3.52,2.56
			C505.8,407.41,503.96,409.83,502.1,412.18z M153.31,397.79c-1.66-2.49-3.29-5.05-4.85-7.61l3.72-2.26
			c1.52,2.51,3.12,5.01,4.75,7.46L153.31,397.79z M512.73,397.56l-3.62-2.41c1.63-2.45,3.23-4.97,4.75-7.48l3.72,2.26
			C516.03,392.49,514.4,395.06,512.73,397.56z M143.94,382.37c-1.45-2.62-2.86-5.31-4.19-7.99l3.89-1.94
			c1.31,2.62,2.69,5.26,4.11,7.82L143.94,382.37z M522.11,382.09l-3.81-2.1c1.42-2.58,2.8-5.22,4.11-7.86l3.9,1.93
			C524.97,376.76,523.56,379.46,522.11,382.09z M135.89,366.23c-1.22-2.73-2.4-5.52-3.51-8.3l4.04-1.61
			c1.08,2.72,2.24,5.46,3.44,8.13L135.89,366.23z M530.17,365.88l-3.97-1.77c1.2-2.69,2.35-5.44,3.44-8.18l4.04,1.6
			C532.57,360.32,531.39,363.13,530.17,365.88z M129.22,349.46c-0.99-2.83-1.93-5.72-2.8-8.59l4.16-1.26
			c0.85,2.81,1.78,5.64,2.75,8.42L129.22,349.46z M536.83,349.03l-4.11-1.43c0.97-2.78,1.89-5.63,2.74-8.45l4.17,1.25
			C538.75,343.29,537.81,346.19,536.83,349.03z M123.98,332.17c-0.75-2.9-1.44-5.86-2.07-8.8l4.25-0.91
			c0.61,2.87,1.29,5.77,2.03,8.62L123.98,332.17z M542.04,331.71l-4.21-1.08c0.73-2.85,1.4-5.75,2.01-8.62l4.26,0.9
			C543.47,325.84,542.78,328.8,542.04,331.71z M120.21,314.5c-0.5-2.95-0.95-5.96-1.32-8.94l4.32-0.55c0.37,2.92,0.8,5.86,1.3,8.76
			L120.21,314.5z M545.76,314.02l-4.29-0.72c0.48-2.9,0.91-5.84,1.28-8.76l4.32,0.54C546.69,308.06,546.26,311.07,545.76,314.02z
			 M117.94,296.57c-0.25-2.98-0.44-6.02-0.57-9.02l4.35-0.19c0.13,2.94,0.31,5.91,0.56,8.84L117.94,296.57z M547.99,296.09
			l-4.34-0.36c0.24-2.93,0.42-5.9,0.54-8.84l4.35,0.18C548.42,290.07,548.24,293.11,547.99,296.09z M117.17,278.52l0-0.32
			c0-3,0.06-6.04,0.19-9.03l4.35,0.18c-0.12,2.93-0.18,5.91-0.18,8.85l0,0.31L117.17,278.52z M544.37,278.05
			c0-2.94-0.07-5.92-0.19-8.85l4.35-0.18c0.13,2.99,0.19,6.03,0.19,9.03L544.37,278.05z M122.25,260.52l-4.33-0.36
			c0.25-2.99,0.56-6.01,0.93-8.99l4.32,0.54C122.8,254.62,122.5,257.59,122.25,260.52z M543.63,260.36
			c-0.25-2.93-0.55-5.9-0.92-8.81l4.32-0.54c0.37,2.97,0.69,5.99,0.94,8.99L543.63,260.36z M124.45,242.95l-4.29-0.72
			c0.5-2.96,1.06-5.95,1.68-8.88l4.26,0.9C125.49,237.12,124.94,240.05,124.45,242.95z M541.42,242.79c-0.49-2.9-1.05-5.82-1.66-8.7
			l4.25-0.9c0.62,2.93,1.19,5.92,1.69,8.88L541.42,242.79z M128.11,225.63l-4.21-1.08c0.74-2.91,1.56-5.83,2.42-8.71l4.16,1.26
			C129.64,219.91,128.84,222.78,128.11,225.63z M537.74,225.48c-0.73-2.85-1.53-5.72-2.38-8.53l4.16-1.26
			c0.87,2.87,1.68,5.8,2.43,8.7L537.74,225.48z M133.23,208.66l-4.11-1.43c0.99-2.84,2.05-5.7,3.16-8.49l4.04,1.6
			C135.24,203.07,134.2,205.87,133.23,208.66z M532.62,208.53c-0.97-2.77-2.01-5.56-3.09-8.3l4.04-1.6
			c1.11,2.79,2.17,5.64,3.16,8.47L532.62,208.53z M139.77,192.16l-3.97-1.77c1.22-2.74,2.52-5.5,3.86-8.19l3.89,1.94
			C142.24,186.77,140.97,189.47,139.77,192.16z M526.1,192.1c-1.19-2.67-2.46-5.36-3.77-7.99l3.89-1.94
			c1.33,2.68,2.63,5.42,3.85,8.15L526.1,192.1z M147.67,176.28l-3.81-2.1c1.45-2.63,2.97-5.26,4.53-7.83l3.72,2.26
			C150.58,171.12,149.09,173.71,147.67,176.28z M518.23,176.28c-1.41-2.57-2.9-5.14-4.43-7.65l3.72-2.26
			c1.56,2.56,3.08,5.19,4.52,7.81L518.23,176.28z M509.05,161.17c-1.62-2.44-3.33-4.88-5.06-7.26l3.52-2.56
			c1.77,2.42,3.5,4.92,5.16,7.41L509.05,161.17z M156.87,161.13l-3.62-2.41c1.66-2.5,3.4-4.99,5.17-7.42l3.52,2.56
			C160.21,156.24,158.5,158.68,156.87,161.13z M498.64,146.87c-1.83-2.3-3.73-4.59-5.65-6.82l3.29-2.84
			c1.96,2.27,3.9,4.61,5.76,6.96L498.64,146.87z M167.3,146.81l-3.41-2.71c1.87-2.35,3.81-4.69,5.77-6.96l3.29,2.84
			C171.03,142.21,169.13,144.51,167.3,146.81z M487.07,133.47c-2.01-2.14-4.1-4.27-6.2-6.33l3.04-3.11c2.14,2.1,4.27,4.27,6.32,6.45
			L487.07,133.47z M178.89,133.41l-3.17-2.98c2.05-2.18,4.18-4.36,6.33-6.45l3.04,3.11C182.99,129.14,180.9,131.27,178.89,133.41z
			 M474.42,121.08c-2.18-1.97-4.44-3.91-6.7-5.79l2.77-3.35c2.31,1.91,4.61,3.9,6.84,5.91L474.42,121.08z M191.54,121.03l-2.91-3.23
			c2.23-2.01,4.53-3.99,6.84-5.9l2.77,3.35C195.98,117.12,193.72,119.06,191.54,121.03z M460.77,109.79
			c-2.34-1.78-4.75-3.53-7.16-5.21l2.49-3.57c2.46,1.72,4.92,3.51,7.31,5.32L460.77,109.79z M205.17,109.74l-2.63-3.46
			c2.39-1.81,4.84-3.6,7.3-5.31l2.48,3.57C209.92,106.22,207.51,107.97,205.17,109.74z M446.23,99.66c-2.48-1.58-5.03-3.13-7.58-4.6
			l2.18-3.77c2.6,1.5,5.2,3.08,7.74,4.69L446.23,99.66z M219.69,99.64l-2.33-3.67c2.53-1.61,5.12-3.18,7.72-4.68l2.18,3.77
			C224.71,96.53,222.17,98.07,219.69,99.64z M234.99,90.79l-2.02-3.85c2.65-1.39,5.37-2.74,8.07-4.02l1.85,3.93
			C240.26,88.11,237.59,89.43,234.99,90.79z M430.89,90.78c-2.61-1.37-5.28-2.69-7.94-3.95l1.85-3.93c2.72,1.28,5.44,2.64,8.11,4.03
			L430.89,90.78z M250.97,83.26l-1.69-4.01c2.75-1.16,5.57-2.28,8.38-3.32l1.52,4.08C256.43,81.03,253.67,82.12,250.97,83.26z
			 M414.84,83.23c-2.71-1.14-5.49-2.24-8.25-3.27l1.52-4.08c2.82,1.05,5.65,2.17,8.42,3.33L414.84,83.23z M267.54,77.09l-1.34-4.14
			c2.85-0.93,5.76-1.81,8.65-2.61l1.17,4.19C273.19,75.32,270.33,76.18,267.54,77.09z M398.2,77.04c-2.8-0.91-5.65-1.76-8.48-2.55
			l1.17-4.19c2.89,0.8,5.8,1.68,8.65,2.6L398.2,77.04z M284.59,72.34l-0.99-4.24c2.92-0.68,5.9-1.31,8.84-1.87l0.81,4.27
			C290.37,71.05,287.45,71.67,284.59,72.34z M381.15,72.3c-2.86-0.67-5.77-1.28-8.66-1.83l0.81-4.27c2.95,0.56,5.92,1.19,8.84,1.87
			L381.15,72.3z M301.98,69.03l-0.63-4.3c2.96-0.43,5.98-0.81,8.97-1.12l0.45,4.33C307.84,68.24,304.89,68.61,301.98,69.03z
			 M363.75,69.01c-2.9-0.42-5.86-0.79-8.79-1.1l0.45-4.33c2.99,0.31,6,0.69,8.97,1.12L363.75,69.01z M319.59,67.2l-0.27-4.34
			c2.99-0.19,6.03-0.31,9.03-0.38l0.09,4.35C325.5,66.89,322.52,67.01,319.59,67.2z M346.14,67.19c-2.93-0.18-5.91-0.3-8.85-0.36
			l0.09-4.35c3,0.06,6.04,0.18,9.03,0.37L346.14,67.19z"/>
	</g>
	<g id="dollar_00000066500273200344414520000015714643864457731204_">
		<circle class="st9" cx="99.54" cy="375.54" r="28.65"/>
		<g>
			<g>
				<path class="st10" d="M87.43,372.88c1.98,0,3.9,0,5.87,0c0-0.1,0-0.17,0-0.25c0-1.86,0-3.71,0-5.57c0-1.35-0.77-1.93-1.89-2.16
					c-0.56-0.12-1.11-0.06-1.67,0.26c-0.34-0.75-0.72-1.48-0.99-2.25c-0.16-0.45,0.06-0.88,0.44-1.2c0.52-0.44,1.15-0.66,1.78-0.85
					c1.03-0.3,2.04-0.29,3,0.24c0.65,0.36,1.09,0.92,1.46,1.53c0.57,0.94,0.87,1.97,0.91,3.05c0.06,1.79,0.05,3.58,0.06,5.37
					c0.01,0.6,0,1.2,0,1.83c0.43,0,0.85,0.03,1.26-0.01c0.35-0.03,0.59,0.09,0.83,0.35c0.77,0.81,1.56,1.6,2.34,2.4
					c0.07,0.07,0.13,0.14,0.24,0.25c-1.58,0-3.11,0-4.67,0c0,0.3,0,0.57,0,0.84c0,2.53,0,5.06,0,7.59c0,1.39,0.98,2.44,2.36,2.63
					c1.28,0.17,2.43-0.11,3.49-0.8c1.69-1.09,3.06-2.5,3.96-4.32c0.39-0.78,0.56-1.51,0.61-2.37c-0.07,0-0.14,0-0.21,0.01
					c-0.76,0.07-1.5,0.03-2.23-0.21c-1.04-0.35-1.71-1.07-2.03-2.11c-0.3-0.99-0.4-2-0.1-3c0.41-1.35,1.27-2.22,2.71-2.45
					c1.45-0.24,2.82-0.09,4.01,0.85c1.21,0.96,2.02,2.22,2.39,3.72c0.58,2.34,0.26,4.6-0.83,6.73c-1.29,2.54-3.13,4.61-5.61,6.05
					c-1.4,0.82-2.93,1.2-4.55,1.36c-2.01,0.2-3.62-0.6-5.09-1.84c-0.74-0.63-1.4-1.34-1.81-2.24c-0.13-0.3-0.2-0.59-0.2-0.92
					c0.01-3.1,0-6.19,0-9.29c0-0.06,0-0.11,0-0.2c-0.1,0-0.18-0.01-0.27-0.01c-0.85,0-1.69,0-2.54-0.01c-0.1,0-0.23-0.04-0.3-0.11
					c-0.89-0.92-1.78-1.84-2.66-2.77C87.5,372.98,87.48,372.95,87.43,372.88z"/>
			</g>
		</g>
	</g>
	<g id="arrow_00000147180111483667011270000011784789778169837218_">
		<g>
			<g>
				<polygon class="st3" points="203.4,343.27 194.75,332.17 275.97,266.14 284.85,277.06 				"/>
			</g>
			<g>
				<polygon class="st3" points="438.65,230.32 408.67,194.17 377.97,219.13 369.09,208.21 410.67,174.02 440.65,210.17 
					565.22,112.54 574.1,123.46 				"/>
			</g>
			<polygon class="st3" points="582.14,107.85 544.45,110.06 572.64,144.39 			"/>
			<polygon class="st3" points="562.92,132.55 553.99,121.67 547.16,127.22 556.27,137.95 			"/>
			<polygon class="st3" points="376.9,201.79 388.22,208.99 388.22,210.8 393.74,206.31 384.75,195.33 			"/>
			<polygon class="st3" points="267.35,291.29 259.83,297.34 259.83,279.26 267.35,273.15 			"/>
		</g>
	</g>
	<g id="phone_00000180362729832652653380000009767937273144601245_">
		<path class="st11" d="M379.69,229.45h5.96c6.06,0,10.98,4.92,10.98,10.98v202.74c0,6.06-4.92,10.98-10.98,10.98h-105.4
			c-6.06,0-10.98-4.92-10.98-10.98V240.43c0-6.06,4.92-10.98,10.98-10.98h5.96H379.69z"/>
		<g>
			<path class="st12" d="M385.65,456.07h-105.4c-7.11,0-12.9-5.79-12.9-19.39V233.95c0-0.62,5.79-6.41,12.9-6.41h5.96v3.84h-5.96
				c-5,0-9.06,4.06-9.06,9.06v202.74c0,5,4.07,9.06,9.06,9.06h105.4c5,0,9.06-4.06,9.06-9.06V240.43c0-5-4.06-9.06-9.06-9.06h-5.96
				v-3.84h5.96c7.11,0,12.9,5.79,12.9,12.9v202.74C398.55,450.29,392.76,456.07,385.65,456.07z"/>
		</g>
	</g>
	<path class="st3" d="M306.46,325.44h53.96c1.63,0,2.96,1.32,2.96,2.96v25.06c0,1.63-1.32,2.95-2.95,2.95h-27.31L305.38,328
		C304.45,327.05,305.13,325.44,306.46,325.44z"/>
	<path class="st3" d="M306.09,356.4h27.04l27.68,27.68c0.89,0.89,0.26,2.4-1,2.4h-57.3v-26.5
		C302.51,358.01,304.11,356.4,306.09,356.4z"/>
	<polygon class="st3" points="332.86,416.23 332.86,386.48 302.51,386.48 	"/>
	<g id="bank_00000151533399976064492150000018184763315473274754_">
		<rect x="323.31" y="229.45" class="st13" width="19.27" height="44.42"/>
		<rect x="330.02" y="232.64" class="st13" width="5.85" height="38.06"/>
		<rect x="292.36" y="229.45" class="st13" width="19.27" height="44.42"/>
		<rect x="299.07" y="232.64" class="st13" width="5.85" height="38.06"/>
		
			<rect x="354.27" y="229.45" transform="matrix(-1 3.955624e-11 -3.955624e-11 -1 727.7994 503.3323)" class="st13" width="19.27" height="44.42"/>
		
			<rect x="360.98" y="232.64" transform="matrix(-1 3.889010e-11 -3.889010e-11 -1 727.7994 503.3323)" class="st13" width="5.85" height="38.06"/>
		<rect x="288.44" y="281.65" class="st13" width="89.02" height="10.92"/>
		<rect x="280.41" y="297.34" class="st13" width="105.07" height="10.92"/>
		<polygon class="st13" points="332.95,173.85 277.68,208.99 277.68,220.58 332.95,220.58 388.22,220.58 388.22,208.99 		"/>
		<path class="st11" d="M345.04,200.57c0,6.68-5.41,12.09-12.09,12.09c-4.03,0-7.6-1.98-9.8-5.01c-1.44-1.99-2.29-4.44-2.29-7.08
			c0-6.68,5.41-12.09,12.09-12.09c2.65,0,5.09,0.85,7.08,2.29C343.06,192.96,345.04,196.53,345.04,200.57z"/>
	</g>
	<g id="dollar_00000126290046913904251550000012711951879008301970_">
		<circle class="st9" cx="498.97" cy="63.98" r="24.91"/>
		<g>
			<g>
				<path class="st10" d="M486.85,59.82c1.98,0,3.9,0,5.87,0c0-0.1,0-0.17,0-0.25c0-1.86,0-3.71,0-5.57c0-1.35-0.77-1.93-1.89-2.16
					c-0.56-0.12-1.11-0.06-1.67,0.26c-0.34-0.75-0.72-1.48-0.99-2.25c-0.16-0.45,0.06-0.88,0.44-1.2c0.52-0.44,1.15-0.66,1.78-0.85
					c1.03-0.3,2.04-0.29,3,0.24c0.65,0.36,1.09,0.92,1.46,1.53c0.57,0.94,0.87,1.97,0.91,3.05c0.06,1.79,0.05,3.58,0.06,5.37
					c0.01,0.6,0,1.2,0,1.83c0.43,0,0.85,0.03,1.26-0.01c0.35-0.03,0.59,0.09,0.83,0.35c0.77,0.81,1.56,1.6,2.34,2.4
					c0.07,0.07,0.13,0.14,0.24,0.25c-1.58,0-3.11,0-4.67,0c0,0.3,0,0.57,0,0.84c0,2.53,0,5.06,0,7.59c0,1.39,0.98,2.44,2.36,2.63
					c1.28,0.17,2.43-0.11,3.49-0.8c1.69-1.09,3.06-2.5,3.96-4.32c0.39-0.78,0.56-1.51,0.61-2.37c-0.07,0-0.14,0-0.21,0.01
					c-0.76,0.07-1.5,0.03-2.23-0.21c-1.04-0.35-1.71-1.07-2.03-2.11c-0.3-0.99-0.4-2-0.1-3c0.41-1.35,1.27-2.22,2.71-2.45
					c1.45-0.24,2.82-0.09,4.01,0.85c1.21,0.96,2.02,2.22,2.39,3.72c0.58,2.34,0.26,4.6-0.83,6.73c-1.29,2.54-3.13,4.61-5.61,6.05
					c-1.4,0.82-2.93,1.2-4.55,1.36c-2.01,0.2-3.62-0.6-5.09-1.84c-0.74-0.63-1.4-1.34-1.81-2.24c-0.13-0.3-0.2-0.59-0.2-0.92
					c0.01-3.1,0-6.19,0-9.29c0-0.06,0-0.11,0-0.2c-0.1,0-0.18-0.01-0.27-0.01c-0.85,0-1.69,0-2.54-0.01c-0.1,0-0.23-0.04-0.3-0.11
					c-0.89-0.92-1.78-1.84-2.66-2.77C486.93,59.92,486.91,59.89,486.85,59.82z"/>
			</g>
		</g>
	</g>
	<g id="dollar_00000162350238448874950970000016340715869532616630_">
		<circle class="st9" cx="82.71" cy="176.28" r="21.12"/>
		<g>
			<g>
				<path class="st10" d="M72.7,174.09c1.63,0,3.22,0,4.84,0c0-0.08,0-0.14,0-0.21c0-1.53,0-3.06,0-4.6c0-1.12-0.64-1.59-1.56-1.78
					c-0.46-0.1-0.91-0.05-1.38,0.21c-0.28-0.62-0.59-1.22-0.81-1.86c-0.13-0.37,0.05-0.73,0.36-0.99c0.43-0.36,0.95-0.55,1.47-0.7
					c0.85-0.25,1.68-0.24,2.48,0.2c0.53,0.29,0.9,0.76,1.21,1.27c0.47,0.77,0.72,1.63,0.75,2.52c0.05,1.48,0.04,2.95,0.05,4.43
					c0,0.49,0,0.99,0,1.51c0.36,0,0.7,0.02,1.04-0.01c0.29-0.02,0.49,0.08,0.68,0.29c0.63,0.67,1.29,1.32,1.93,1.98
					c0.06,0.06,0.11,0.12,0.2,0.21c-1.3,0-2.57,0-3.86,0c0,0.25,0,0.47,0,0.69c0,2.09,0,4.18,0,6.27c0,1.15,0.81,2.01,1.95,2.17
					c1.05,0.14,2-0.09,2.88-0.66c1.4-0.9,2.52-2.06,3.27-3.56c0.32-0.64,0.47-1.25,0.5-1.95c-0.06,0-0.12,0-0.17,0.01
					c-0.63,0.06-1.24,0.03-1.84-0.18c-0.86-0.29-1.41-0.88-1.67-1.74c-0.25-0.82-0.33-1.65-0.08-2.48c0.34-1.12,1.05-1.83,2.24-2.02
					c1.2-0.2,2.33-0.07,3.31,0.7c1,0.79,1.67,1.83,1.97,3.07c0.48,1.93,0.22,3.79-0.68,5.55c-1.07,2.1-2.58,3.8-4.63,4.99
					c-1.16,0.67-2.42,0.99-3.75,1.12c-1.66,0.17-2.99-0.5-4.2-1.52c-0.61-0.52-1.16-1.1-1.5-1.85c-0.11-0.24-0.17-0.49-0.17-0.76
					c0.01-2.56,0-5.11,0-7.67c0-0.05,0-0.09,0-0.17c-0.08,0-0.15-0.01-0.22-0.01c-0.7,0-1.4,0-2.09-0.01
					c-0.08,0-0.19-0.03-0.25-0.09c-0.74-0.76-1.47-1.52-2.2-2.29C72.76,174.16,72.75,174.14,72.7,174.09z"/>
			</g>
		</g>
	</g>
	<g id="secure_00000163779116103810005210000009818084900449914009_">
		<circle class="st3" cx="168.31" cy="137.6" r="39.93"/>
		<g>
			<g>
				<path class="st11" d="M168.31,157.48c-8.82,0-15.99-7.17-15.99-15.99v-17.77c0-8.82,7.17-15.99,15.99-15.99
					c8.82,0,15.99,7.17,15.99,15.99v17.77C184.3,150.3,177.13,157.48,168.31,157.48z M168.31,112.57c-6.14,0-11.14,5-11.14,11.14
					v17.77c0,6.14,5,11.14,11.14,11.14s11.14-5,11.14-11.14v-17.77C179.45,117.57,174.45,112.57,168.31,112.57z"/>
			</g>
			<path class="st14" d="M187.98,132.06v17.7c0,4.89-2.2,9.32-5.76,12.52c-3.56,3.21-8.48,5.19-13.91,5.19
				c-10.86,0-19.67-7.93-19.67-17.71v-17.7c0-2.09,1.88-3.79,4.21-3.79h30.93C186.1,128.28,187.98,129.97,187.98,132.06z"/>
			<path class="st15" d="M187.98,132.06v17.7c0,4.89-2.2,9.32-5.76,12.52c-3.56,3.21-8.48,5.19-13.91,5.19v-39.19h15.47
				C186.1,128.28,187.98,129.97,187.98,132.06z"/>
			<path class="st11" d="M161.18,154.04l2.05-6.15c-0.23-0.22-0.43-0.46-0.63-0.7c-0.97-1.23-1.56-2.79-1.56-4.49
				c0-0.44,0.04-0.88,0.12-1.29c0.61-3.39,3.57-5.96,7.14-5.96c3.57,0,6.53,2.57,7.14,5.96c0.08,0.42,0.12,0.85,0.12,1.29
				c0,1.69-0.58,3.25-1.56,4.49c-0.19,0.25-0.4,0.48-0.63,0.7l2.05,6.15l0.86,2.59h-15.99L161.18,154.04z"/>
		</g>
	</g>
	
		<linearGradient id="card_bg_00000003077040087056827150000014288728137266610361_" gradientUnits="userSpaceOnUse" x1="73.1334" y1="284.1097" x2="66.9976" y2="203.4675">
		<stop  offset="0" style="stop-color:#3853A4"/>
		<stop  offset="0.0746" style="stop-color:#5068AD"/>
		<stop  offset="0.2195" style="stop-color:#7A8ABC"/>
		<stop  offset="0.368" style="stop-color:#9CA7C8"/>
		<stop  offset="0.5185" style="stop-color:#B6BDD2"/>
		<stop  offset="0.672" style="stop-color:#C9CDD9"/>
		<stop  offset="0.83" style="stop-color:#D4D7DD"/>
		<stop  offset="1" style="stop-color:#D8DADE"/>
	</linearGradient>
	
		<path id="card_bg_00000103267244197286583000000016013866545170869141_" style="fill:url(#card_bg_00000003077040087056827150000014288728137266610361_);" d="
		M107.34,294.14H34.45c-15.23,0-27.58-12.35-27.58-27.58v-23.76c0-15.23,12.35-27.58,27.58-27.58h72.88
		c15.23,0,27.58,12.35,27.58,27.58v23.76C134.92,281.8,122.57,294.14,107.34,294.14z"/>
	<path class="st3" d="M146.73,239.79v67.55c0,3.14-2.55,5.69-5.69,5.69H24.37c-3.14,0-5.69-2.55-5.69-5.69v-67.55
		c0-3.14,2.55-5.69,5.69-5.69h116.67C144.18,234.1,146.73,236.65,146.73,239.79z"/>
	<linearGradient id="SVGID_1_" gradientUnits="userSpaceOnUse" x1="18.6848" y1="280.0171" x2="146.7298" y2="280.0171">
		<stop  offset="0" style="stop-color:#5077BA"/>
		<stop  offset="1" style="stop-color:#3853A4"/>
	</linearGradient>
	<path class="st17" d="M146.73,247.02v60.32c0,3.14-2.55,5.69-5.69,5.69H24.37c-3.14,0-5.69-2.55-5.69-5.69v-25.81
		c4.68-2.73,9.47-5.25,14.42-7.45c14.26-6.35,30.12-9.98,45.55-7.67c8.47,1.27,16.9,4.3,25.38,3.08
		c9.25-1.34,16.94-7.49,24.75-12.62C134.5,253.12,140.5,249.82,146.73,247.02z"/>
	<g id="Shield_00000083806460279656322680000017427279442607912366_">
		<path class="st14" d="M130.23,255.75c-0.04-0.02-0.09-0.03-0.13-0.05c-1.8-0.67-3.34-1.87-4.44-3.47
			c-1.09-1.59-1.67-3.45-1.67-5.38v-3.88l0.92,0.19c0.29,0.06,0.58,0.09,0.88,0.09c0,0,0,0,0,0c2.29,0,4.15-1.75,4.16-1.77
			l0.53-0.51l0.53,0.51c0.02,0.02,1.87,1.77,4.16,1.77c0.3,0,0.59-0.03,0.88-0.09l0.92-0.19v3.88c0,1.93-0.58,3.79-1.67,5.38
			c-1.1,1.6-2.63,2.8-4.44,3.47c-0.04,0.02-0.09,0.03-0.13,0.05l-0.26,0.09L130.23,255.75z"/>
		<path class="st14" d="M130.49,242.03c0,0-2.61,2.52-5.73,1.88v2.93c0,3.61,2.22,6.87,5.61,8.13c0.04,0.02,0.08,0.03,0.12,0.05
			c0.04-0.01,0.08-0.03,0.12-0.05c3.38-1.26,5.61-4.52,5.61-8.13v-2.93C133.1,244.56,130.49,242.03,130.49,242.03z"/>
		<path class="st13" d="M134.31,245.28c-0.31-0.22-0.74-0.15-0.96,0.16l-3.18,4.45l-1.37-1.77c-0.23-0.3-0.67-0.36-0.97-0.12
			c-0.3,0.23-0.36,0.67-0.12,0.97l1.93,2.5c0.13,0.17,0.33,0.27,0.55,0.27l0.01,0c0.22,0,0.42-0.11,0.55-0.29l3.72-5.21
			C134.69,245.94,134.62,245.5,134.31,245.28z"/>
	</g>
	<path class="st14" d="M70.89,275.74c0,11.12-9.02,20.14-20.14,20.14c-11.12,0-20.14-9.02-20.14-20.14
		c0-11.12,9.02-20.14,20.14-20.14C61.88,255.6,70.89,264.62,70.89,275.74z"/>
	<rect x="82.96" y="266.73" class="st14" width="41.74" height="3.84"/>
	<rect x="82.96" y="275.48" class="st14" width="41.74" height="3.84"/>
	<rect x="82.96" y="284.23" class="st14" width="24.13" height="3.84"/>
	<g>
		<circle class="st11" cx="113.24" cy="301.61" r="2.03"/>
		<circle class="st11" cx="119.91" cy="301.61" r="2.03"/>
		<circle class="st11" cx="126.57" cy="301.61" r="2.03"/>
		<circle class="st11" cx="133.23" cy="301.61" r="2.03"/>
	</g>
	<path class="st15" d="M70.89,275.74c0,11.12-9.02,20.14-20.14,20.14V255.6C61.88,255.6,70.89,264.62,70.89,275.74z"/>
	<g>
		<circle class="st11" cx="50.76" cy="267.48" r="6.3"/>
		<ellipse class="st11" cx="50.76" cy="283.32" rx="10.94" ry="7.58"/>
	</g>
	<g id="coin_00000074400146642497144000000008394629867902934407_">
		<g id="coin_00000087402861972179238940000014320797306976094634_">
			<path class="st18" d="M362.5,107.84c0,16.32-13.23,29.55-29.55,29.55s-29.55-13.23-29.55-29.55c0-2.66,0.35-5.24,1.01-7.69
				c3.38-12.59,14.88-21.86,28.54-21.86s25.16,9.27,28.54,21.86C362.15,102.6,362.5,105.18,362.5,107.84z"/>
			<path class="st19" d="M357.15,107.84c0,13.35-10.86,24.2-24.21,24.2c-13.35,0-24.21-10.86-24.21-24.2c0-2.69,0.44-5.27,1.25-7.69
				c3.22-9.59,12.29-16.52,22.95-16.52c10.66,0,19.73,6.93,22.95,16.52C356.71,102.57,357.15,105.16,357.15,107.84z"/>
			<path class="st19" d="M362.5,107.84h-5.34c0-2.69-0.44-5.27-1.25-7.69h5.59C362.15,102.6,362.5,105.18,362.5,107.84z"/>
			<path class="st19" d="M309.99,100.15c-0.81,2.42-1.25,5-1.25,7.69h-5.34c0-2.66,0.35-5.24,1.01-7.69H309.99z"/>
			<path class="st20" d="M357.15,107.84h-48.41c0-2.69,0.44-5.27,1.25-7.69h45.91C356.71,102.57,357.15,105.16,357.15,107.84z"/>
		</g>
		<g id="coin_00000125583522327891008120000014183428535758751673_">
			<path class="st20" d="M278.45,157.93L278.45,157.93l-0.01-0.02c-0.12-0.28-0.26-0.54-0.44-0.79c-0.14-0.2-0.31-0.38-0.49-0.56
				l-2.29-3.33l-2.41,1.68c-4.93-0.15-12.2,2.55-19.19,7.54c-6.71,4.79-11.51,10.5-13.18,15.12l-2.79,1.95l2.99,4.23
				c3.14,4.41,14.05,2.02,24.37-5.34C274.75,171.49,280.46,162.61,278.45,157.93z"/>
			
				<ellipse transform="matrix(0.8141 -0.5807 0.5807 0.8141 -49.0297 179.934)" class="st18" cx="256.56" cy="166.56" rx="22.94" ry="9.8"/>
			<path class="st20" d="M271.6,161.45c-2.27,3.74-6.13,7.65-10.84,11c-6.12,4.36-12.75,7.07-17.31,7.07c-0.77,0-2-0.09-2.85-0.58
				c-0.25-0.15-0.47-0.33-0.63-0.56c-1.72-2.41,2.25-10.51,12.38-17.73c6.12-4.36,12.75-7.07,17.31-7.07c1,0,2.78,0.15,3.48,1.14
				c0.15,0.22,0.26,0.48,0.32,0.78C273.74,156.86,273.08,159.03,271.6,161.45z"/>
			<path class="st19" d="M271.6,161.45c-2.27,3.74-6.13,7.65-10.84,11c-6.12,4.36-12.75,7.07-17.31,7.07c-0.77,0-2-0.09-2.85-0.58
				c-0.63-3.07,3.49-10.38,12.71-16.95c6.12-4.36,12.75-7.07,17.32-7.07c0.77,0,2,0.09,2.85,0.58
				C273.74,156.86,273.08,159.03,271.6,161.45z"/>
		</g>
		<g id="coin_00000124843323753958494280000013015347041911382680_">
			
				<ellipse transform="matrix(0.8505 -0.5261 0.5261 0.8505 -6.6363 248.3679)" class="st20" cx="433.52" cy="135.86" rx="20.09" ry="32.9"/>
			<polygon class="st20" points="416.21,107.88 422.25,104.21 456.32,160.41 450.82,163.84 			"/>
			
				<ellipse transform="matrix(0.8505 -0.5261 0.5261 0.8505 -4.278 250.5207)" class="st18" cx="438.48" cy="132.78" rx="20.09" ry="32.9"/>
			<path class="st20" d="M440.37,156.62c-5.87-2.97-11.45-8.4-15.71-15.28c-3.71-5.99-6.03-12.58-6.55-18.55
				c-0.56-6.43,0.98-11.49,4.22-14.1l0,0c0.27-0.22,0.56-0.43,0.86-0.61c3.38-2.09,8.14-1.78,13.4,0.88
				c5.87,2.97,11.45,8.4,15.71,15.28c3.71,6,6.03,12.59,6.55,18.56c0.6,6.98-1.25,12.34-5.08,14.71c-0.3,0.19-0.62,0.36-0.94,0.51
				c0,0,0,0,0,0C449.52,159.52,445.16,159.04,440.37,156.62z"/>
			<path class="st19" d="M440.37,156.62c-5.87-2.97-11.45-8.4-15.71-15.28c-3.71-5.99-6.03-12.58-6.55-18.55
				c-0.56-6.43,0.98-11.49,4.22-14.1l0,0c3.3-1.51,7.67-1.03,12.45,1.39c5.88,2.97,11.45,8.4,15.71,15.28
				c3.71,5.99,6.04,12.59,6.55,18.56c0.56,6.43-0.98,11.49-4.22,14.1c0,0,0,0,0,0C449.52,159.52,445.16,159.04,440.37,156.62z"/>
		</g>
		<g id="coin_00000029023962338813873430000017360681773062959520_">
			
				<ellipse transform="matrix(0.9963 -0.0862 0.0862 0.9963 -22.9579 40.7462)" class="st20" cx="460.26" cy="286.17" rx="22.09" ry="30.39"/>
			<polygon class="st20" points="459.04,255.84 464.18,255.84 467.7,316.44 460.26,316.46 			"/>
			
				<ellipse transform="matrix(0.9963 -0.0862 0.0862 0.9963 -22.94 41.1611)" class="st18" cx="465.08" cy="286.17" rx="22.09" ry="30.39"/>
			<path class="st20" d="M479.2,304.25c-3.01,5-7.22,7.97-11.84,8.37c-0.36,0.03-0.72,0.05-1.08,0.05c-0.69,0-1.38-0.06-2.07-0.17
				c-3.74-0.62-7.36-2.91-10.39-6.61c-3.86-4.71-6.32-11.15-6.93-18.14c-0.63-7.28,0.81-14.27,4.06-19.66
				c2.8-4.64,6.62-7.54,10.86-8.24c0.32-0.06,0.65-0.1,0.98-0.13c0.36-0.03,0.72-0.05,1.08-0.05c4.45,0,8.88,2.41,12.47,6.79
				c3.86,4.71,6.32,11.15,6.93,18.14C483.89,291.88,482.45,298.86,479.2,304.25z"/>
			<path class="st19" d="M475.06,304.25c-2.79,4.64-6.62,7.54-10.85,8.24c-3.74-0.62-7.36-2.91-10.39-6.61
				c-3.86-4.71-6.32-11.15-6.93-18.14c-0.63-7.28,0.81-14.27,4.06-19.66c2.8-4.64,6.62-7.54,10.86-8.24
				c3.73,0.63,7.36,2.92,10.39,6.61c3.86,4.71,6.32,11.15,6.93,18.14C479.75,291.88,478.31,298.86,475.06,304.25z"/>
		</g>
		<g id="coin_00000133530061550554488410000017096585062337664924_">
			
				<ellipse transform="matrix(0.8926 -0.4508 0.4508 0.8926 -94.3241 117.5433)" class="st20" cx="199.6" cy="256.79" rx="32.9" ry="20.09"/>
			<polygon class="st20" points="170.23,271.62 166.99,265.05 224.74,234.26 228.97,241.96 			"/>
			
				<ellipse transform="matrix(0.8926 -0.4508 0.4508 0.8926 -92.1884 115.7392)" class="st18" cx="196.88" cy="251.4" rx="32.9" ry="20.09"/>
			<path class="st20" d="M220.79,251.57c-3.47,5.6-9.36,10.69-16.58,14.34c-6.29,3.18-13.06,4.93-19.05,4.93
				c-6.46,0-11.37-1.96-13.68-5.42v0c-0.2-0.29-0.38-0.6-0.53-0.91c-1.79-3.55-1.07-8.26,2.03-13.27
				c3.47-5.6,9.36-10.69,16.58-14.34c6.29-3.18,13.06-4.93,19.05-4.93c7,0,12.18,2.31,14.22,6.33c0.16,0.32,0.3,0.65,0.42,0.99
				c0,0,0,0,0,0C224.47,242.71,223.61,247.02,220.79,251.57z"/>
			<path class="st19" d="M220.79,251.57c-3.47,5.6-9.36,10.69-16.58,14.34c-6.29,3.18-13.06,4.93-19.05,4.93
				c-6.46,0-11.37-1.96-13.68-5.42v0c-1.22-3.41-0.37-7.73,2.46-12.28c3.47-5.6,9.36-10.69,16.58-14.34
				c6.29-3.18,13.06-4.93,19.05-4.93c6.46,0,11.36,1.96,13.68,5.42c0,0,0,0,0,0C224.47,242.71,223.61,247.02,220.79,251.57z"/>
		</g>
	</g>
	<g id="bar_icon_00000044174004200049025040000012649465111314063261_">
		<circle class="st3" cx="148.18" cy="409.39" r="39.93"/>
	</g>
	<g id="card_00000026880962423045244810000006796904290585686419_">
		<g id="bill_00000079482214511944065790000018282759280486758589_">
			<g>
				<path class="st3" d="M631.39,293.77h-6.67H575.9h-1.14c-3.68,0-6.67,2.98-6.67,6.67v70.51c-0.03,3.66-3,6.62-6.67,6.62h6.67
					h48.82h1.14c3.68,0,6.67-2.98,6.67-6.67v-70.51C624.75,296.73,627.72,293.77,631.39,293.77z"/>
				<path class="st3" d="M631.39,293.77c-3.68,0-6.67,2.98-6.67,6.67v6.67h13.33v-6.67C638.05,296.75,635.07,293.77,631.39,293.77z"
					/>
				<path class="st3" d="M561.43,377.56c3.68,0,6.67-2.98,6.67-6.67v-6.67h-13.33v6.67C554.76,374.58,557.75,377.56,561.43,377.56z"
					/>
			</g>
			<rect x="568.1" y="316.45" class="st11" width="56.63" height="4.4"/>
			<rect x="587.12" y="325.43" class="st11" width="31.27" height="3.75"/>
			<rect x="587.12" y="333.77" class="st11" width="31.27" height="3.75"/>
			<rect x="587.12" y="342.1" class="st11" width="31.27" height="3.75"/>
			<rect x="587.12" y="350.44" class="st11" width="31.27" height="3.75"/>
			<rect x="598.63" y="360.65" class="st11" width="20.13" height="3.75"/>
		</g>
		
			<linearGradient id="card_bg_00000116939509404327379910000006893822750591789212_" gradientUnits="userSpaceOnUse" x1="579.8898" y1="283.5595" x2="573.754" y2="202.9172">
			<stop  offset="0" style="stop-color:#3853A4"/>
			<stop  offset="0.0746" style="stop-color:#5068AD"/>
			<stop  offset="0.2195" style="stop-color:#7A8ABC"/>
			<stop  offset="0.368" style="stop-color:#9CA7C8"/>
			<stop  offset="0.5185" style="stop-color:#B6BDD2"/>
			<stop  offset="0.672" style="stop-color:#C9CDD9"/>
			<stop  offset="0.83" style="stop-color:#D4D7DD"/>
			<stop  offset="1" style="stop-color:#D8DADE"/>
		</linearGradient>
		
			<path id="card_bg_00000034061931754865206240000005032580773027779493_" style="fill:url(#card_bg_00000116939509404327379910000006893822750591789212_);" d="
			M614.09,293.59h-72.88c-15.23,0-27.58-12.35-27.58-27.58v-23.76c0-15.23,12.35-27.58,27.58-27.58h72.88
			c15.23,0,27.58,12.35,27.58,27.58v23.76C641.67,281.25,629.32,293.59,614.09,293.59z"/>
		<g id="card_00000183245534070036149990000016042119749997922703_">
			<path class="st3" d="M658.28,243.21v67.55c0,3.14-2.55,5.69-5.69,5.69H535.92c-3.14,0-5.69-2.55-5.69-5.69v-67.55
				c0-3.14,2.55-5.69,5.69-5.69h116.67C655.73,237.53,658.28,240.07,658.28,243.21z"/>
			
				<linearGradient id="SVGID_00000000207276154470351720000000814886969949834941_" gradientUnits="userSpaceOnUse" x1="530.2306" y1="283.4454" x2="658.2756" y2="283.4454">
				<stop  offset="0" style="stop-color:#5077BA"/>
				<stop  offset="1" style="stop-color:#3853A4"/>
			</linearGradient>
			<path style="opacity:0.85;fill:url(#SVGID_00000000207276154470351720000000814886969949834941_);" d="M658.28,250.44v60.32
				c0,3.14-2.55,5.69-5.69,5.69H535.92c-3.14,0-5.69-2.55-5.69-5.69v-25.81c4.68-2.73,9.47-5.25,14.42-7.45
				c14.26-6.35,30.12-9.98,45.55-7.67c8.47,1.27,16.9,4.3,25.38,3.08c9.25-1.34,16.94-7.49,24.75-12.62
				C646.05,256.54,652.05,253.25,658.28,250.44z"/>
			<path class="st14" d="M637.77,265.5h-2.1c-3.98,0-7.21-3.23-7.21-7.21v-2.1c0-3.98,3.23-7.21,7.21-7.21h2.1
				c3.98,0,7.21,3.23,7.21,7.21v2.1C644.97,262.27,641.75,265.5,637.77,265.5z"/>
			<rect x="545.45" y="254.14" class="st14" width="39.14" height="6.14"/>
			<rect x="608.01" y="292.79" class="st14" width="36.96" height="4.78"/>
			<rect x="620.52" y="301.66" class="st14" width="24.45" height="3.18"/>
			<g>
				<g>
					<circle class="st14" cx="547.47" cy="294.92" r="2.03"/>
					<circle class="st14" cx="554.14" cy="294.92" r="2.03"/>
					<circle class="st14" cx="560.8" cy="294.92" r="2.03"/>
					<circle class="st14" cx="567.47" cy="294.92" r="2.03"/>
				</g>
				<g>
					<path class="st11" d="M574.67,296.58c0-0.72,0.43-1.22,1.13-1.52l-0.01-0.03c-0.63-0.3-0.9-0.79-0.9-1.27
						c0-0.9,0.76-1.51,1.75-1.51c1.1,0,1.65,0.69,1.65,1.4c0,0.48-0.24,0.99-0.93,1.33V295c0.71,0.28,1.14,0.78,1.14,1.47
						c0,0.99-0.85,1.65-1.93,1.65C575.38,298.11,574.67,297.41,574.67,296.58z M577.72,296.54c0-0.69-0.48-1.02-1.25-1.24
						c-0.66,0.19-1.02,0.63-1.02,1.17c-0.03,0.58,0.41,1.08,1.13,1.08C577.28,297.56,577.72,297.13,577.72,296.54z M575.61,293.71
						c0,0.57,0.43,0.87,1.08,1.05c0.49-0.17,0.86-0.51,0.86-1.03c0-0.45-0.27-0.93-0.96-0.93
						C575.96,292.8,575.61,293.22,575.61,293.71z"/>
					<path class="st11" d="M580.89,296.58c0-0.72,0.43-1.22,1.13-1.52l-0.01-0.03c-0.63-0.3-0.9-0.79-0.9-1.27
						c0-0.9,0.76-1.51,1.75-1.51c1.1,0,1.65,0.69,1.65,1.4c0,0.48-0.24,0.99-0.93,1.33V295c0.71,0.28,1.14,0.78,1.14,1.47
						c0,0.99-0.85,1.65-1.93,1.65C581.61,298.11,580.89,297.41,580.89,296.58z M583.95,296.54c0-0.69-0.48-1.02-1.25-1.24
						c-0.66,0.19-1.02,0.63-1.02,1.17c-0.03,0.58,0.41,1.08,1.13,1.08C583.5,297.56,583.95,297.13,583.95,296.54z M581.83,293.71
						c0,0.57,0.43,0.87,1.08,1.05c0.49-0.17,0.86-0.51,0.86-1.03c0-0.45-0.27-0.93-0.96-0.93
						C582.18,292.8,581.83,293.22,581.83,293.71z"/>
					<path class="st11" d="M587.11,296.58c0-0.72,0.43-1.22,1.13-1.52l-0.01-0.03c-0.63-0.3-0.9-0.79-0.9-1.27
						c0-0.9,0.76-1.51,1.75-1.51c1.1,0,1.65,0.69,1.65,1.4c0,0.48-0.24,0.99-0.93,1.33V295c0.71,0.28,1.14,0.78,1.14,1.47
						c0,0.99-0.85,1.65-1.93,1.65C587.83,298.11,587.11,297.41,587.11,296.58z M590.17,296.54c0-0.69-0.48-1.02-1.25-1.24
						c-0.66,0.19-1.02,0.63-1.02,1.17c-0.03,0.58,0.41,1.08,1.13,1.08C589.72,297.56,590.17,297.13,590.17,296.54z M588.06,293.71
						c0,0.57,0.43,0.87,1.08,1.05c0.49-0.17,0.86-0.51,0.86-1.03c0-0.45-0.27-0.93-0.96-0.93
						C588.41,292.8,588.06,293.22,588.06,293.71z"/>
					<path class="st11" d="M593.85,297.48c0.17,0.02,0.36,0,0.62-0.03c0.45-0.06,0.86-0.24,1.19-0.55c0.38-0.34,0.65-0.84,0.75-1.51
						h-0.03c-0.31,0.38-0.77,0.61-1.34,0.61c-1.02,0-1.68-0.77-1.68-1.74c0-1.07,0.78-2.02,1.94-2.02s1.88,0.94,1.88,2.39
						c0,1.25-0.42,2.12-0.98,2.66c-0.44,0.43-1.04,0.69-1.65,0.76c-0.28,0.04-0.52,0.05-0.71,0.04V297.48z M594.13,294.21
						c0,0.71,0.43,1.2,1.09,1.2c0.51,0,0.92-0.25,1.12-0.59c0.04-0.07,0.07-0.16,0.07-0.28c0-0.97-0.36-1.71-1.16-1.71
						C594.59,292.83,594.13,293.41,594.13,294.21z"/>
				</g>
			</g>
		</g>
	</g>
	<g>
		<g>
			<path class="st10" d="M126.99,405.06c3.22,0,6.36,0,9.55,0c0-0.16,0-0.29,0-0.41c0-3.02-0.01-6.05,0-9.07
				c0.01-2.2-1.26-3.14-3.08-3.52c-0.91-0.19-1.8-0.1-2.73,0.42c-0.55-1.23-1.17-2.42-1.61-3.67c-0.26-0.73,0.1-1.44,0.72-1.96
				c0.85-0.71,1.87-1.08,2.91-1.38c1.67-0.49,3.32-0.47,4.89,0.39c1.05,0.58,1.77,1.49,2.38,2.5c0.92,1.53,1.42,3.21,1.48,4.97
				c0.1,2.91,0.08,5.83,0.1,8.74c0.01,0.97,0,1.95,0,2.98c0.71,0,1.39,0.04,2.06-0.01c0.58-0.05,0.96,0.15,1.35,0.57
				c1.25,1.32,2.54,2.61,3.81,3.91c0.11,0.11,0.22,0.23,0.39,0.41c-2.57,0-5.07,0-7.61,0c0,0.49,0,0.93,0,1.37
				c0,4.12,0,8.24,0,12.36c0,2.27,1.59,3.98,3.85,4.28c2.08,0.28,3.95-0.19,5.68-1.3c2.76-1.78,4.98-4.07,6.46-7.03
				c0.63-1.26,0.92-2.47,0.99-3.85c-0.12,0.01-0.23,0.01-0.34,0.02c-1.23,0.11-2.45,0.06-3.64-0.35c-1.7-0.58-2.79-1.74-3.3-3.44
				c-0.49-1.61-0.66-3.26-0.16-4.89c0.67-2.2,2.08-3.61,4.42-4c2.36-0.38,4.59-0.15,6.53,1.38c1.98,1.57,3.29,3.61,3.9,6.06
				c0.95,3.81,0.43,7.49-1.34,10.96c-2.11,4.14-5.1,7.5-9.14,9.86c-2.28,1.33-4.78,1.95-7.41,2.22c-3.28,0.33-5.9-0.98-8.29-3
				c-1.21-1.02-2.28-2.18-2.95-3.65c-0.22-0.48-0.33-0.97-0.33-1.51c0.01-5.04,0.01-10.09,0.01-15.13c0-0.09,0-0.19,0-0.33
				c-0.16-0.01-0.3-0.02-0.44-0.02c-1.38,0-2.76,0-4.13-0.01c-0.17,0-0.38-0.07-0.49-0.18c-1.46-1.5-2.9-3-4.34-4.51
				C127.11,405.21,127.08,405.17,126.99,405.06z"/>
		</g>
	</g>
	<g id="cloud_00000084510394567402524880000001984739406562526086_">
		<g id="cloud_00000121269432957525446120000003483576480880142762_">
			<path class="st23" d="M387.49,44.78c-3.88-12.05-15.18-20.76-28.52-20.76c-3.22,0-6.33,0.51-9.24,1.45
				C342.48,14.24,329.87,6.8,315.51,6.8c-19.83,0-36.34,14.18-39.95,32.95c-1.77-0.32-3.6-0.49-5.47-0.49
				c-16.81,0-30.44,13.63-30.44,30.44s13.63,30.44,30.44,30.44h116.2c15.3,0,27.7-12.4,27.7-27.7
				C414,57.55,402.23,45.4,387.49,44.78z"/>
			<path class="st23" d="M386.3,101.3H270.1c-17.42,0-31.59-14.17-31.59-31.59c0-17.42,14.17-31.59,31.59-31.59
				c1.52,0,3.05,0.11,4.56,0.33c4.2-19.07,21.2-32.79,40.85-32.79c13.99,0,26.9,6.89,34.7,18.47c2.84-0.83,5.78-1.25,8.75-1.25
				c6.72,0,13.11,2.11,18.49,6.09c5.06,3.75,8.81,8.82,10.87,14.72c7.14,0.5,13.78,3.6,18.77,8.79c5.19,5.4,8.05,12.5,8.05,19.99
				C415.15,88.36,402.2,101.3,386.3,101.3z M270.1,40.42c-16.15,0-29.29,13.14-29.29,29.29S253.94,99,270.1,99h116.2
				c14.64,0,26.55-11.91,26.55-26.55c0-14.27-11.16-25.92-25.41-26.52l-0.8-0.03l-0.25-0.76c-3.85-11.94-14.87-19.96-27.43-19.96
				c-3.03,0-6.02,0.47-8.88,1.4l-0.84,0.27l-0.48-0.74C341.43,14.74,329,7.95,315.51,7.95c-18.92,0-35.25,13.47-38.82,32.02
				l-0.22,1.12l-1.12-0.2C273.63,40.58,271.86,40.42,270.1,40.42z"/>
		</g>
		<g id="tick_00000050622081154856475080000016727821950943521457_">
			<g>
				<polygon class="st3" points="324.88,83.64 304.52,63.28 312.3,55.5 324.88,68.08 353.93,39.03 361.71,46.81 				"/>
			</g>
			
				<rect x="313.36" y="55.83" transform="matrix(0.7071 -0.7071 0.7071 0.7071 56.0413 257.959)" class="st3" width="52.09" height="11"/>
		</g>
	</g>
</g>
</svg>
