<?xml version="1.0" encoding="utf-8"?>
<!-- Generator: Adobe Illustrator 27.5.0, SVG Export Plug-In . SVG Version: 6.00 Build 0)  -->
<svg version="1.1" id="Layer_1" xmlns="http://www.w3.org/2000/svg" xmlns:xlink="http://www.w3.org/1999/xlink" x="0px" y="0px"
	 viewBox="0 0 192.8 144" style="enable-background:new 0 0 192.8 144;" xml:space="preserve">
<style type="text/css">
	.st0{fill:#4670EA;stroke:#1F3741;stroke-width:0.5;stroke-miterlimit:10;}
	.st1{fill:#B9EDD6;}
	.st2{fill:#E6EAF6;stroke:#1F3741;stroke-width:0.5;stroke-miterlimit:10;}
	.st3{fill:#53A07C;}
	.st4{fill:#4B8C6B;}
	.st5{fill:#E23E3D;}
	.st6{opacity:0.3;}
	.st7{fill:#4670EA;}
	.st8{fill:#213740;}
	.st9{fill:#E6EAF6;}
	.st10{fill:#4670EA;stroke:#213741;stroke-width:0.5;stroke-miterlimit:10;}
	.st11{fill:#1F3741;}
	.st12{fill:#E6EAF6;stroke:#1F3741;stroke-width:0.75;stroke-miterlimit:10;}
	.st13{fill:#E6EAF6;stroke:#213740;stroke-width:0.5;stroke-miterlimit:10;}
	.st14{fill:#4670EA;stroke:#213740;stroke-width:0.5;stroke-miterlimit:10;}
	.st15{fill:none;stroke:#213740;stroke-width:0.25;stroke-miterlimit:10;}
	.st16{fill:none;stroke:#213740;stroke-width:0.25;stroke-miterlimit:10;stroke-dasharray:1.0502,1.0502;}
	.st17{fill:none;stroke:#213740;stroke-width:0.25;stroke-miterlimit:10;stroke-dasharray:1.0119,1.0119;}
	.st18{fill:none;stroke:#213740;stroke-width:0.25;stroke-miterlimit:10;stroke-dasharray:0.978,0.978;}
	.st19{fill:#4670EA;stroke:#1F3741;stroke-width:0.25;stroke-miterlimit:10;}
	.st20{fill:#E6EAF6;stroke:#1F3741;stroke-width:0.25;stroke-miterlimit:10;}
</style>
<g>
	<g>
		<g>
			<g>
				<polygon class="st0" points="110.1,64.9 109.4,104 26.9,102.6 27.4,67.4 23.9,67.4 27.5,63.5 				"/>
			</g>
		</g>
	</g>
	<g>
		<g>
			<g>
				<path class="st1" d="M67.1,69.4c-7.9-0.1-14.4,6.2-14.6,14.1c-0.1,7.9,6.2,14.4,14.1,14.6c7.9,0.1,14.4-6.2,14.6-14.1
					C81.3,76,75,69.5,67.1,69.4z"/>
			</g>
		</g>
	</g>
	<g>
		<g>
			<g>
				<polygon class="st2" points="23.3,106.5 105.9,107.2 106.5,68.7 23.9,67.3 				"/>
			</g>
		</g>
	</g>
	<g>
		<g>
			<g>
				
					<ellipse transform="matrix(0.8132 -0.582 0.582 0.8132 -38.5231 55.2527)" class="st0" cx="66.8" cy="87.6" rx="14.3" ry="14.3"/>
			</g>
		</g>
	</g>
	<g>
		<g>
			<g>
				<g>
					<path class="st2" d="M58.4,71.7l-29.6-0.5l-0.5,31.7l29.6,0.5c-5.5-3.2-9.2-9.2-9.1-16C48.9,80.5,52.8,74.6,58.4,71.7z"/>
				</g>
			</g>
		</g>
		<g>
			<g>
				<g>
					<path class="st2" d="M84.9,87.9c-0.1,6.8-4,12.7-9.6,15.7L101,104l0.5-31.7l-25.7-0.4C81.3,75.1,85,81.1,84.9,87.9z"/>
				</g>
			</g>
		</g>
	</g>
	<g>
		<g>
			<g>
				<polygon class="st3" points="105.8,107.9 109.4,104 106,99.9 				"/>
			</g>
		</g>
	</g>
	<g>
		<g>
			<g>
				<polygon class="st4" points="105.8,107.9 109.4,104 110.1,64.9 106.5,68.7 				"/>
			</g>
		</g>
	</g>
	<g>
		<g>
			<g>
				<polygon class="st0" points="63.3,106.8 68.4,106.9 68.7,68.1 63.6,68 				"/>
			</g>
		</g>
	</g>
	<g>
		<g>
			<g>
				<polygon class="st5" points="63.6,68 68.7,68.1 70.1,64.2 65.3,64.1 				"/>
			</g>
		</g>
	</g>
</g>
<g>
	<g>
		<g>
			<g>
				<polygon class="st0" points="125.5,59.3 106.9,94.8 103.7,93.1 31.9,55.4 48.7,23.4 45.5,21.7 50.5,19.9 				"/>
			</g>
		</g>
	</g>
	<g>
		<g>
			<g>
				<path class="st1" d="M84.1,43.6c-7.2-3.8-16.1-1-19.9,6.2c-3.8,7.2-1,16.1,6.2,19.9c7.2,3.8,16.1,1,19.9-6.2
					C94.1,56.2,91.3,47.3,84.1,43.6z"/>
			</g>
		</g>
	</g>
	<g>
		<g>
			<g>
				<g>
					
						<rect x="53.5" y="16.8" transform="matrix(0.4651 -0.8852 0.8852 0.4651 -13.0388 96.8536)" class="st2" width="40.2" height="84.7"/>
				</g>
			</g>
		</g>
	</g>
	<g>
		<g>
			<g>
				
					<ellipse transform="matrix(0.7887 -0.6148 0.6148 0.7887 -21.0428 59.0541)" class="st0" cx="75.4" cy="60.1" rx="14.7" ry="14.7"/>
			</g>
		</g>
	</g>
	<g>
		<g>
			<g>
				<g>
					<g>
						<path class="st2" d="M33.1,56.3l26.9,14.1c-3.6-5.5-4.2-12.7-1-18.9c3.3-6.2,9.5-9.8,16.1-9.9L48.2,27.5L33.1,56.3z"/>
					</g>
				</g>
			</g>
			<g>
				<g>
					<g>
						<path class="st2" d="M91.8,68.8c-3.3,6.2-9.5,9.8-16.1,9.9l23.4,12.3l15.1-28.8L90.8,49.9C94.4,55.3,95,62.6,91.8,68.8z"/>
					</g>
				</g>
			</g>
		</g>
	</g>
	<g>
		<g>
			<g>
				<polygon class="st3" points="101.8,96.7 106.9,94.8 105.6,89.4 				"/>
			</g>
		</g>
	</g>
	<g>
		<g>
			<g>
				<polygon class="st4" points="106.9,94.8 101.8,96.7 103.7,93.1 				"/>
			</g>
		</g>
	</g>
	<g>
		<g>
			<g>
				
					<rect x="54.4" y="57" transform="matrix(0.4651 -0.8852 0.8852 0.4651 -12.9783 97.8706)" class="st0" width="40.2" height="5.3"/>
			</g>
		</g>
	</g>
	<g>
		<g>
			<g>
				<polygon class="st0" points="81.5,40.7 86.2,43.1 89.3,40.2 84.8,37.9 				"/>
			</g>
		</g>
	</g>
</g>
<g class="st6">
	<g>
		<g>
			<polygon class="st7" points="110.8,100.9 47.9,67.8 35.8,67.9 118.4,108.2 118.7,93.6 115.9,99 			"/>
		</g>
	</g>
</g>
<g>
	<g>
		<g>
			<path d="M85,76.8c-0.2-0.1-0.4,0-0.5,0.1L75,95c-0.1,0.2,0,0.4,0.1,0.5c0.2,0.1,0.4,0,0.5-0.1l9.5-18.1c0.1-0.1,0-0.3,0-0.4
				C85.1,76.8,85,76.8,85,76.8z"/>
		</g>
	</g>
</g>
<path class="st11" d="M91.3,27.5H75.7c-1.4,0-2.6,0.9-2.6,2.1v84.3c0,1.2,1.2,2.1,2.6,2.1h15.6c1.4,0,2.6-0.9,2.6-2.1V29.6
	C93.9,28.4,92.7,27.5,91.3,27.5z"/>
<path class="st12" d="M186.6,71.7c0-0.7-0.3-1.3-0.8-1.8l-7.5-6.6l7.5-6.6c0.5-0.5,0.8-1.1,0.8-1.8c0-0.7-0.3-1.3-0.8-1.8l-7.5-6.6
	l7.5-6.6c0.8-0.7,1-1.7,0.7-2.6c-0.4-0.9-1.2-1.6-2.2-1.6H76.5v71.8h107.7c1,0,1.9-0.6,2.2-1.6c0.4-0.9,0.1-2-0.7-2.6l-7.5-6.6
	l7.5-6.6c0.5-0.5,0.8-1.1,0.8-1.8c0-0.7-0.3-1.3-0.8-1.8l-7.5-6.6l7.5-6.6C186.3,73,186.6,72.4,186.6,71.7z"/>
<path class="st7" d="M154.1,69.2h-33.4c-1.3,0-2.4,1.1-2.4,2.4c0,1.3,1.1,2.4,2.4,2.4h33.4c1.3,0,2.4-1.1,2.4-2.4
	C156.5,70.3,155.5,69.2,154.1,69.2z"/>
<path class="st7" d="M154.1,59.7h-33.4c-1.3,0-2.4,1.1-2.4,2.4s1.1,2.4,2.4,2.4h33.4c1.3,0,2.4-1.1,2.4-2.4S155.5,59.7,154.1,59.7z"
	/>
<path class="st7" d="M120.8,54.9h47.7c1.3,0,2.4-1.1,2.4-2.4s-1.1-2.4-2.4-2.4h-47.7c-1.3,0-2.4,1.1-2.4,2.4S119.5,54.9,120.8,54.9z
	"/>
<path class="st7" d="M154.1,78.8h-33.4c-1.3,0-2.4,1.1-2.4,2.4s1.1,2.4,2.4,2.4h33.4c1.3,0,2.4-1.1,2.4-2.4S155.5,78.8,154.1,78.8z"
	/>
<path class="st7" d="M154.2,88.5h-33.5c-1.3,0-2.4,1.1-2.4,2.4s1.1,2.4,2.4,2.4h33.5c1.3,0,2.4-1.1,2.4-2.4S155.5,88.5,154.2,88.5z"
	/>
<g>
	<g>
		<path class="st7" d="M84.3,66.2c2.3,0,4.6,0,6.9,0c0-0.1,0-0.2,0-0.3c0-2.2,0-4.4,0-6.6c0-1.6-0.9-2.3-2.2-2.6
			c-0.7-0.1-1.3-0.1-2,0.3c-0.4-0.9-0.8-1.8-1.2-2.7c-0.2-0.5,0.1-1,0.5-1.4c0.6-0.5,1.4-0.8,2.1-1c1.2-0.4,2.4-0.3,3.5,0.3
			c0.8,0.4,1.3,1.1,1.7,1.8c0.7,1.1,1,2.3,1.1,3.6c0.1,2.1,0.1,4.2,0.1,6.3c0,0.7,0,1.4,0,2.2c0.5,0,1,0,1.5,0c0.4,0,0.7,0.1,1,0.4
			c0.9,1,1.8,1.9,2.8,2.8c0.1,0.1,0.2,0.2,0.3,0.3c-1.9,0-3.7,0-5.5,0c0,0.4,0,0.7,0,1c0,3,0,6,0,9c0,1.6,1.2,2.9,2.8,3.1
			c1.5,0.2,2.9-0.1,4.1-0.9c2-1.3,3.6-3,4.7-5.1c0.5-0.9,0.7-1.8,0.7-2.8c-0.1,0-0.2,0-0.2,0c-0.9,0.1-1.8,0-2.6-0.3
			c-1.2-0.4-2-1.3-2.4-2.5c-0.4-1.2-0.5-2.4-0.1-3.5c0.5-1.6,1.5-2.6,3.2-2.9c1.7-0.3,3.3-0.1,4.7,1c1.4,1.1,2.4,2.6,2.8,4.4
			c0.7,2.8,0.3,5.4-1,8c-1.5,3-3.7,5.4-6.6,7.1c-1.7,1-3.5,1.4-5.4,1.6c-2.4,0.2-4.3-0.7-6-2.2c-0.9-0.7-1.7-1.6-2.1-2.6
			c-0.2-0.3-0.2-0.7-0.2-1.1c0-3.7,0-7.3,0-11c0-0.1,0-0.1,0-0.2c-0.1,0-0.2,0-0.3,0c-1,0-2,0-3,0c-0.1,0-0.3,0-0.4-0.1
			c-1.1-1.1-2.1-2.2-3.1-3.3C84.4,66.3,84.3,66.2,84.3,66.2z"/>
	</g>
</g>
<g>
	<g>
		<g>
			<g>
				
					<ellipse transform="matrix(0.959 -0.2836 0.2836 0.959 -23.0647 7.8955)" class="st19" cx="15.7" cy="83.6" rx="13.1" ry="13.1"/>
			</g>
		</g>
	</g>
	<g>
		<g>
			<g>
				<g>
					
						<ellipse transform="matrix(0.6166 -0.7873 0.7873 0.6166 -59.796 44.4509)" class="st20" cx="15.7" cy="83.6" rx="11.4" ry="11.4"/>
				</g>
			</g>
		</g>
	</g>
	<g>
		<g>
			<path class="st19" d="M12.2,79.1c0.7,0.6,1.4,1.1,2.1,1.7c0,0,0.1-0.1,0.1-0.1c0.5-0.7,1.1-1.3,1.6-2c0.4-0.5,0.3-0.9,0-1.3
				c-0.2-0.2-0.4-0.3-0.7-0.4c0.1-0.4,0.2-0.7,0.3-1.1c0.1-0.2,0.3-0.3,0.5-0.3c0.3,0,0.6,0.1,0.9,0.2c0.5,0.2,0.8,0.5,1,1
				c0.1,0.3,0.1,0.6,0.1,1c-0.1,0.5-0.3,1-0.6,1.4c-0.5,0.7-1,1.3-1.6,1.9c-0.2,0.2-0.4,0.4-0.5,0.7c0.2,0.1,0.3,0.3,0.5,0.4
				c0.1,0.1,0.2,0.2,0.2,0.4c0,0.5,0.1,1,0.1,1.5c0,0,0,0.1,0,0.2c-0.6-0.5-1.1-0.9-1.7-1.4c-0.1,0.1-0.2,0.2-0.2,0.3
				c-0.7,0.9-1.5,1.8-2.2,2.7c-0.4,0.5-0.4,1.2,0.1,1.6c0.4,0.4,0.9,0.7,1.5,0.7c0.9,0.1,1.8,0,2.7-0.4c0.4-0.2,0.6-0.4,0.9-0.7
				c0,0-0.1,0-0.1-0.1c-0.3-0.2-0.5-0.4-0.7-0.7c-0.3-0.4-0.3-0.9-0.1-1.3c0.2-0.4,0.4-0.8,0.8-1.1c0.5-0.4,1.1-0.4,1.7-0.1
				c0.6,0.3,1,0.8,1.2,1.5c0.1,0.7,0.1,1.4-0.2,2c-0.5,1-1.3,1.7-2.3,2.2C16.3,90,15,90.2,13.7,90c-0.7-0.1-1.4-0.4-2-0.9
				c-0.8-0.5-1.1-1.3-1.3-2.2c-0.1-0.4-0.1-0.9,0-1.3c0-0.1,0.1-0.3,0.2-0.4c0.9-1.1,1.8-2.2,2.7-3.3c0,0,0,0,0.1-0.1
				c0,0-0.1-0.1-0.1-0.1c-0.3-0.2-0.6-0.5-0.9-0.7c0,0-0.1-0.1-0.1-0.1C12.3,80.4,12.3,79.8,12.2,79.1
				C12.2,79.2,12.2,79.1,12.2,79.1z"/>
		</g>
	</g>
</g>
<g>
	<g>
		<g>
			<g>
				
					<ellipse transform="matrix(0.1649 -0.9863 0.9863 0.1649 -73.1525 116.6458)" class="st19" cx="32.3" cy="101.5" rx="15.5" ry="15.5"/>
			</g>
		</g>
	</g>
	<g>
		<g>
			<g>
				<g>
					
						<ellipse transform="matrix(0.899 -0.4379 0.4379 0.899 -41.1906 24.395)" class="st20" cx="32.3" cy="101.5" rx="13.4" ry="13.4"/>
				</g>
			</g>
		</g>
	</g>
	<g>
		<g>
			<path class="st19" d="M25.7,102.9c1-0.4,1.9-0.9,2.9-1.3c0,0,0-0.1-0.1-0.1c-0.4-0.9-0.8-1.8-1.3-2.8c-0.3-0.7-0.8-0.8-1.4-0.6
				c-0.3,0.1-0.6,0.2-0.8,0.5c-0.3-0.3-0.7-0.6-1-0.9c-0.2-0.2-0.2-0.5-0.1-0.7c0.2-0.3,0.4-0.6,0.7-0.8c0.4-0.4,0.9-0.6,1.5-0.6
				c0.4,0,0.7,0.2,1.1,0.4c0.5,0.3,0.9,0.8,1.1,1.3c0.4,0.9,0.8,1.8,1.2,2.7c0.1,0.3,0.3,0.6,0.4,0.9c0.2-0.1,0.4-0.2,0.6-0.3
				c0.2-0.1,0.3-0.1,0.5,0c0.6,0.2,1.1,0.4,1.7,0.7c0,0,0.1,0,0.2,0.1c-0.8,0.4-1.5,0.7-2.3,1.1c0.1,0.2,0.1,0.3,0.2,0.4
				c0.6,1.3,1.1,2.5,1.7,3.8c0.3,0.7,1,1,1.8,0.8c0.7-0.2,1.2-0.6,1.6-1.2c0.6-0.9,1-1.9,1-3c0-0.5-0.1-0.9-0.2-1.3
				c0,0-0.1,0-0.1,0.1c-0.4,0.2-0.7,0.4-1.2,0.4c-0.6,0.1-1.1-0.1-1.5-0.6c-0.4-0.4-0.7-0.9-0.7-1.5c-0.1-0.8,0.1-1.4,0.8-1.8
				c0.7-0.4,1.4-0.7,2.2-0.5c0.8,0.2,1.5,0.6,2,1.3c0.8,1,1.2,2.2,1.1,3.5c-0.1,1.6-0.5,3-1.4,4.3c-0.5,0.7-1.2,1.3-2,1.7
				c-1,0.6-1.9,0.5-2.9,0.2c-0.5-0.1-1-0.3-1.4-0.7c-0.1-0.1-0.2-0.2-0.3-0.4c-0.7-1.5-1.4-3.1-2.1-4.6c0,0,0-0.1,0-0.1
				c0,0-0.1,0-0.1,0.1c-0.4,0.2-0.8,0.4-1.3,0.6c-0.1,0-0.1,0-0.2,0C27.1,103.5,26.4,103.2,25.7,102.9C25.7,103,25.7,103,25.7,102.9
				z"/>
		</g>
	</g>
</g>
</svg>
