<?xml version="1.0" encoding="utf-8"?>
<!-- Generator: Adobe Illustrator 27.5.0, SVG Export Plug-In . SVG Version: 6.00 Build 0)  -->
<svg version="1.1" id="Layer_1" xmlns="http://www.w3.org/2000/svg" xmlns:xlink="http://www.w3.org/1999/xlink" x="0px" y="0px"
	 viewBox="0 0 180 25" style="enable-background:new 0 0 180 25;" xml:space="preserve">
<style type="text/css">
	.st0{fill:#97E5FF;}
	.st1{fill:#1FAEFF;}
	.st2{fill:#136FFF;}
</style>
<g>
	<g>
		<path class="st0" d="M1.3,0.5h14.2c0.5,0,0.8,0.3,0.8,0.8V8c0,0.4-0.3,0.8-0.8,0.8H8.3L1.1,1.2C0.8,0.9,1,0.5,1.3,0.5z"/>
		<path class="st1" d="M1.2,8.6h7.1l7.3,7.3c0.2,0.2,0.1,0.6-0.3,0.6h-15v-7C0.3,9.1,0.7,8.6,1.2,8.6z"/>
		<polygon class="st2" points="8.3,24.5 8.3,16.6 0.3,16.6 		"/>
	</g>
	<g>
		<g>
			<g>
				<path class="st2" d="M23.2,14.3h-2.4V4h7.8v1.9h-5.4V14.3z M23,8.6h5v1.9h-5V8.6z"/>
				<path class="st2" d="M31.1,5.2c-0.4,0-0.8-0.1-1-0.4c-0.3-0.2-0.4-0.6-0.4-0.9s0.1-0.7,0.4-0.9c0.3-0.2,0.6-0.4,1-0.4
					s0.8,0.1,1,0.3s0.4,0.5,0.4,0.9s-0.1,0.7-0.4,1S31.5,5.2,31.1,5.2z M29.9,14.3v-8h2.3v7.9h-2.3V14.3z"/>
				<path class="st2" d="M39.1,6.2c0.6,0,1.2,0.1,1.7,0.4s0.8,0.6,1.1,1.2c0.3,0.5,0.4,1.2,0.4,2v4.5H40v-4.2c0-0.6-0.1-1.1-0.4-1.4
					c-0.3-0.3-0.7-0.5-1.2-0.5c-0.4,0-0.7,0.1-1,0.2s-0.5,0.4-0.7,0.7s-0.2,0.7-0.2,1.2v3.9h-2.3V6.3h2.2v2.2L36,7.8
					c0.3-0.4,0.7-0.9,1.3-1.1C37.8,6.4,38.4,6.2,39.1,6.2z"/>
				<path class="st2" d="M47.9,14.5c-0.8,0-1.6-0.1-2.4-0.3c-0.8-0.2-1.4-0.5-1.8-0.9l0.8-1.8c0.4,0.3,1,0.6,1.6,0.8
					s1.2,0.3,1.8,0.3c0.5,0,0.9,0,1.1-0.1s0.5-0.2,0.6-0.4s0.2-0.4,0.2-0.6c0-0.3-0.1-0.5-0.3-0.7s-0.5-0.3-0.9-0.4
					c-0.4-0.1-0.8-0.2-1.2-0.3s-0.8-0.2-1.3-0.3s-0.8-0.3-1.2-0.5S44.3,8.8,44,8.4c-0.2-0.4-0.3-0.8-0.3-1.4s0.2-1.1,0.5-1.6
					s0.8-0.9,1.4-1.2c0.8-0.3,1.6-0.4,2.6-0.4c0.6,0,1.3,0.1,1.9,0.2c0.6,0.2,1.2,0.4,1.7,0.7L51,6.5c-0.5-0.3-0.9-0.5-1.4-0.6
					s-1-0.2-1.4-0.2c-0.5,0-0.9,0.1-1.1,0.2c-0.3,0.1-0.5,0.2-0.6,0.4c-0.1,0.2-0.2,0.4-0.2,0.6c0,0.3,0.1,0.5,0.3,0.7
					S47.1,8,47.5,8c0.4,0.1,0.7,0.2,1.2,0.3c0.4,0.1,0.9,0.2,1.3,0.3c0.4,0.1,0.8,0.3,1.2,0.5s0.6,0.5,0.9,0.9s0.3,0.8,0.3,1.3
					c0,0.6-0.2,1.1-0.5,1.6s-0.8,0.9-1.5,1.2C49.7,14.3,48.8,14.5,47.9,14.5z"/>
				<path class="st2" d="M57.3,14.4c-0.8,0-1.6-0.2-2.2-0.5s-1.2-0.8-1.5-1.5c-0.4-0.6-0.6-1.3-0.6-2.1s0.2-1.5,0.6-2.1
					c0.4-0.6,0.9-1.1,1.5-1.4s1.4-0.5,2.2-0.5s1.6,0.2,2.3,0.5c0.7,0.3,1.2,0.8,1.5,1.4c0.4,0.6,0.6,1.3,0.6,2.1s-0.2,1.5-0.6,2.1
					s-0.9,1.1-1.5,1.4C58.9,14.2,58.2,14.4,57.3,14.4z M57.3,12.5c0.4,0,0.7-0.1,1-0.3s0.5-0.4,0.7-0.8s0.3-0.7,0.3-1.2
					S59.2,9.3,59,9s-0.4-0.6-0.7-0.7C58,8.1,57.7,8,57.3,8s-0.7,0.1-1,0.3S55.8,8.7,55.6,9s-0.3,0.9-0.3,1.3c0,0.5,0.1,0.8,0.3,1.2
					s0.4,0.6,0.7,0.8C56.6,12.4,57,12.5,57.3,12.5z"/>
				<path class="st2" d="M62.2,8.3V6.5h5.5v1.8H62.2z M63.4,14.3V6.2c0-0.9,0.3-1.6,0.8-2.2c0.5-0.5,1.3-0.8,2.3-0.8
					c0.3,0,0.6,0,1,0.1c0.3,0.1,0.6,0.2,0.8,0.3l-0.6,1.7c-0.1-0.1-0.3-0.2-0.4-0.2c-0.2,0-0.3-0.1-0.5-0.1c-0.3,0-0.6,0.1-0.8,0.3
					c-0.2,0.2-0.3,0.5-0.3,0.9V7l0.1,1v6.4H63.4z"/>
				<path class="st2" d="M67.7,8.3V6.5h5.6v1.8H67.7z M71.9,14.4c-0.9,0-1.7-0.2-2.2-0.7s-0.8-1.2-0.8-2.1v-7h2.4v6.9
					c0,0.3,0.1,0.6,0.3,0.8c0.2,0.2,0.4,0.3,0.7,0.3c0.4,0,0.7-0.1,0.9-0.3l0.6,1.6c-0.2,0.2-0.5,0.3-0.8,0.4
					C72.6,14.4,72.3,14.4,71.9,14.4z"/>
				<path class="st2" d="M81.3,14.3V5.9H78V4h9v1.9h-3.3v8.4H81.3z"/>
				<path class="st2" d="M91.9,14.4c-0.9,0-1.7-0.2-2.4-0.5s-1.2-0.8-1.6-1.5c-0.4-0.6-0.6-1.3-0.6-2.1s0.2-1.5,0.5-2.1
					s0.9-1.1,1.5-1.5s1.4-0.5,2.2-0.5c0.8,0,1.5,0.2,2.1,0.5s1.1,0.8,1.5,1.4c0.4,0.6,0.5,1.3,0.5,2.2c0,0.1,0,0.2,0,0.3
					s0,0.2,0,0.3h-6.3V9.6h5.2L93.6,10c0-0.4-0.1-0.8-0.2-1.1c-0.2-0.3-0.4-0.5-0.7-0.7c-0.3-0.2-0.6-0.3-1-0.3S91,8,90.7,8.2
					S90.2,8.6,90,8.9s-0.3,0.7-0.3,1.1v0.4c0,0.4,0.1,0.8,0.3,1.2c0.2,0.3,0.5,0.6,0.8,0.7c0.3,0.2,0.8,0.3,1.2,0.3
					c0.4,0,0.8-0.1,1.1-0.2s0.6-0.3,0.9-0.6l1.2,1.3c-0.4,0.4-0.8,0.7-1.4,1S92.7,14.4,91.9,14.4z"/>
				<path class="st2" d="M101,14.4c-0.9,0-1.6-0.2-2.3-0.5c-0.7-0.3-1.2-0.8-1.6-1.5c-0.4-0.6-0.6-1.3-0.6-2.1s0.2-1.5,0.6-2.1
					s0.9-1.1,1.6-1.4s1.4-0.5,2.3-0.5c0.8,0,1.6,0.2,2.2,0.5c0.6,0.3,1.1,0.8,1.3,1.5l-1.8,1c-0.2-0.4-0.5-0.6-0.8-0.8
					s-0.6-0.3-1-0.3s-0.7,0.1-1,0.3s-0.6,0.4-0.8,0.7c-0.2,0.3-0.3,0.7-0.3,1.2s0.1,0.9,0.3,1.2c0.2,0.3,0.4,0.6,0.8,0.8
					c0.3,0.2,0.7,0.3,1,0.3c0.4,0,0.7-0.1,1-0.3s0.6-0.4,0.8-0.8l1.8,1c-0.3,0.6-0.7,1.1-1.3,1.5C102.6,14.2,101.9,14.4,101,14.4z"
					/>
				<path class="st2" d="M110.6,6.2c0.6,0,1.2,0.1,1.7,0.4s0.9,0.6,1.2,1.2c0.3,0.5,0.4,1.2,0.4,2v4.5h-2.3v-4.2
					c0-0.6-0.1-1.1-0.4-1.4c-0.3-0.3-0.7-0.5-1.2-0.5c-0.4,0-0.7,0.1-1,0.2s-0.5,0.4-0.7,0.7s-0.2,0.7-0.2,1.2v3.9h-2.3V3.3h2.3v5.2
					l-0.5-0.7c0.3-0.5,0.7-0.9,1.2-1.2C109.3,6.4,109.9,6.2,110.6,6.2z"/>
				<path class="st2" d="M120.7,6.2c0.6,0,1.2,0.1,1.7,0.4s0.9,0.6,1.2,1.2c0.3,0.5,0.4,1.2,0.4,2v4.5h-2.3v-4.2
					c0-0.6-0.1-1.1-0.4-1.4c-0.3-0.3-0.7-0.5-1.2-0.5c-0.4,0-0.7,0.1-1,0.2s-0.5,0.4-0.7,0.7s-0.2,0.7-0.2,1.2v3.9h-2.3V6.3h2.2v2.2
					l-0.4-0.7c0.3-0.5,0.7-0.9,1.2-1.2C119.4,6.4,120,6.2,120.7,6.2z"/>
				<path class="st2" d="M129.7,14.4c-0.8,0-1.6-0.2-2.2-0.5c-0.7-0.4-1.2-0.8-1.5-1.5c-0.4-0.6-0.6-1.3-0.6-2.1s0.2-1.5,0.6-2.1
					c0.4-0.6,0.9-1.1,1.5-1.4c0.7-0.3,1.4-0.5,2.2-0.5c0.8,0,1.6,0.2,2.3,0.5c0.7,0.3,1.2,0.8,1.5,1.4c0.4,0.6,0.6,1.3,0.6,2.1
					s-0.2,1.5-0.6,2.1c-0.4,0.6-0.9,1.1-1.5,1.4S130.5,14.4,129.7,14.4z M129.7,12.5c0.4,0,0.7-0.1,1-0.3c0.3-0.2,0.5-0.4,0.7-0.8
					c0.2-0.4,0.3-0.7,0.3-1.2s-0.1-0.9-0.3-1.2c-0.2-0.3-0.4-0.6-0.7-0.7c-0.3-0.2-0.6-0.3-1-0.3s-0.7,0.1-1,0.3
					c-0.3,0.2-0.5,0.4-0.7,0.7c-0.2,0.3-0.3,0.7-0.3,1.2s0.1,0.8,0.3,1.2c0.2,0.4,0.4,0.6,0.7,0.8C128.9,12.4,129.3,12.5,129.7,12.5
					z"/>
				<path class="st2" d="M135.4,14.3v-11h2.3v10.9h-2.3V14.3z"/>
				<path class="st2" d="M143.5,14.4c-0.8,0-1.6-0.2-2.2-0.5c-0.7-0.4-1.2-0.8-1.5-1.5c-0.4-0.6-0.6-1.3-0.6-2.1s0.2-1.5,0.6-2.1
					c0.4-0.6,0.9-1.1,1.5-1.4c0.7-0.3,1.4-0.5,2.2-0.5c0.8,0,1.6,0.2,2.3,0.5c0.7,0.3,1.2,0.8,1.5,1.4c0.4,0.6,0.6,1.3,0.6,2.1
					s-0.2,1.5-0.6,2.1s-0.9,1.1-1.5,1.4S144.3,14.4,143.5,14.4z M143.5,12.5c0.4,0,0.7-0.1,1-0.3c0.3-0.2,0.5-0.4,0.7-0.8
					c0.2-0.4,0.3-0.7,0.3-1.2s-0.1-0.9-0.3-1.2c-0.2-0.3-0.4-0.6-0.7-0.7c-0.3-0.2-0.6-0.3-1-0.3s-0.7,0.1-1,0.3
					c-0.3,0.2-0.5,0.4-0.7,0.7c-0.2,0.3-0.3,0.7-0.3,1.2s0.1,0.8,0.3,1.2c0.2,0.4,0.4,0.6,0.7,0.8C142.8,12.4,143.1,12.5,143.5,12.5
					z"/>
				<path class="st2" d="M152.6,13.9c-0.7,0-1.4-0.2-2-0.5s-1.1-0.8-1.4-1.3c-0.4-0.6-0.5-1.2-0.5-2s0.2-1.5,0.5-2
					c0.4-0.6,0.8-1,1.4-1.3c0.6-0.3,1.3-0.5,2-0.5c0.7,0,1.3,0.1,1.8,0.4c0.5,0.3,0.9,0.7,1.2,1.3c0.3,0.6,0.4,1.3,0.4,2.2
					s-0.1,1.6-0.4,2.2c-0.3,0.6-0.7,1-1.2,1.3S153.3,13.9,152.6,13.9z M153,17.4c-0.7,0-1.5-0.1-2.2-0.3c-0.7-0.2-1.3-0.5-1.7-0.8
					l0.9-1.7c0.3,0.3,0.8,0.5,1.3,0.7s1,0.2,1.5,0.2c0.8,0,1.4-0.2,1.8-0.5c0.4-0.4,0.6-0.9,0.6-1.6v-1.2l0.1-2v-2V6.3h2.2v6.6
					c0,1.5-0.4,2.5-1.2,3.3C155.5,17,154.4,17.4,153,17.4z M153.1,12c0.4,0,0.8-0.1,1.1-0.3c0.3-0.2,0.6-0.4,0.7-0.7
					c0.2-0.3,0.3-0.6,0.3-1s-0.1-0.7-0.3-1c-0.2-0.3-0.4-0.5-0.7-0.7c-0.3-0.2-0.7-0.2-1.1-0.2c-0.4,0-0.8,0.1-1.1,0.2
					c-0.3,0.2-0.6,0.4-0.8,0.7c-0.2,0.3-0.3,0.6-0.3,1s0.1,0.7,0.3,1c0.2,0.3,0.4,0.5,0.8,0.7C152.4,11.9,152.7,12,153.1,12z"/>
				<path class="st2" d="M160.5,17.4c-0.4,0-0.8-0.1-1.2-0.2s-0.7-0.3-1-0.5l0.8-1.7c0.2,0.2,0.4,0.3,0.6,0.4s0.5,0.1,0.7,0.1
					c0.3,0,0.6-0.1,0.8-0.2c0.2-0.2,0.4-0.4,0.5-0.8l0.4-1l0.2-0.3l2.9-6.8h2.2l-3.6,8.4c-0.3,0.6-0.5,1.2-0.9,1.5
					c-0.3,0.4-0.7,0.6-1.1,0.8C161.4,17.2,161,17.4,160.5,17.4z M161.8,14.6l-3.5-8.3h2.4l2.8,6.7L161.8,14.6z"/>
			</g>
		</g>
		<g>
			<g>
				<path class="st1" d="M47.2,23.1v-4h0.4v3.7h2.2v0.4h-2.6V23.1z"/>
				<path class="st1" d="M62,23.1v-4h0.4v4H62z"/>
				<path class="st1" d="M75.1,23.1v-4h0.3l1.8,3.1H77l1.8-3.1h0.5v4h-0.4v-3.3H79l-1.7,2.8h-0.2l-1.7-2.8h0.1v3.4h-0.4V23.1z"/>
				<path class="st1" d="M92,23.1v-4h0.4v4H92z"/>
				<path class="st1" d="M106,23.1v-3.6h-1.4v-0.4h3.2v0.4h-1.4v3.6H106z"/>
				<path class="st1" d="M120.3,22.9h2.4v0.4h-2.8v-4h2.7v0.4h-2.3V22.9z M120.3,21h2.1v0.4h-2.1V21z"/>
				<path class="st1" d="M135.2,23.1v-4h1.6c0.4,0,0.8,0.1,1.1,0.3c0.3,0.2,0.6,0.4,0.8,0.7c0.2,0.3,0.3,0.6,0.3,1s-0.1,0.7-0.3,1
					c-0.2,0.3-0.4,0.5-0.8,0.7c-0.3,0.2-0.7,0.3-1.1,0.3H135.2z M135.6,22.9h1.2c0.4,0,0.7-0.1,0.9-0.2c0.3-0.1,0.5-0.3,0.6-0.6
					c0.1-0.2,0.2-0.5,0.2-0.8s-0.1-0.6-0.2-0.9c-0.1-0.2-0.3-0.4-0.6-0.6c-0.3-0.1-0.6-0.2-0.9-0.2h-1.2V22.9z"/>
			</g>
		</g>
	</g>
</g>
</svg>
