<?xml version="1.0" encoding="UTF-8"?>
<svg id="Layer_1" data-name="Layer 1" xmlns="http://www.w3.org/2000/svg" viewBox="0 0 192.8 144">
  <defs>
    <style>
      .cls-1 {
        fill: gray;
      }
    </style>
  </defs>
  <path class="cls-1" d="m90.63,36.8c0,10.76-.02,21.51.03,32.27,0,1.43-.46,2.21-1.75,2.9-3.62,1.95-7.14,4.09-10.7,6.16-3.72,2.16-7.45,4.31-11.18,6.46-5.44,3.15-10.87,6.31-16.31,9.45-4.75,2.74-9.51,5.46-14.27,8.2-1.44.83-2.88,1.64-4.3,2.49-.62.37-.96.2-1.29-.41-2.24-4.18-4.01-8.56-5.32-13.11-1.78-6.18-2.7-12.49-2.72-18.94-.02-5.08.45-10.11,1.52-15.06.92-4.25,2.26-8.37,3.96-12.39,3.16-7.46,7.51-14.14,12.98-20.09,4.64-5.04,9.94-9.28,15.84-12.75,4.33-2.54,8.89-4.64,13.68-6.13,2.8-.87,5.67-1.57,8.55-2.07,3.14-.55,6.33-.83,9.51-1.15,1.74-.17,1.75-.09,1.75,1.71,0,10.82,0,21.64,0,32.46h.01Zm-31.32,39.17s0,0,0,0c1.09,0,2.18-.03,3.27.01.81.03,1.09-.35,1.08-1.09-.01-1.06.07-2.12-.03-3.17-.1-1.08.35-1.67,1.26-2.2,3.73-2.19,5.87-5.46,6.16-9.79.33-5.07-1.68-9.04-6.04-11.68-2.4-1.45-4.92-2.7-7.39-4.03-1.59-.85-2.44-2.46-2.09-4.03.43-1.95,1.81-3.2,3.62-3.25,1.7-.05,3.35,1.09,3.8,2.8.21.78.6,1.04,1.34,1.03,2.08-.02,4.16-.03,6.24,0,.88.01,1.23-.33,1.13-1.21-.49-4.6-2.87-7.9-6.96-9.97-.72-.36-1.11-.77-1.07-1.6.05-1.12,0-2.24.02-3.36.01-.73-.29-1.03-1.04-1.02-2.18.03-4.35.05-6.53,0-.91-.02-1.2.37-1.18,1.19.02,1.09.1,2.19-.03,3.26-.06.51-.45,1.19-.88,1.41-3.76,1.9-6.04,4.85-6.97,8.97-1.07,4.77,1.43,10.65,5.72,13.02,2.6,1.44,5.24,2.79,7.83,4.23,1.73.96,2.42,3.27,1.55,4.9-.8,1.48-2.03,2.39-3.72,2.23-1.67-.16-2.91-1.07-3.4-2.8-.16-.57-.42-1.09-1.15-1.08-2.21.02-4.42.01-6.63.05-.95.01-1.2.31-1.05,1.28.36,2.3,1.09,4.46,2.56,6.32,1.31,1.66,2.9,2.96,4.86,3.78.92.38,1.46.91,1.33,2.02-.1.88-.01,1.79-.02,2.69,0,.78.29,1.18,1.15,1.14,1.09-.06,2.18-.01,3.26-.01Z"/>
  <path class="cls-1" d="m93.8,36.92c0-10.95,0-21.9,0-32.85,0-1.48.05-1.53,1.51-1.47,4.27.16,8.45.81,12.62,1.74,5.52,1.24,10.78,3.17,15.8,5.73,6.52,3.33,12.4,7.59,17.59,12.8,4.45,4.47,8.28,9.41,11.29,14.93,1.72,3.16,3.19,6.47,4.51,9.81,3.98,10.1,5.16,20.64,4.08,31.39-.39,3.89-1.31,7.75-2.23,11.56-1.15,4.77-3.09,9.25-5.36,13.6-.43.83-.87.88-1.58.46-2.95-1.72-5.91-3.42-8.87-5.12-4.75-2.74-9.51-5.48-14.26-8.23-3.26-1.88-6.52-3.77-9.78-5.65-4.42-2.55-8.84-5.11-13.26-7.66-3.65-2.1-7.3-4.2-10.96-6.28-.77-.44-1.11-.98-1.11-1.91.03-10.95.02-21.9.02-32.85Zm32.9,9.93h0c-5.51.01-11.01,0-16.52.01-.61,0-1.22,0-1.82.02-.61.02-.88.29-.88.96.01,7.46,0,14.92,0,22.38,0,1.06.25,1.31,1.3,1.33,1.82.02,3.65.02,5.47.01,1.17,0,1.39-.23,1.39-1.42,0-3.3-.01-6.6,0-9.89,0-1.41.11-2.78.79-4.09,1.74-3.36,6.37-4.7,9.6-2.73,2.44,1.48,3.58,3.67,3.6,6.46.03,3.46,0,6.92.01,10.37,0,1.15.14,1.29,1.26,1.3,1.06,0,2.11,0,3.17,0,1.11,0,1.26-.16,1.27-1.29.01-2.02-.02-4.03.01-6.05.03-1.69,1.5-2.93,3.06-2.63,1.2.23,2.01,1.38,2.02,2.9.01,1.89,0,3.78,0,5.67,0,1.25.2,1.42,1.47,1.41.86,0,1.73,0,2.59,0,1.45,0,1.59-.13,1.59-1.58,0-7.2,0-14.41,0-21.61,0-1.42-.09-1.51-1.52-1.51-5.96,0-11.91,0-17.87,0Zm-.18-2.08h0c5.96,0,11.91,0,17.87,0,.99,0,1.99.06,2.97-.05.4-.04.97-.38,1.09-.71.12-.33-.21-.84-.39-1.25-.07-.16-.27-.27-.41-.4-6.6-6.04-13.21-12.09-19.81-18.13-1.17-1.07-1.44-1.06-2.65.04-2.87,2.6-5.72,5.21-8.6,7.8-.19.17-.6.38-.69.31-.21-.17-.36-.49-.38-.77-.05-.7,0-1.41-.03-2.11-.04-1.19-.4-1.56-1.56-1.6-.74-.03-1.47-.04-2.21,0-1.3.05-1.65.4-1.67,1.69-.03,1.86-.19,3.73.02,5.57.27,2.33-.64,3.89-2.44,5.2-.95.69-1.79,1.54-2.6,2.4-.28.3-.56.93-.43,1.22.16.36.73.62,1.17.76.41.13.89.06,1.34.06,6.47,0,12.94,0,19.41,0Z"/>
  <path class="cls-1" d="m92.18,141.43c-5.04-.08-10-.71-14.88-1.78-4.68-1.02-9.21-2.55-13.6-4.53-7.12-3.21-13.51-7.47-19.18-12.82-4.25-4.01-7.9-8.52-11.06-13.43-.41-.63-.37-1.08.34-1.48,2.24-1.28,4.46-2.61,6.7-3.9,3.04-1.75,6.09-3.49,9.13-5.24,3.71-2.13,7.41-4.26,11.11-6.4,4.03-2.33,8.06-4.68,12.09-7.01,3.65-2.11,7.3-4.21,10.95-6.31,2.57-1.48,5.13-2.97,7.73-4.41.34-.19.95-.21,1.28-.03,4.89,2.77,9.74,5.58,14.61,8.38,5.15,2.96,10.3,5.9,15.44,8.86,4.37,2.52,8.71,5.08,13.08,7.6,4.7,2.71,9.4,5.42,14.11,8.11,1.38.79,1.42.9.57,2.24-4.3,6.76-9.64,12.55-15.96,17.46-3.51,2.73-7.22,5.18-11.26,7.05-3.12,1.45-6.27,2.86-9.52,3.99-3.8,1.33-7.72,2.29-11.74,2.71-3.31.34-6.62.62-9.93.92Zm-30.51-20.58c.05-.32.09-.56.13-.8.18-1.06.23-2.16.55-3.18,1.32-4.29,6.95-6.35,10.79-4,2.58,1.58,3.97,3.82,3.9,6.88-.02.73.07,1.2,1.01,1.19,10.37-.02,20.74-.02,31.12,0,.86,0,1.04-.35,1.1-1.15.08-1.1.19-2.25.6-3.25,1.87-4.67,7.73-6.14,11.66-3,2.01,1.61,2.94,3.72,2.95,6.27,0,.5-.1,1.1.68,1.11.7,0,1.41.04,2.11-.05,1.24-.16,2.12-1.16,2.17-2.42.03-.77.02-1.54.02-2.3-.05-5.74-4.4-10.13-10.14-10.21-1.57-.02-3.14-.04-4.71.01-.99.03-1.76-.28-2.5-.95-3.52-3.21-7.06-6.39-10.64-9.53-.46-.4-1.19-.7-1.79-.7-9.44-.04-18.89-.04-28.33-.03-2.55,0-4.46,1.14-5.78,3.31-.96,1.58-1.95,3.15-2.85,4.77-1.09,1.98-2.22,3.96-3.1,6.03-1.29,3.04-1.29,6.3-1.19,9.54.04,1.33.73,2.12,2.25,2.46Zm62.64-1.35c-.02-3.62-2.84-6.45-6.46-6.45-3.72,0-6.58,2.86-6.56,6.56.02,3.57,2.9,6.34,6.52,6.42,3.56.08,6.69-3.21,6.5-6.53Zm-54.85,6.51c3.48.15,6.57-2.97,6.47-6.63-.1-3.62-2.93-6.37-6.67-6.33-3.6.04-6.34,2.9-6.31,6.57.04,3.62,2.9,6.43,6.5,6.38Z"/>
  <path class="cls-1" d="m91.06,98.02c1.44,0,2.88.02,4.32,0,1.65-.03,3.03.5,4.25,1.64,1.77,1.66,3.62,3.24,5.41,4.89.27.25.38.68.56,1.02-.37.11-.75.33-1.12.31-6.26-.36-12.53-.75-18.79-1.12-.69-.04-.96-.33-.95-1.02.02-1.54.02-3.07,0-4.61-.01-.8.28-1.15,1.13-1.13,1.73.05,3.46.01,5.19.01h0Z"/>
  <path class="cls-1" d="m77.7,98.01c1.15,0,2.3.02,3.45,0,.73-.02,1.08.29,1.08,1.01,0,1.5.01,3.01,0,4.51-.01.73-.37,1.1-1.16,1.05-3.6-.22-7.21-.41-10.82-.63-.76-.05-1.02-.49-.64-1.18.65-1.17,1.3-2.35,2.08-3.43.61-.86,1.55-1.31,2.65-1.31,1.12,0,2.24,0,3.36,0h0Z"/>
  <path class="cls-1" d="m117.8,116.25c1.72,0,3.24,1.52,3.26,3.25.03,1.73-1.5,3.29-3.2,3.29-1.84,0-3.27-1.43-3.28-3.28,0-1.75,1.49-3.26,3.22-3.26Z"/>
  <path class="cls-1" d="m69.47,122.78c-1.78.02-3.31-1.51-3.3-3.29,0-1.69,1.57-3.24,3.28-3.25,1.69-.01,3.22,1.54,3.23,3.27,0,1.77-1.46,3.26-3.2,3.27Z"/>
</svg>