<?xml version="1.0" encoding="utf-8"?>
<!-- Generator: Adobe Illustrator 27.5.0, SVG Export Plug-In . SVG Version: 6.00 Build 0)  -->
<svg version="1.1" id="Layer_1" xmlns="http://www.w3.org/2000/svg" xmlns:xlink="http://www.w3.org/1999/xlink" x="0px" y="0px"
	 viewBox="0 0 841.89 595.28" style="enable-background:new 0 0 841.89 595.28;" xml:space="preserve">
<style type="text/css">
	.st0{opacity:0.61;}
	.st1{fill:#9EC8FF;}
	.st2{fill:#5D87FF;}
	.st3{fill:#FFFFFF;}
	.st4{opacity:0.5;fill:#9EC8FF;}
	.st5{opacity:0.5;}
	.st6{clip-path:url(#SVGID_00000178927671298085594890000004737282155133259453_);fill:#9EC8FF;}
	.st7{clip-path:url(#SVGID_00000178927671298085594890000004737282155133259453_);fill:#E7F3FE;}
</style>
<g>
	<g id="XMLID_60_" class="st0">
		<path id="XMLID_577_" class="st1" d="M255.04,311.23c0.37-0.59,0.75-1.18,1.35-2.12c-2.57,0.41-3.3-1.01-4.31-2.72
			c-1.45-2.43-3.01-4.99-5.8-6.39c-0.65,0.29-1.29,0.69-1.99,0.87c-0.42,0.11-1.07,0.04-1.37-0.22c-0.92-0.8-1.73-1.73-2.57-2.62
			c-0.66-0.69-0.65-1.46-0.31-2.31c0.51-1.23,0.81-2.58,1.48-3.7c1.14-1.9,1.48-4.03,2.12-6.07c0.44-1.38,1.1-1.91,2.47-1.86
			c1.99,0.07,4.83,1.91,5.84,3.86c1.5-0.51,2.36,0.47,3.23,1.54c0.51,0.62,1.14,1.17,1.79,1.65c0.3,0.22,0.98,0.42,1.14,0.27
			c1.11-1.07,2.99-0.79,3.85-2.49c0.36-0.72,1.8-0.96,2.8-1.24c0.27-0.08,0.84,0.43,1.07,0.79c0.34,0.53,0.49,1.17,0.89,2.18
			c1-1.85,1.08-4.22,3.79-3.81c0.24,0.36,0.54,0.8,0.9,1.35c0.21-0.34,0.41-0.52,0.44-0.74c0.21-1.37,0.19-2.55-1.29-3.43
			c-0.62-0.37-0.87-1.51-1.08-2.36c-0.68-2.84-0.02-5.24,2.45-7.01c1.12-0.81,1.88-2.16,3.49-2.23c0.2-0.01,0.49-0.22,0.59-0.42
			c1.35-2.68,4.22-4.63,3.65-8.16c0.97-0.18,1.67-0.32,2.44-0.46c0.46-1.89,0.49-3.34-0.99-5.03c-1.16-1.33-2.88-2.84-2.56-5.14
			c0.05-0.35-0.23-0.81-0.48-1.12c-0.87-1.07-1.05-2.18-0.45-3.59c-0.81,0.44-1.61,0.88-2.6,1.42c-0.39-1.63-0.94-3.03,0.61-4.19
			c0.25-0.19,0.56-0.5,0.58-0.77c0.18-2.62,0.98-5.37-0.25-7.83c-1.01-2.03-0.96-3.98-0.7-6.05c0.13-0.99,0.44-1.99,0.35-2.95
			c-0.22-2.37,0.47-4.41,1.94-6.46c0.77,0.18,1.62,0.38,2.64,0.63c0-1.03,0-1.95,0-3.01c-1.03,0.12-1.82,0.21-2.69,0.32
			c-0.78-2.05-0.45-3.9,0.64-5.52c0.68-1.01,0.31-1.7,0.11-2.7c-0.56-2.91-3.03-4.23-4.68-6.21c-0.49-0.58-1.39-0.82-2.17-1.26
			c0.08-0.6,0.17-1.24,0.24-1.79c-0.99-0.63-2.33-1-2.64-1.78c-0.69-1.74-1.1-3.68-1.17-5.55c-0.04-1.22,0.21-2.52,0.75-3.8
			c0.48-1.15,0.48-3.07-0.2-4.03c-1.65-2.36-1.38-4.67-0.83-7.14c0.07-0.32,0.12-0.65,0.2-1.11c0.64-0.24,1.31-0.49,1.98-0.74
			c0.07-0.32,0.24-0.65,0.15-0.78c-2.3-3.26-0.11-5.8,1.41-8.38c1.04-1.77,2.3-3.41,3.5-5.16c-1.04-1.55-1.59-3.14-1.53-4.88
			c2.83-0.51,3.06-0.38,3.92,1.84c0.56,1.45,1.18,2.87,1.83,4.43c1.78,0.55,2.05,0.48,2.84-0.92c1.22-2.14,3.71-2.66,5.54-0.96
			c0.8,0.74,1.46,1.22,2.58,1.11c0.43-0.04,0.92,0.31,1.34,0.55c0.36,0.2,0.67,0.73,0.98,0.72c2.07-0.08,3.16,1.08,3.71,2.9
			c2.48-1.21,3.87-0.88,5.6,1.24c0.93,1.14,2.43,1.66,3.52,1.18c2.26-0.98,3.42,0.04,4.54,1.65c0.04,0.06,0.14,0.07,0.4,0.2
			c1.92-1.41,3.85-1.29,5.65,0.49c0.25,0.25,0.78,0.37,1.14,0.32c1.79-0.26,3.02,0.56,3.85,1.9c1.17-0.12,2.16-0.18,3.14-0.34
			c1.94-0.33,3.9-0.64,5.81-1.13c1.4-0.36,2.62-0.3,3.76,0.61c0.58,0.46,1.14,0.95,1.93,1.61c0.17-0.83,0.31-1.49,0.45-2.16
			c0.92-0.5,1.69-0.27,2.54,0.28c2.62,1.71,3.2,1.59,4.95-0.57c2.88,0.48,5.65,0.87,8.39,1.43c0.65,0.13,1.22,0.77,1.76,1.26
			c1.08,0.98,4.93,1.61,6.1,0.8c0.57-0.39,0.9-1.13,1.46-1.86c1.15,1.03,2.38,1.98,4.14,1.34c1.26,2.75,2.2,5.25,0.38,8.09
			c-0.91,1.43-1.27,3.21-1.79,4.59c0.95,1.36,2.09,2.46,2.54,3.79c0.41,1.22,0.09,2.69,0.09,4.18c1.27-0.49,2.39-0.03,3.62,0.9
			c0.9,0.68,2.31,0.71,3.51,0.94c1.1,0.22,2.21,0.33,3.71,0.54c0.7-0.71,1.84-1.5,3.6-0.75c-0.18,0.72-0.39,1.48-0.56,2.25
			c-0.4,1.81-0.24,2.19,1.32,3.29c1.38,0.97,1.41,2.35,0.06,3.39c-1.26,0.97-1.7,2.61-1.24,4.4c0.37,1.45,1.56,1.61,2.72,1.74
			c0.99,0.11,1.99,0.09,2.99,0.13c1.24,0.06,1.89,0.87,1.8,1.96c-0.1,1.27,0,2.72-1.38,3.54c-0.97,0.58-1.11,1.37-0.59,2.34
			c0.12,0.22,0.31,0.46,0.3,0.68c-0.16,1.76,0.72,2.97,2.06,3.83c-0.89,3.48-1.94,4.53-4.3,4.18c0,0.79,0,1.56,0,2.64
			c1.86-1.16,3.16,0.07,4.46,0.87c0.43,0.26,0.45,1.22,0.65,1.85c-1.22,0.43-2.19,0.63-2.99,1.11c-0.27,0.16-0.13,1.02-0.2,1.79
			c1.99-0.48,3.52-0.25,4.4,1.92c-0.53,0.55-1.16,1.17-1.75,1.83c-0.66,0.74-1.48,1.42-1.89,2.28c-0.66,1.42-1.65,2.22-3.45,2.38
			c0.41,0.73,0.7,1.25,1.02,1.82c-0.51,1.77-1.81,2.71-3.58,2.94c-1.51,0.2-2.25,0.93-2.14,2.59c-1.73-0.61-3-0.24-4.07,1.09
			c-1,1.25-2.23,2.13-4.38,0.44c0.61,1.8,1.21,2.91,1.32,4.07c0.12,1.17,0.31,2.19,0.88,3.27c1.01,1.92,0.85,3.83-0.97,5.36
			c-1.65,1.37-2.44,3.11-2.21,5.28c0.13,1.26-0.34,1.96-1.71,2.24c-1.49,0.3-1.51,0.62-1.22,2.11c0.17,0.86,0.47,1.91,0.14,2.59
			c-0.57,1.16-1.48,2.22-2.46,3.08c-0.39,0.34-1.47,0.25-2.02-0.04c-1.18-0.63-2.25-0.71-3.56-0.43c-1.51,0.32-3.1,0.22-4.66,0.27
			c-3.07,0.09-4.39,1.81-3.59,4.75c0.11,0.4,0.26,0.81,0.49,1.14c1.26,1.82,0.52,3.42-0.55,4.95c-1.11,1.6-1.09,2.75,0.17,4.19
			c1.7,1.94,1.67,2.09-0.61,3.35c-1.44,0.8-1.56,1.99-0.32,3.08c0.26,0.23,0.55,0.53,0.63,0.85c0.2,0.78,0.29,1.58,0.42,2.38
			c-2.02,1.38-4.12,2.62-5.44,4.85c-0.74,1.25-1.73,2.5-3.84,2.22c-0.28-1.92,1.54-3.09,1.83-4.81c0.29-1.77,1.12-3.44,1.83-5.49
			c-0.99,0.49-1.86,0.93-2.83,1.42c-0.57-0.64-1.1-1.22-1.69-1.87c-0.35,0.21-0.7,0.31-0.88,0.54c-1.03,1.33-2.03,2.68-3.16,4.2
			c-1.32-0.33-2.75-0.74-3.79-2.12c-0.65-0.86-2.52-1.05-3.46-0.59c-1.04,0.51-0.92,1.49-0.94,2.39c-0.06,2.39,0.26,2.69,2.59,2.95
			c1.89,0.21,3.78,0.53,5.66,0.84c0.91,0.15,1.43,0.65,1.57,1.65c0.53,3.67-0.05,6.62-2.23,10.2c-2.74-0.74-5.6-1.44-8.4-2.32
			c-0.55-0.18-0.88-1.07-1.3-1.61c-3.98,1.09-3.98,1.09-8.48-0.34c0-0.66,0-1.37,0-2.15c-1.24-0.53-2.47-0.41-3.67-0.08
			c-1.53,0.43-1.89,1.57-0.97,2.86c0.19,0.27,0.42,0.54,0.7,0.7c1.88,1.11,3.28,2.94,5.52,3.51c1.44,0.36,1.15,1.82,1.3,2.66
			c1.41,0.91,2.92-0.83,3.95,0.72c0.69,1.04,1.39,2.07,2.08,3.11c0.09,0.14,0.19,0.27,0.07,0.1c1.68,0.53,3.06,0.96,4.43,1.41
			c0.63,0.21,1.27,0.68,1.87,0.64c3.39-0.23,4.8,2.84,7.55,4.08c-1.26,2.18-1.03,4.23-0.56,6.39c0.31,1.39,0.03,2.92,0.02,4.89
			c-1.11-0.51-1.73-0.82-2.36-1.09c-1.14-0.49-1.65-0.26-2.09,0.9c-0.97,2.61-0.97,2.61-3.81,2.67c-0.5,0.01-1.01-0.03-1.49,0.07
			c-0.65,0.12-1.27,0.48-1.91,0.49c-0.52,0.01-1.05-0.32-1.51-0.48c-1.18,1.39,0.43,2.21,0.44,3.27c-0.76,0.88-1.6,0.68-2.19,0.03
			c-1.38-1.52-3.67-1.96-4.64-4.03c-0.16-0.35-1.75-0.53-1.89-0.31c-0.95,1.55-2.29,2.96-2.61,5c0.93,0.28,1.6,0.47,2.41,0.72
			c-0.87,1.69-2.22,2.22-3.75,2.25c-1.53,0.03-2.21-0.79-2.66-2.4c-0.37-1.34-0.8-2.71-1.48-3.91c-1.55-2.72-2.98-2.7-4.76,0.11
			c-0.53-0.34-1.03-0.73-1.59-1c-0.48-0.23-1.03-0.33-1.76-0.55c-0.04,0.8-0.02,1.36-0.1,1.9c-0.16,1.05-0.22,2.15-0.59,3.13
			c-0.73,1.94-1.12,2.05-3.17,1.52c-0.23-0.06-0.48-0.01-0.87-0.01c-0.06,0.38-0.27,0.81-0.16,1.14c0.5,1.58,0.07,3.01-0.79,4.27
			c-1.6,2.35-2.96,4.95-6,5.91c-2.37,0.75-5.89-0.46-6.84-2.7c-0.39-0.9-0.16-2.07-0.22-3.04c-0.71-1.35-1.42-2.7-2.2-4.17
			c-0.91,0.19-1.84,0.39-3.06,0.65c0.27-0.97,0.47-1.7,0.68-2.45c-3.59-0.54-3.56-0.56-5.32-3.87c-0.61-1.16-1.43-2.2-2.38-3.64
			c0.82-0.99,1.82-2.19,2.9-3.49c0.72,0.46,1.39,0.88,2.08,1.31c0.95-2.44,0.79-3.19-0.83-4.63c-0.42-0.37-0.75-0.86-1.1-1.31
			c-0.88-1.16-1.39-1.15-2.24,0.05c-0.51,0.71-1.03,1.4-1.54,2.11c-0.19-0.04-0.38-0.07-0.56-0.11c-0.17-1.01-0.25-2.05-0.56-3.02
			c-0.2-0.65-0.59-1.39-1.12-1.75c-1.76-1.19-1.81-1.18-0.93-3.08c0.2-0.44,0.36-0.89,0.61-1.54c-0.66-0.19-1.22-0.26-1.69-0.5
			c-0.56-0.29-1.47-0.72-1.47-1.09c0-1.36-0.84-2.06-1.69-2.83c-0.14-0.13-0.11-0.46-0.21-0.95c1.22,0.22,2.32,0.42,3.52,0.64
			c0.57-1.25,0.55-2.15-0.71-2.97c-1.64-1.06-2.05-3.29-1.09-4.99c0.29-0.5,0.67-0.97,0.88-1.5c0.67-1.73-0.28-3.2-2.07-2.94
			c-2.53,0.37-3.96-1.27-5.47-2.71C256.68,313.72,256.01,312.53,255.04,311.23z M251.59,301.61c1.04-0.96,0.97-1.54,0.2-2.02
			c-0.17-0.11-0.56,0.12-0.84,0.2C251.14,300.31,251.32,300.83,251.59,301.61z M273.3,173.3c0.13-0.42,0.29-0.73,0.3-1.04
			c0.01-0.17-0.23-0.35-0.35-0.53c-0.27,0.2-0.55,0.4-0.82,0.6C272.57,172.49,272.72,172.65,273.3,173.3z M273.79,278.08
			c-0.24-0.19-0.42-0.43-0.57-0.42c-0.16,0.01-0.3,0.26-0.45,0.41c0.15,0.15,0.28,0.4,0.44,0.42
			C273.37,278.5,273.54,278.27,273.79,278.08z"/>
		<path id="XMLID_572_" class="st1" d="M475.27,489.56c-1.09,0.55-2.36,0.83-2.67,2.35c-0.18,0.92-1.05,0.92-1.82,0.95
			c-1.79,0.06-2.83,0.67-3.61,2.62c-1.02,2.55-3.01,4.67-5.43,6.84c0,0.9,0.01,2.22,0,3.54c-0.01,1.21,0.07,2.3,1.46,2.86
			c0.4,0.16,0.84,0.92,0.8,1.36c-0.19,1.94-0.04,3.96-1.44,5.65c-1.25,1.51-0.8,2.88,1.13,3.29c1.8,0.39,3.3,0.96,4.08,2.8
			c0.21,0.49,0.78,0.85,1.22,1.22c1.77,1.51,1.8,2.01,0.26,4c0.26,0.78,0.63,1.51,0.72,2.26c0.21,1.81,0.28,3.64,0.43,5.46
			c0.08,0.97-0.18,1.64-1.38,1.74c-0.97-0.81-1.37-1.96-1.64-3.19c-0.52-2.36-1.12-4.7-2.6-6.68c-0.46-0.62-1.04-1.36-1.72-1.56
			c-1.56-0.48-2.29-1.54-2.79-3.09c0.42-0.6,0.88-1.25,1.58-2.26c-1.03,0.19-1.7,0.3-2.69,0.48c-0.45-0.69-0.97-1.5-1.51-2.29
			c-0.3-0.43-0.55-1.02-0.97-1.22c-1.22-0.57-1.79-1.52-1.79-2.76c0.01-1.82,0.03-3.67,0.33-5.46c0.16-0.98,0.9-1.86,1.47-2.98
			c-0.13-0.15-0.35-0.49-0.65-0.75c-1.67-1.49-1.77-1.54-0.69-3.47c0.77-1.38-0.39-2.36-0.25-3.68c-0.68-0.09-1.23-0.17-1.79-0.24
			c-1.2-0.16-2.22-0.53-2.89-1.67c-0.37-0.63-0.99-1.1-1.52-1.63c-0.59-0.58-0.87-1.17-0.38-1.99c0.25-0.41,0.38-0.91,0.48-1.38
			c0.35-1.69,1.05-2.41,2.7-2.65c0.65-0.09,1.3-0.13,1.95-0.2c0.54-1.63,0.41-2.23-0.71-2.9c-0.35-0.21-0.78-0.27-1.16-0.45
			c-1.69-0.77-1.77-2.04-0.19-3.13c0.27-0.18,0.6-0.27,1.03-0.46c0.41,0.36,0.8,0.77,1.25,1.09c1.05,0.74,1.99,0.45,2.24-0.8
			c0.17-0.86,0.03-1.79,0.03-2.86c-0.98,0.18-1.83,0.33-3.01,0.54c0-0.78-0.1-1.41,0.02-1.98c0.2-0.96,0.48-1.92,0.86-2.82
			c0.23-0.56,0.65-1.1,1.11-1.48c1.29-1.07,1.65-2.08,0.37-3.05c-2.97-2.25-3.48-5.17-3.3-8.58c0.09-1.7-1.81-2.46-3.22-1.46
			c-0.2,0.14-0.34,0.36-0.51,0.54c-1.24,1.38-2.61,1.79-4.87,1.39c0.24-1.89,1.38-3.13,2.88-4.08c0.77-0.49,1.85-0.77,1.56-1.94
			c-0.28-1.12-1.09-1.83-2.37-1.82c-0.32,0-0.63-0.09-0.9-0.12c-0.91-2.15-1.81-4.19-2.64-6.25c-0.33-0.83-0.08-1.55,0.54-2.27
			c1.52-1.79,1.46-2.26-0.5-3.36c-1.16-0.66-1.3-1.43-0.72-2.45c0.64-1.13,1.34-2.21,2.22-3.64c-0.96,0-1.66,0.08-2.32-0.03
			c-0.43-0.07-1.04-0.31-1.18-0.64c-0.15-0.36-0.01-1.08,0.28-1.33c0.61-0.52,1.39-0.86,2.12-1.24c0.94-0.48,1.4-1.1,0.82-2.11
			c-0.26-0.02-0.44-0.09-0.58-0.05c-0.9,0.29-1.52,1.73-2.59,1.02c-1.28-0.85-2.45-1.95-3.42-3.15c-0.3-0.36,0.05-1.48,0.39-2.08
			c0.65-1.14,1.51-2.16,2.36-3.34c-0.85-0.69-1.79-1.45-2.69-2.17c0.91-3.88,3.75-2.29,6.36-2c-1.01-2.1,0.4-3.86-0.33-5.76
			c-0.22-0.57,0.78-1.67,1.32-2.45c0.27-0.38,0.86-0.54,1.14-0.92c0.67-0.9,0.07-2.41-0.93-2.23c-1.6,0.3-3.27,0.72-4.66,1.54
			c-1.51,0.89-1.45,1.75-0.42,3.86c-0.6,1.27-1.59,1.73-3.02,1.5c-0.8-0.13-1.64,0.04-2.46,0.03c-0.54-0.01-1.08-0.1-1.72-0.17
			c-0.02-1.27,0.52-2.37-0.23-3.5c-0.27-0.4,0.43-1.46,0.77-2.44c-2.21,0.43-2.96-0.99-3.78-2.63c-1.48-2.97-3.26-5.79-4.78-8.75
			c-0.5-0.97-0.35-2.33-0.95-3.2c-0.55-0.8-1.76-1.11-2.59-1.76c-0.44-0.34-0.83-0.88-1.01-1.4c-0.79-2.29-2.74-3.71-4.11-5.56
			c-0.41-0.55-1.12-0.96-1.78-1.22c-1.96-0.77-2.19-1.07-1.87-3.1c0.08-0.49,0.17-0.98,0.22-1.48c0.02-0.15-0.08-0.31-0.19-0.7
			c-0.83-0.19-1.77-0.4-2.77-0.63c0.68-3.19,1.31-6.39,2.06-9.55c0.25-1.04,0.83-1.99,1.19-3c0.43-1.21,0.17-2.11-1.28-2.45
			c-0.75,1-1.46,1.96-2.26,3.02c0.34,1.91,0.38,3.86-1.21,5.47c-0.16,0.16-0.24,0.43-0.28,0.67c-0.51,2.53-1.05,2.96-3.48,2.71
			c-0.48-0.05-0.96-0.09-1.85-0.17c0.39,0.82,0.7,1.35,0.9,1.91c0.2,0.58,0.3,1.19,0.44,1.79c-0.54,0.08-1.07,0.21-1.61,0.23
			c-0.97,0.04-1.95,0.01-3.08,0.01c0,0.98,0,1.76,0,2.67c-1.46,0.21-2.89,0.7-4.14-0.66c-0.29-0.31-1.08-0.63-1.23-0.49
			c-0.36,0.33-0.57,0.91-0.68,1.42c-0.11,0.53-0.02,1.1-0.02,1.93c-0.83-0.23-1.42-0.44-2.03-0.55c-0.89-0.17-1.79-0.37-2.69-0.39
			c-2.4-0.04-2.59,0.28-1.81,2.48c-0.52,0.5-1.01,0.97-1.5,1.43c0.51,0.47,0.94,1.11,1.53,1.36c1.15,0.47,2.4,0.65,3.58,1.05
			c0.94,0.32,1.98,0.73,1.9,2c-0.07,1.23-1.14,1.24-2.02,1.45c-0.23,0.05-0.43,0.22-0.76,0.39c0.15,1.41,0.78,2.95-0.44,4.2
			c-0.56,0.57-1.17,1.22-1.89,1.5c-2.98,1.16-6.71-0.38-8.54-3.31c-0.57-0.91-0.15-1.7,0.41-2.52c1.23-1.8,0.98-2.44-1.12-2.81
			c-1.19-0.21-2.01-0.48-2.14-1.91c-0.19-2.14-0.53-2.29-2.4-1.46c-0.36,0.16-0.67,0.43-0.98,0.63c-0.09,1.84,3.12,3.1,0.61,5.1
			c0.25,0.23,0.42,0.39,0.59,0.55c0.39,0.37,0.78,0.73,1.17,1.1c-0.46,0.42-0.87,0.89-1.38,1.22c-0.33,0.21-0.79,0.23-1.2,0.31
			c-2.89,0.58-3.86-0.23-3.76-3.16c0.06-1.83-0.12-2.12-1.9-1.82c-1.32,0.22-1.83-0.47-2.3-1.39c-1.39-2.71-1.38-2.72-3.95-3.19
			c-0.18-1.28,0.07-2.94-0.64-3.73c-1.02-1.13-1.1-2.27-1.15-3.59c-0.79-0.25-1.53-0.39-2.19-0.7c-1.05-0.5-1.67-1.38-1.68-2.57
			c-0.01-1.91-0.01-2.02-0.72-3.28c0.27-0.6,0.57-1.27,0.96-2.13c-2.16-1.03-4.33-2.15-2.89-5.19c-1.28-0.89-1.77-2.15-2.43-3.36
			c-0.64-1.17-2.04-1.91-1.29-3.68c-2.81,0.14-3.67-1.86-4.02-3.72c-0.39-2.05-0.49-4.41,2.25-5.52c-0.65-1.39-2.31-2.51-1.4-4.03
			c0.66-1.12,1.9-1.89,2.97-2.91c-0.2-0.4-0.4-0.84-0.62-1.27c-0.78-1.54-0.72-1.81,0.66-2.82c1.16-0.85,1.17-1.42,0-2.22
			c-0.6-0.41-1.25-0.73-2.06-1.2c0.68-0.63,1.35-1.04,1.68-1.64c0.33-0.61,0.62-1.54,0.37-2.07c-0.22-0.46-1.23-0.81-1.86-0.76
			c-1.04,0.09-2.05,0.54-3.07,0.84c-0.13-0.1-0.38-0.19-0.38-0.29c0.01-1.68-0.22-3.28-0.81-4.88c-0.21-0.56,0.11-1.51,0.51-2.05
			c1.21-1.63,1.28-1.58,1.28-3.74c0.92-0.07,1.87-0.12,2.82-0.22c0.82-0.09,1.67-0.1,2.44-0.37c1.3-0.44,2.04-1.37,1.89-2.86
			c-0.19-1.95,0.76-3.51,1.76-5.25c0.73,0.17,1.42,0.33,2.16,0.5c1.1-1.21,2.67-2.16,2.35-4.27c-0.17-1.13-0.41-1.87-1.79-1.83
			c-1.25,0.04-1.26-0.06-2.32-1.62c0.48-1.15,0.99-2.35,1.53-3.66c-0.74-0.45-1.34-0.73-1.84-1.13c-1.05-0.85-0.84-2.03,0.41-2.45
			c0.31-0.1,0.66-0.08,0.98-0.18c1.47-0.45,1.64-0.98,0.87-2.37c-1.28-2.32-0.74-4.64-0.12-7.45c0.94,0.98,1.52,1.6,2.26,2.37
			c-0.05-0.88-0.09-1.52-0.15-2.58c0.57,0.49,0.89,0.64,1.02,0.89c0.57,1.04,1.37,1.15,2.3,0.58c0.96-0.59,1.91-0.86,3.07-0.56
			c1.16,0.3,2.05-0.41,2.85-1.19c0.76-0.75,1.51-1.55,2.38-2.15c0.76-0.51,1.69-0.77,2.93-1.31c-0.17-0.74-0.41-1.8-0.68-3.02
			c0.61,0,1.3,0,2.35,0c-0.28-0.96-0.37-1.76-0.73-2.43c-1.64-3.07-1.06-4.64,2.09-5.77c0.54-1.55,1.07-3.02,1.56-4.5
			c0.51-1.55,0.47-2.89-1.15-3.9c-0.57-0.36-0.84-1.21-1.46-2.16c4.19-0.29,6-2.9,8.07-6.07c0.61-0.17,1.77-0.49,3.13-0.87
			c0.41,1.77,1.69,1.81,3.34,1.9c1.9,0.1,3.76,0.99,5.92,1.62c-0.67,0.96-1.16,1.68-1.49,2.16c0.65,2.53,1.23,4.87,1.85,7.19
			c0.47,1.75,0.86,3.53,1.51,5.22c0.69,1.79,0.5,2.22-1.41,2.17c-0.24-0.01-0.49-0.04-0.85-0.07c-0.38,0.57-0.78,1.17-1.22,1.82
			c-0.87-0.17-1.65-0.32-2.57-0.49c0.02,0.47,0.03,0.78,0.06,1.1c0.07,0.9,0.45,1.93,0.14,2.67c-0.24,0.59-1.32,0.82-2.02,1.23
			c-1.62,0.94-1.81,3.39-0.35,4.68c2.22,1.98,2.43,3.49,0.76,6.36c-0.54-0.28-1.09-0.56-1.7-0.87c-0.05,0.24-0.22,0.58-0.13,0.67
			c0.49,0.52,1.04,0.99,1.56,1.46c-1.68,2.52-1.81,2.57-4.36,1.66c-0.23-0.08-0.49-0.27-0.7-0.23c-0.53,0.11-1.17,0.19-1.51,0.53
			c-0.21,0.21-0.11,0.97,0.1,1.34c1.13,1.92,0.94,3.81,0.02,5.7c-1.25,2.58-1.26,2.58-0.97,5.97c0.6,0,1.56-0.23,1.74,0.04
			c0.61,0.95,1.1,2.03,1.33,3.13c0.18,0.84-0.09,1.77-0.17,2.85c1.91,0.05,2.36,1.26,2.81,2.68c0.55,1.72,1.39,3.33,2.85,4.58
			c1.08,0.92,0.96,1.77,0.19,2.99c-0.41,0.65-0.71,1.48-0.7,2.23c0.01,1.23,0.31,2.45,0.52,3.87c1.52-0.6,3.05-1.94,4.58,0.31
			c-0.47,0.51-1,1.19-1.64,1.77c-1.54,1.4-1.47,2.91,0.25,4.01c1.76,1.12,1.73,1.12,0.5,2.67c-0.32,0.41-0.6,1.01-0.57,1.5
			c0.11,1.74,0.38,3.47,0.57,5.2c0.14,1.24,0.41,2.36,2.62,2.35c-1.74,1.25-2,2.38-1.6,3.8c0.32,1.12,0.77,1.78,2.03,1.7
			c1.56-0.1,2.18,0.85,2.51,2.23c0.46,1.95,2.34,2.82,4.11,1.92c1.25-0.64,1-1.82,0.8-2.86c-0.36-1.87-0.73-3.75-1.27-5.57
			c-0.48-1.59-0.43-2.94,1.03-3.96c-0.36-1.14-2.09-0.99-1.91-2.47c0.13-1.1,0.21-1.45,2.45-3.6c1,1.3,1.98,2.57,2.86,3.71
			c-0.13,0.42-0.13,0.61-0.22,0.74c-1.75,2.49-1.66,2.74,1.29,3.34c1.2,0.24,1.73,1.26,1.22,2.44c-0.32,0.74-0.74,1.43-1.2,2.29
			c0.96,0.06,1.65,0.11,2.75,0.18c-0.36,0.81-0.58,1.36-0.85,1.9c-0.87,1.75-0.64,2.37,1.21,3.21c0.37,0.17,0.73,0.38,1.08,0.6
			c0.13,0.08,0.18,0.27,0.36,0.54c-0.4,0.61-0.84,1.27-1.36,2.06c1.55,0.98,2.98,2.05,4.56,2.83c1.07,0.53,2.05,0.89,2.52,2.16
			c0.36,0.97,1.25,1.03,2.02,0.32c0.42-0.39,0.68-0.97,1.12-1.32c0.54-0.43,1.17-0.93,1.81-1.03c2.02-0.32,4.12-0.86,6.01,1.12
			c0.96-1.59,2.03-2.82,2.48-4.24c0.48-1.51,0.8-3.01,1.72-4.15c1.11-0.48,2.05,1.36,2.8,0.1c0.37-0.61-0.01-1.71-0.16-2.58
			c-0.18-1.06-0.45-2.1-0.7-3.14c-0.42-1.78-1.01-3.53-1.24-5.33c-0.19-1.42-0.41-2.7-1.17-3.98c-1.13-1.89-0.85-3.26,0.54-4.89
			c-0.46-2.46-0.21-3.48,2.37-4.14c-0.7-1.67,0.14-2.93,1.15-4.2c1.12-1.4,2.38-2.51,4.42-2.83c0.34,0.72,0.66,1.37,0.96,2.03
			c0.38,0.83,1.04,1.06,1.85,0.79c0.8-0.26,0.79-0.88,0.71-1.63c-0.06-0.58,0.16-1.21,0.3-1.8c0.11-0.47,0.46-0.93,0.43-1.37
			c-0.12-1.43,0.43-2.41,1.65-3.08c1.26-0.7,1.58-1.48,0.63-2.8c-0.36-0.49-0.26-1.69,0.11-2.26c1.58-2.42,1.64-2.38-0.7-3.92
			c0.33-0.45,0.66-0.89,0.99-1.33c-3.31-1.9-2.54-5-2.76-7.88c2.88,0.01,4.03,1.33,3.53,3.75c-0.35,1.69,0.14,2.56,1.81,2.88
			c0.88,0.17,1.91,0.29,2.69-0.02c0.62-0.25,0.94-1.2,1.43-1.81c1.65-2.08,3.21-4.24,5.01-6.19c1.48-1.61,3.21-1.1,3.99,0.98
			c0.06,0.16,0.07,0.33,0.15,0.48c0.97,1.72,1.61,3.45-0.15,5.18c2.1,0.35,4.07-1.35,5.41-4.46c0.91-0.13,1.4,0.17,1.34,1.2
			c-0.09,1.49-0.03,3-0.25,4.47c-0.15,0.99-0.67,1.92-1.16,3.26c0.6,0.4,1.46,0.96,2.56,1.69c-0.21,0.58-0.47,1.24-0.7,1.91
			c-0.23,0.66-0.45,1.33-0.76,2.29c0.75,0,1.13,0.06,1.49-0.01c0.96-0.2,1.41,0.25,1.58,1.12c0.48,2.35,1.11,4.68,1.4,7.06
			c0.18,1.53,0.78,2.7,1.82,3.7c0.96,0.93,1.41,1.95,1.34,3.33c-0.05,0.97,0.24,1.96,0.41,2.94c0.37,2.22-0.05,2.83-2.29,3.43
			c-0.44,0.12-0.99,0.4-1.17,0.76c-0.62,1.23-1.15,2.52-1.61,3.82c-0.57,1.58,0.04,2.56,1.78,3.06c0.38,0.11,0.75,0.28,1.39,0.53
			c-0.32,1-0.58,1.92-0.91,2.82c-0.65,1.77-0.53,2.02,1.05,3.24c0.54,0.42,1.11,1.13,1.17,1.76c0.3,3.13,0.45,6.28,0.59,9.42
			c0.02,0.46-0.11,1.11-0.42,1.36c-1.86,1.51-0.78,3.2-0.3,4.79c0.15,0.48,0.95,1.08,1.45,1.08c2.17-0.01,2.98,2.19,4.82,2.77
			c0.82,0.25,0.5,1.36-0.13,2.11c-1.6,1.92-1.46,2.14,0.16,4.13c1.02,1.25,2.44,2.18,2.98,3.9c0.19,0.61,1.41,0.91,2.26,1.4
			c0.25,2.1,0.59,4.34,0.76,6.59c0.17,2.32,0.2,4.64,0.24,6.97c0.01,0.47-0.12,0.99-0.33,1.41c-1.25,2.49-1.02,3.65,1.12,5.19
			c1.19,0.86,1.57,3.23,0.71,4.41c-1.66,2.26-1.28,4.35,1.04,5.74c0,0.62-0.26,1.54,0.04,1.8c2.04,1.78,1.39,4.33,1.99,6.51
			c0.12,0.44-0.46,1.15-0.83,1.64c-1.14,1.51-0.97,2.67,0.62,3.71c1.91,1.25,1.88,2.48-0.08,3.54c-0.73,0.39-1.41,0.89-2.17,1.2
			c-0.84,0.34-1.13,0.93-1.14,1.74c-0.02,0.9,0.27,1.62,1.19,1.99c0.65,0.26,1.26,0.6,2.25,1.08c-2.27,1.66-2.09,3.6-1.41,5.53
			c0.25,0.71,0.77,1.55,1.4,1.86c0.99,0.47,1.31,1.17,1.5,2.1c0.18,0.9,0.52,1.77,0.59,2.67c0.04,0.59-0.12,1.32-0.46,1.79
			c-1.65,2.28-1.8,5.72-0.43,8.01c0.47,0.78,0.5,1.81,0.75,2.8c-0.58,0.25-0.88,0.35-1.15,0.5c-0.53,0.28-1.05,0.59-1.57,0.89
			c0.37,0.47,0.76,0.93,1.1,1.43c0.35,0.51,0.87,1.04,0.91,1.6c0.25,3.23,0.39,6.47,0.56,9.71c0.06,1.11-0.04,2.04-1.07,2.86
			c-0.99,0.79-0.98,2.18,0,2.78c1.27,0.77,1.48,1.75,1.62,3.08c0.16,1.48-0.76,2.24-1.74,3.27c3.25,1.85,2.67,5.36,3.85,8.08
			c0.11,0.25,0.04,0.72-0.14,0.93c-1.25,1.47-0.27,2.41,0.71,3.39c0.78,0.77,1.76,1.71,1.04,2.78c-0.75,1.12-1.87,2.09-3.03,2.8
			c-0.72,0.44-1.37-0.37-1.55-1.17c-0.08-0.38-0.01-0.85,0.15-1.21c2.14-4.74-2.45-7.77-6.65-7.02c-1.95,0.35-3.81,0.33-5.65-0.31
			c-2.11-0.74-2.64-1.82-1.83-3.94c0.37-0.98,0.09-1.73-0.64-2.17c-1.26-0.77-2.62-1.41-4-1.96c-0.34-0.14-0.91,0.29-1.37,0.45
			c-0.09-0.64-0.09-1.31-0.32-1.89c-0.1-0.26-0.68-0.49-1.01-0.46c-0.32,0.03-0.78,0.39-0.84,0.68c-0.07,0.31,0.15,0.88,0.42,1.03
			C473.99,489.29,474.65,489.38,475.27,489.56z M436.01,340.42c-1.99,1.55-1.98,1.85,0,2.95
			C436.01,342.43,436.01,341.62,436.01,340.42z M355.67,369.51c-0.92,0.28-1.26,0.81-0.72,1.64c0.12,0.18,0.7,0.28,0.85,0.16
			C356.53,370.71,356.45,370.08,355.67,369.51z M369.68,286.07c-0.24-0.19-0.41-0.43-0.57-0.42c-0.16,0.01-0.3,0.26-0.45,0.4
			c0.15,0.15,0.28,0.4,0.44,0.42C369.26,286.49,369.43,286.26,369.68,286.07z"/>
		<path id="XMLID_571_" class="st1" d="M283.28,380.84c-1.78,1.23-1.92,1.62-0.81,3.06c0.8,1.04,1.5,2.31,3.71,1.91
			c-1.46,1.53-1.41,2.53-0.42,3.9c1.03,1.43,1.5,3.22,2.91,4.52c0.98,0.9,0.61,1.78-0.64,2.53c-1.79,1.09-1.79,1.27-0.5,2.95
			c0.74,0.97,1.31,2.06,1.96,3.1c-0.78,2.48-1.35,5.05-3.41,7.13c-0.46-0.52-0.88-1-1.29-1.48c-0.63-0.75-1.38-1.25-2.39-0.92
			c-1.02,0.33-1.7,1.03-1.86,2.14c-0.15,1.06,0.39,1.61,1.28,2.15c2.04,1.24,1.89,2.37-0.45,3.81c0.04,0.65,0.08,1.37,0.13,2.24
			c-1,0.08-1.88,0.15-2.72,0.21c-0.88,1.09-0.04,1.9,0.32,2.78c0.84,2.07,1.7,4.13,2.46,6.24c0.31,0.85,0.3,1.7-0.52,2.5
			c-1.32,1.29-1.25,1.37,0.21,2.56c-0.3,1.03-0.62,1.91-0.79,2.82c-0.17,0.9-0.13,1.9-1.21,2.26c-0.96,0.31-1.75,0.07-2.4-0.81
			c-0.24-0.33-0.95-0.66-1.22-0.53c-0.37,0.19-0.61,0.78-0.74,1.25c-0.04,0.15,0.6,0.42,0.64,0.68c0.38,2.56,1.81,4.64,3,6.83
			c0.3,0.56,0.4,1.27,0.8,1.72c1.39,1.57,1.42,1.54,0.4,3.86c0.79,0.45,1.65,0.87,2.41,1.43c0.42,0.31,0.82,0.82,0.91,1.3
			c0.05,0.24-0.6,0.64-0.96,0.92c-1.17,0.9-2.44,1.69-3.52,2.69c-0.73,0.68-1.33,1.25-2.36,0.73c-1.32-0.66-2.51-0.29-3.8,0.26
			c-2.66,1.14-4.37,0.3-5.39-2.54c0.46-0.13,0.91-0.27,1.46-0.43c0.34-1.96-1.62-2.93-1.86-4.5c-0.26-0.08-0.35-0.14-0.42-0.11
			c-2.81,0.99-4.33,5.48-2.64,7.81c0.93,1.27,1.84,2.56,2.89,3.74c0.46,0.52,1.23,0.76,1.85,1.13c-0.55,1.85-0.89,2.07-2.48,1.74
			c-1.04-0.22-2.1-0.52-3.16-0.51c-1.64,0.02-1.93,0.44-2.09,2.08c-0.06,0.58-0.27,1.14-0.45,1.83c-2.07-1.42-3.18-4.31-2.62-6.22
			c0.81-2.75,1.64-5.49,2.42-8.25c0.15-0.53,0.18-1.12,0.14-1.68c-0.09-1.32-0.23-2.63-0.37-3.95c-0.19-1.83,0.02-3.48,2.16-4.37
			c-0.41-0.53-0.78-0.86-0.94-1.27c-0.19-0.48-0.42-1.16-0.22-1.54c0.9-1.72,1.94-3.37,2.97-5.1c-0.92-2.41-1.92-5.03-3.08-8.08
			c0.45-1.66,0.45-1.66,2.58-1.7c1.52-0.03,2.05-0.86,1.42-2.26c-0.39-0.87-1.21-1.79-1.09-2.56c0.09-0.6,1.4-0.96,2.09-1.52
			c1.05-0.86,1.46-4.84,0.43-5.57c-0.63-0.45-1.7-0.46-2.54-0.36c-0.96,0.11-1.88,0.56-2.85,0.87c-0.05,0.1-0.21,0.29-0.17,0.38
			c0.91,1.86,0.78,3.5-0.43,5.32c-0.65,0.97-0.24,2.59-0.72,3.75c-0.49,1.18-1.63,2.08-2.21,3.25c-0.49,0.99-0.31,2.04,0.59,2.96
			c1.14,1.16,1.8,2.64,1.52,4.31c-0.08,0.48-0.53,1.04-0.96,1.26c-0.24,0.12-0.97-0.27-1.18-0.62c-1.07-1.75-2.16-3.4-1.85-5.74
			c0.21-1.59,0.3-3.32-0.7-5.03c-0.82-1.41-0.67-3.37-1-5.08c-0.12-0.62-0.38-1.21-0.67-2.08c-1.46,1.34-1.69,2.89-1.93,4.38
			c-0.18,1.11-0.43,1.96-1.43,2.72c-1.52,1.15-1.32,2.91,0.23,4.11c1.41,1.09,1.6,2.98,0.17,3.89c-1.55,0.98-1.45,2.22-1.25,3.71
			c1.63,0.13,3.15,0.25,4.94,0.39c0.26,0.76-0.14,1.68-1.04,2.42c-0.68,0.56-0.78,1.16-0.49,1.98c0.64,1.79,1.14,3.62,1.79,5.41
			c0.47,1.3,0.53,1.28-0.38,2.76c0.23,0.51,0.61,1.07,0.74,1.69c0.19,0.87-0.01,1.55-1.06,1.92c-2.05,0.73-2.94,2.17-2.88,4.28
			c0.03,1.23,0.29,2.49-1.03,3.37c-0.28,0.19-0.3,0.88-0.31,1.34c-0.01,0.57,0.14,1.15,0.18,1.72c0.17,2.27-0.46,3.47-3.52,2.17
			c0.17-1.38,0.39-2.83,0.52-4.29c0.06-0.64,0.19-1.58-0.16-1.89c-1.44-1.28-0.9-2.59-0.53-4.07c0.38-1.51,0.65-2.93,2.38-3.46
			c0.17-0.05,0.26-0.36,0.44-0.62c-0.27-0.13-0.49-0.35-0.68-0.32c-2.09,0.34-3.03-0.89-3.65-2.61c-0.17-0.46-0.33-0.98-0.66-1.31
			c-0.23-0.24-0.88-0.42-1.07-0.28c-1.03,0.8-2.11,1.6-2.87,2.62c-0.3,0.4,0.12,1.4,0.31,2.09c0.45,1.64,0.91,3.25-1.03,4.53
			c-0.56-0.4-1.13-0.8-1.87-1.33c-0.21,1.41-0.44,2.73-2.01,3.14c-0.24,0.06-0.44,0.48-0.55,0.78c-0.71,1.9,0.3,5.63,1.87,7.06
			c-0.11,0.1-0.2,0.26-0.33,0.28c-3.92,0.9-4.33,0.64-5.36-3.28c-0.24-0.92-0.57-1.81-0.93-2.95c-1.11,0.5-1.91,0.86-2.82,1.28
			c-1.44-0.83-3.57-0.9-3.82-3.28c-0.18-1.67-1.9-3.41,0.43-4.94c-0.36-0.48-0.67-0.85-0.93-1.25c-0.85-1.36-0.6-2.51,0.72-3.38
			c2.09-1.38,2.1-2.29,0.06-3.74c-1.24-0.88-1.61-2.03-1.34-4.33c-2.91-1.66-1.68-4.35-0.99-6.49c0.65-2,0.3-3.95,0.67-5.88
			c0.04-0.22-0.03-0.58-0.19-0.7c-1.56-1.21-1.34-2.85-0.94-4.79c-0.85,0.09-1.45,0.15-2.06,0.22c-1.13,0.13-1.87-0.43-1.7-1.45
			c0.19-1.12,0.57-2.21,0.88-3.32c-0.62-0.34-1.32-0.72-2.12-1.15c0.76-1.22,2.27-1.8,1.47-3.21c-0.52-0.91-1.25-1.71-1.94-2.64
			c0.55-0.65,1.01-1.2,1.57-1.86c-1.69-1.6-1.14-3.23,0.18-4.79c-0.4-0.2-0.6-0.35-0.82-0.4c-2.05-0.51-2.71-1.33-2.27-3.28
			c0.22-0.99,0.18-1.58-0.53-2.42c-0.63-0.75-0.97-1.98-0.95-2.99c0.02-0.86,0.76-1.7,1.32-2.85c-0.5-0.35-1.13-0.79-1.89-1.32
			c0.24-0.44,0.53-0.97,0.94-1.72c-0.88-0.14-1.56-0.25-2.22-0.35c-0.09-0.19-0.26-0.36-0.22-0.47c0.54-1.91-0.45-3.48-1.2-5.06
			c-0.42-0.88-0.45-1.54,0.14-2.28c0.31-0.39,0.65-0.78,0.84-1.23c0.56-1.32,1.39-2,2.91-1.62c0.32,0.08,0.73-0.22,1.13-0.35
			c-0.04-0.36,0.02-0.69-0.12-0.82c-0.57-0.56-2.37-3.29-2.81-3.95c-0.58-0.86-1.35-1.6-2.3-2.68c-0.05-0.54-0.15-1.51-0.25-2.58
			c-0.5-0.04-0.91-0.01-1.3-0.1c-1.44-0.34-2.23-1.56-1.59-3c0.86-1.93,0.32-3.52-0.96-4.77c-1.14-1.12-1.21-2.3-1.02-3.63
			c0.32-2.29,0.46-4.7,3.02-6.01c0.51,0.34,1.04,0.7,1.56,1.04c1.76-0.55,2.5-1.82,2.38-3.44c-0.09-1.19,0.23-2.07,0.95-2.95
			c0.35-0.43,0.59-1.02,0.7-1.57c0.16-0.83-0.23-1.66-1.09-1.65c-2.73,0.01-4.3-1.91-6.14-3.41c-0.19-0.15-0.41-0.26-0.27-0.17
			c-1.56,0.32-2.79,0.57-4.01,0.83c-0.49,0.1-1.08,0.08-1.44,0.35c-1.7,1.3-3.33,0.6-4.94-0.09c-0.46-0.2-0.84-0.69-1.16-1.12
			c-0.57-0.75-1.07-1.55-1.73-2.52c0.9-0.93,1.65-2.03,1.43-3.85c-0.14-1.16,1.1-2.49,1.79-3.91c0.58-0.05,1.29-0.12,2.25-0.2
			c-0.4-1.15-0.74-2.12-1.09-3.1c0.99-0.96,2.74-0.44,3.24-2.13c0.47-1.58-0.35-2.5-1.38-3.48c0.43-0.54,0.95-0.94,1.08-1.45
			c0.16-0.64,0.24-1.51-0.07-2.02c-0.46-0.73-1.33-0.54-2-0.06c-0.54,0.38-0.98,0.91-1.53,1.27c-1.96,1.28-3.24,0.73-3.66-1.54
			c-0.09-0.48-0.18-0.96-0.26-1.36c-0.27-0.12-0.43-0.26-0.57-0.24c-2.87,0.41-2.88,0.42-4.31-2.22c-0.39-0.72-0.69-1.48-1.06-2.3
			c-1.24-0.19-2.59-0.4-4.07-0.62c0.14-1.28,0.26-2.32,0.39-3.48c-0.67-0.06-1.21-0.12-1.81-0.17c-0.6-1.43-0.12-2.33,1.13-3.12
			c1.58-1,2.44-4.14,1.67-5.77c-0.16-0.34-0.52-0.62-0.84-0.86c-1.49-1.13-1.5-2.13,0.02-3.19c0.79-0.54,2.21-0.64,2.09-1.84
			c-0.09-0.87-0.95-1.65-1.55-2.61c0.92-1.44,2.56-0.43,3.75-0.91c1.55-0.63,2.41,0.8,3.71,1.14c0.89-1.34-0.73-3.07,1.03-4.32
			c1.26-0.89,2.35-1.7,3.84-1.56c0.16-0.27,0.33-0.42,0.32-0.55c-0.22-2.62-0.49-5.23-0.68-7.85c-0.14-1.96-0.93-3.51-2.63-4.55
			c-0.21-0.13-0.42-0.27-0.61-0.44c-1.41-1.26-1.34-1.93,0.31-2.98c0.21-0.13,0.38-0.31,0.55-0.45c0.42-1.35-0.86-3.04,1.05-4.27
			c0.68,2.03,3.15,2.02,4.01,3.96c0.43,0.96,1.55,1.15,2.62,0.73c3.39-1.32,6.92-2.3,9.88-4.59c0.38-0.3,1.35-0.25,1.78,0.03
			c0.44,0.29,0.74,1.07,0.76,1.65c0.02,0.71-0.32,1.43-0.54,2.32c2.38,0.65,3.21,3.39,5.74,3.86c0.55,0.1,1.03,0.81,1.44,1.32
			c1.15,1.45,1.05,1.94-0.53,3.16c-0.13,0.1-0.24,0.22-0.33,0.35c-0.04,0.06-0.03,0.16-0.09,0.5c2.79,0.83,3.24,3.82,4.98,5.76
			c0.45,0.51,0.32,1.53,0.47,2.41c0.07-0.02,0.34-0.03,0.43-0.17c1.06-1.52,2.38-1.73,4.13-1.24c1.23,0.35,2.61,0.21,3.92,0.18
			c1.49-0.03,2.98-0.21,4.48-0.25c1.41-0.04,2.9-0.19,3.33,1.77c0.07,0.31,0.74,0.54,1.17,0.71c1.26,0.51,1.92,1.33,1.68,2.61
			c-0.35,1.84-0.46,3.89-2.72,4.66c0.05,0.44,0.08,0.76,0.14,1.08c0.36,2.11,0.11,2.59-1.85,3.43c-1.52,0.65-1.74,1.09-1.64,2.87
			c0.07,1.25,0.56,2.08,1.89,2.19c1.08,0.09,1.91,0.58,2.46,1.48c1.1,1.79,2.74,2.04,4.56,1.55c1.17-0.31,2.08-0.24,2.84,0.83
			c0.74,1.04,1.15,1.98,0.23,3.14c-0.38,0.48-0.57,1.12-0.99,1.97c1.03-0.07,1.73-0.12,2.52-0.17c0.18,0.56,0.38,1.01,0.47,1.47
			c0.18,0.92,0.68,1.4,1.59,1.7c2.34,0.76,2.46,0.98,1.58,3.39c-0.48,1.3-0.52,2.41,0.75,3.54c0.59-0.27,1.23-0.6,1.9-0.86
			c1.63-0.63,2.53-0.3,3.09,1.33c0.3,0.87,0.74,1.34,1.58,1.73c1.43,0.66,2.4,3.84,1.38,4.95c-1.59,1.73-1.03,3.46-0.65,5.36
			c0.42,2.12,1.24,4.15,1.09,6.42c-0.05,0.74,0.97,1.6,1.6,2.32c0.24,0.28,0.74,0.35,1.13,0.49c2.54,0.9,2.83,1.4,1.67,3.74
			c-0.57,1.15-0.46,1.86,0.52,2.44c1.14-0.21,2.2-0.4,3.67-0.67c-0.27,1.06-0.41,1.64-0.6,2.38c-0.88-0.27-1.56-0.49-2.29-0.71
			c-0.2,0.24-0.45,0.41-0.5,0.62c-0.38,1.88,0.2,3.33,1.97,4.07c1.57,0.66,2.12,1.6,2.04,3.25c-0.07,1.38,0.19,2.78,0.31,4.14
			c0.18,0.11,0.36,0.3,0.45,0.27c1.41-0.48,2.72-0.66,3.76,0.77c0.74,1.01,2.27,1.56,1.76,3.29c-0.08,0.29,0.21,0.81,0.48,1.06
			c1.53,1.39,3.09,2.75,4.67,4.08c1.11,0.94,2.63,1.41,3.16,3.03c0.14,0.43,0.9,0.65,1.39,0.96c0.44,0.28,0.89,0.56,1.21,1.22
			c-0.87-0.04-1.74-0.15-2.6-0.1c-1.27,0.07-1.8,0.65-1.3,1.76c0.68,1.49,0.27,2.5-0.75,3.58c-0.43,0.45-0.56,1.18-0.83,1.78
			L283.28,380.84z"/>
		<path id="XMLID_570_" class="st1" d="M219.39,266.48c0.22-0.55,0.49-1.22,0.78-1.93c-2.28,0.18-2.35,0.2-3.95-1.43
			c-0.87-0.89-1.58-1.94-2.47-2.8c-0.76-0.74-1.59-1.52-2.55-1.9c-0.75-0.3-2.14-0.36-2.55,0.1c-1.54,1.72-3.93,1.71-5.6,3.09
			c-0.8,0.66-1.81,0.53-2.48-0.27c-0.87-1.03-1.98-1.3-3.19-1.69c-1.07-0.35-1.89-1.47-2.94-2.34c1.15-2.23,1.13-4.58,0.7-6.97
			c-0.03-0.16-0.11-0.35-0.06-0.49c0.31-0.84,1-1.73,0.14-2.51c-0.64-0.58-1.59-0.81-2.3-1.33c-0.69-0.51-1.25-1.2-2.14-2.08
			c0.29,0.05,0.13,0.02-0.03,0c-2.35-0.34-4.13,0.24-4.98,2.75c-0.3,0.88-1.22,1.01-2.13,0.73c-1.43-0.44-2.9-0.77-4.29-1.31
			c-0.51-0.2-0.91-0.82-1.21-1.34c-0.27-0.46-0.33-1.03-0.87-1.54c0,0.81,0,1.61,0,2.38c-3.03,0.99-4.52,0.17-5.1-2.83
			c-1.04-0.13-2.33,0.08-2.83-1.36c-0.11-0.31-0.61-0.53-0.98-0.68c-1.82-0.76-3.71-1.39-5.48-2.25c-2.32-1.12-4.57-2.39-6.84-3.62
			c-0.58-0.31-1.36-0.62-1.59-1.13c-0.69-1.55-1.86-1.9-3.4-1.99c-1.61-0.09-2.97-0.92-4.27-2.06c1.05-2.62-0.2-4.05-2.52-4.97
			c-0.38-0.15-0.85-0.7-0.86-1.07c-0.03-2.41-1.88-3.79-3-5.58c-0.35-0.56-0.81-1.06-1.08-1.66c-0.75-1.62-0.26-2.27,1.53-2.16
			c0.31,0.02,0.63,0,1.07,0c0-1.73,1.1-3.5-0.91-4.73c1.28-1.53,2.47-2.93,3.65-4.35c1.13-1.35,2.25-2.7,3.47-4.18
			c-0.25-0.79-0.65-1.79-0.86-2.84c-0.43-2.05,0.24-2.9,2.28-3.14c0.49-0.06,0.98-0.2,1.47-0.26c1.84-0.24,2.48,0.19,3.07,2.01
			c0.23,0.69,0.52,1.37,0.83,2.15c1.59-0.34,2.89-0.35,3.55,1.42c0.18,0.48,1.21,0.88,1.83,0.86c0.45-0.02,0.89-0.78,1.28-1.26
			c0.14-0.17,0.12-0.48,0.2-0.71c1.15-3.53,1.38-3.71,5.2-3.77c0-0.53,0.18-1.16-0.03-1.59c-0.71-1.42-0.48-2.73,0.18-4.05
			c0.99-1.98,2.06-3.92,2.94-5.94c0.36-0.83,0.32-1.85,0.49-2.99c0.18-0.11,0.53-0.3,0.86-0.52c1.35-0.92,1.64-2.22,0.39-3.25
			c-1.8-1.5-0.29-3.42-0.86-5.05c-0.03-0.09,1.22-0.98,1.75-0.87c1.76,0.37,3.54,0.88,5.16,1.64c0.87,0.41,1.53,0.63,2.52,0.49
			c1.11-0.17,2.29,0.13,3.59,0.25c0-0.77,0-1.46,0-2.56c0.73,0.65,1.18,1.05,1.62,1.45c2.38-1.08,4.59-1.08,6.69,2.73
			c1.08-1.7,2.65-1.73,4.34-1.39c1.15,0.23,1.84-0.4,2.45-1.31c1.1-1.63,3.42-1.44,4.26,0.37c0.38,0.81,0.38,1.9,1.53,2.03
			c1.72,0.18,3.45,0.31,5.17,0.3c0.27,0,0.81-0.89,0.76-1.31c-0.15-1.29-0.44-2.58-0.84-3.82c-0.66-2.06,0.21-4.12,2.23-4.52
			c0.89-0.17,1.9,0.23,3.17,0.43c-0.22-1.32-0.42-2.55-0.61-3.74c2.52-0.93,2.72-0.88,4.48,1.12c2.57-1.69,9.19-1.94,11.95-0.36
			c-0.18,0.41-0.44,0.82-0.52,1.27c-0.18,1.04-0.63,2.22-0.3,3.1c0.27,0.73,1.56,1.03,2.28,1.66c0.93,0.81,1.77,1.75,2.61,2.66
			c0.82,0.89,1.68,1.29,2.86,0.64c1.24-0.68,2.85-0.44,3.81-1.95c0.4-0.63,1.64-0.32,1.99,0.67c0.57,1.61,1.39,2.36,3.19,1.61
			c0.47-0.2,1.26,0.16,1.82,0.43c1.18,0.58,2.26,1.34,3.45,1.89c1.36,0.62,2.69,0.8,3.79-0.66c0.29-0.39,0.99-0.65,1.51-0.67
			c1.91-0.07,3.84-0.16,5.73,0.07c1.07,0.13,2.07,0.86,3.08,1.3c-0.14,1.09-0.25,1.9-0.37,2.86c-0.56,0.33-1.19,0.69-1.9,1.1
			c0.12,0.37,0.13,0.79,0.33,0.94c1.21,0.86,1.15,1.97,1.04,3.31c-0.22,2.73-0.22,5.48-0.19,8.21c0.01,0.85,0.08,1.49-0.58,2.24
			c-1.39,1.59-0.89,4.01,0.86,5.13c2.18,1.4,2.66,3.16,1.39,5.31c-0.45,0.76-0.83,1.55-0.14,2.28c0.7,0.75,1.52,0.4,2.28-0.04
			c0.35-0.2,0.72-0.4,1.13-0.63c0.39,0.18,0.77,0.34,1.13,0.53c4.85,2.65,5.75,4.69,4.18,9.97c-0.33,1.12-0.21,2.08,0.01,3.15
			c0.38,1.89-0.01,2.59-1.68,2.92c-1.09,0.22-1.96,0.51-1.97,1.79c-0.01,1.28-0.43,2.76,1.35,3.35c0.22,0.07,0.41,0.26,0.74,0.49
			c-0.22,0.59-0.75,1.28-0.6,1.75c0.69,2.07-0.68,2.62-2.51,3.19c0.44,0.68,0.69,1.26,1.1,1.67c1.62,1.63,1.48,4.93-0.32,6.27
			c-1.57,1.17-1.92,5.14-0.22,6.09c2.03,1.14,1.77,2.51,1.38,4.18c-0.04,0.15,0.01,0.33,0.03,0.68c0.38,0.11,0.83,0.21,1.25,0.37
			c1.54,0.62,2.65,1.63,3.05,3.31c0.22,0.88,0.37,1.82,0.78,2.61c1.01,1.96,1.1,3.65-1.23,4.85c0.31,0.4,0.5,0.64,0.68,0.89
			c1.1,1.5,0.77,2.88-0.97,3.48c-2.05,0.71-3.41,2-4.08,4.03c-0.38,1.16-1.25,1.65-2.29,2.1c-1.51,0.65-2.61,1.42-2.18,3.56
			c0.27,1.33-0.26,2.97-0.86,4.27c-0.52,1.13-0.58,1.79,0.43,2.54c0.42,0.31,0.7,0.82,1.09,1.29c-1.31,1.25-2.78,0.95-4.14,1.01
			c-1.39,0.07-2.65,0.03-3.84,1.22c-0.77,0.77-2.26,0.95-3.47,1.09c-1.16,0.14-2.16-1.48-1.8-2.67c0.16-0.53,0.41-1.02,0.81-1.98
			c-0.96,0.12-1.57,0.1-2.12,0.27c-2.16,0.67-2.76,0.4-3.54-1.71c-0.25-0.69-0.5-1.37-0.82-2.23c-0.6,0.28-1.06,0.42-1.43,0.69
			c-2.33,1.71-3.27,1.56-4.81-0.8c-0.36-0.55-0.77-1.09-1.26-1.51c-0.64-0.55-1.28-0.79-2.25-0.34c-1.95,0.89-3.9,0.36-5.63-0.73
			c-1.67-1.05-2.7-1.13-4.26,0c-2.33,1.69-2.86,1.59-4.61-0.59c-0.36-0.45-1.03-0.73-1.6-0.9c-1.8-0.54-2.54-1.49-2.6-3.4
			c-0.04-1.23-0.04-2.5-0.36-3.68C220.68,268.03,219.97,267.35,219.39,266.48z"/>
		<path id="XMLID_567_" class="st1" d="M212.71,82.9c0.87-1.75,2.28-2.46,3.95-2.82c0.82-0.18,1.74-0.6,1.56-1.63
			c-0.14-0.83-0.48-2.08-1.06-2.3c-1.29-0.5-1.31-1.58-1.73-2.59c-0.6,0-1.15,0-1.73,0c-0.08-0.33-0.22-0.57-0.19-0.79
			c0.08-0.49,0.25-0.96,0.36-1.45c0.39-1.73-0.3-2.51-2.05-2.34c-0.89,0.09-1.84,0.34-2.66,0.12c-2.03-0.54-2.31-1.47-1.61-4.31
			c2.65-1.27,5-1.23,7,1.31c0.5,0.63,1.51,0.91,2.33,1.24c1.17,0.46,1.37,0.87,0.82,2.07c-0.27,0.59-0.56,1.16-0.83,1.75
			c-0.02,0.05,0.06,0.15,0.23,0.51c0.84-0.16,1.76-0.33,2.92-0.55c-1.12,2.14-0.74,4.08,0.07,6.17c0.78,2.01,1.56,4.24-0.01,6.48
			c1.44,0.86,2.54,1.78,2.91,3.47c0.16,0.74,1.13,1.44,1.89,1.88c1.56,0.9,3.21,1.65,4.85,2.41c0.92,0.43,1.53,1.02,1.43,2.09
			c-0.14,1.44,0.46,2.01,1.91,2.31c1.72,0.36,2.83,1.5,3.87,3.14c0.87,1.39,2.43,2.93,3.9,3.61c1.85,0.84,4.21,0.61,6.36,0.73
			c0.37,0.02,0.85-0.45,1.15-0.81c1.59-1.95,3.78-2.01,5.36-0.11c0.21,0.25,0.35,0.58,0.58,0.81c2.35,2.44,2.54,2.71,5.3,0.32
			c-0.06-0.26-0.09-0.59-0.22-0.87c-0.96-2.08-0.96-2.07,0.91-3.57c0.44-0.36,0.79-0.83,1.1-1.16c0.95,0,1.76,0,2.81,0
			c0.41-2.85-0.78-4.93-2.76-6.78c0.36-0.59,0.72-1.2,1.15-1.91c-0.98-0.54-1.81-1-2.65-1.46c0.78-1.37,0.78-1.37,3.23-1.88
			c0.8-1.27-0.78-3,0.69-4.15c0.28-0.22,0.69-0.28,1.25-0.48c0,0.7,0.07,1.18-0.01,1.63c-0.41,2.35,0.26,3.67,2.49,4.3
			c1.8,0.5,2.37,2.22,3.59,3.29c0.7,0.61,0.98,1.69,1.37,2.4c-0.71,1.12-1.71,2.03-1.81,3.03c-0.15,1.52,1.63,1.32,2.53,1.94
			c0.27,0.19,0.54,0.41,0.73,0.67c1.08,1.45,2.13,2.91,3.18,4.35c-0.73,1.38-1.92,0.23-2.97,0.81c0,0.8,0,1.72,0,2.71
			c1.32,0.4,2.95-0.12,3.32,1.97c0.35,2-0.49,2.97-2.19,3.63c0.11,2.03,0.29,3.99,0.29,5.95c0,0.56-0.44,1.18-0.8,1.67
			c-0.92,1.24-1.02,1.75,0.23,2.36c1.55,0.76,1.81,2.02,2.02,3.48c-0.2,0.27-0.41,0.53-0.6,0.79c-1.06,1.44-0.97,2.01,0.5,3
			c0.34,0.23,0.76,0.35,1.1,0.59c1.45,0.98,1.8,3.54,0.4,4.5c-1.72,1.18-1.85,2.83-2.01,4.57c-0.18,2.06-0.25,4.15-0.56,6.19
			c-0.21,1.35,0.56,1.98,1.48,2.67c-0.11,1.91-0.62,3.34-2.4,4.56c-1.49,1.03-2.4,2.9-3.56,4.41c-0.09,0.12-0.16,0.36-0.1,0.47
			c0.97,1.77-0.39,2.9-1.18,4.04c0.1,0.31,0.1,0.53,0.21,0.61c2.2,1.53,2.37,2.61,0.71,4.76c-0.2,0.26-0.4,0.58-0.68,0.72
			c-1.22,0.63-1.65,1.65-1.99,2.94c-0.45,1.72-0.95,1.97-2.71,1.92c-3.49-0.1-6.98-0.26-10.46-0.42c-0.39-0.02-0.78-0.18-1.26-0.3
			c0-0.81,0-1.52,0-2.19c-1.25-0.84-2.32-0.6-3.3,0.21c-0.8,0.66-1.61,0.68-2.56,0.34c-1.02-0.36-2.1-0.52-3.12-0.86
			c-1.83-0.62-3.55-0.75-5.18,0.55c-1.05,0.83-1.97,0.51-2.83-0.43c-0.55-0.6-1.15-1.26-1.86-1.61c-1.63-0.8-2.02-2.08-1.75-3.72
			c0.15-0.9,0.4-1.79,0.48-2.7c0.06-0.59-0.1-1.21-0.15-1.7c-0.38-0.1-0.48-0.17-0.54-0.14c-2.62,1.1-2.62,1.07-6.01,1.04
			c-5.66-0.05-11.32-0.09-16.98-0.05c-1.73,0.01-3.24-0.03-3.33-2.22c-1.45-0.53-3.14,1.1-4.34-0.92c0.39-0.69,0.84-1.45,1.17-2.02
			c-1.3-0.82-2.61-1.65-3.78-2.39c-0.03-2.03,1.63-1.34,2.69-2.27c0-0.77,0.01-1.83,0-2.88c-0.02-2.36-0.03-2.36-2.38-3.26
			c-0.23-0.09-0.54-0.14-0.67-0.32c-1.31-1.74-3.29-1.63-4.96-1.89c-1.89,1.14-3.63,2.28-5.47,3.23c-0.39,0.2-1.36-0.15-1.69-0.55
			c-0.92-1.1-2-1.41-3.33-1.24c-0.08,0.01-0.17,0.02-0.25,0.01c-5.07-0.79-5.49,0.89-8.65-4.38c-0.63-1.04-1.99-1.76-3.15-2.34
			c-1.63-0.82-2.39-1.94-2.22-3.76c0.11-1.16,0.01-2.34,0.19-3.48c0.22-1.46-0.22-2.44-1.62-2.94c-0.62-0.22-1.24-0.45-1.87-0.64
			c-0.55-0.16-1.18-0.17-1.68-0.43c-2.82-1.5-3.11-2.37-1.33-4.28c0.15-0.16,0.15-0.45,0.33-1.02c-0.72,0.33-1.19,0.55-1.67,0.76
			c-1.53,0.68-2.82,0.25-3.55-1.21c-0.82-1.64-1.64-3.29-2.59-5.2c-0.61,0.33-1.17,0.58-1.68,0.91c-0.48,0.31-0.92,0.69-1.47,1.11
			c-0.82-0.4-1.61-0.79-2.6-1.28c-1.19,1.07-2.4,2.17-3.9,3.53c-0.95-1.6-1.85-3.01-2.61-4.5c-0.14-0.27,0.21-0.95,0.51-1.26
			c0.44-0.45,1.05-0.74,1.59-1.09c-0.16-0.25-0.24-0.48-0.34-0.5c-2.89-0.43-2.94-0.47-2.25-3.26c0.46-1.85,0.9-3.73,1.58-5.51
			c0.39-1.03,1.24-1.88,1.9-2.8c0.19-0.26,0.54-0.42,0.69-0.7c1.08-1.95,2.13-3.92,3.24-5.97c-0.41-0.45-0.77-0.89-1.18-1.28
			c-1.27-1.2-1.41-2.27-0.14-3.29c2.49-2.01,4.69-4.39,8.11-5.07c2.3-0.46,4.47-1.58,6.94-2.5c0.37-0.61-0.02-1.27-0.63-1.94
			c-0.38-0.41-0.76-0.9-0.88-1.42c-0.28-1.2,0.22-1.92,1.43-2.17c0.64-0.13,1.3-0.17,2.11-0.27c0.17-2.02,1.01-3.61,2.61-4.87
			c0.71-0.56,1.28-0.9,2.2-0.77c0.82,0.11,1.66,0.05,2.49,0.01c1.68-0.08,2.25-0.55,1.91-2.1c-0.61-2.83-1.2-5.73-3.21-8.01
			c-0.7-0.79-1.14-1.58-0.84-2.77c2.63,0.04,3.44,2.44,5.15,3.74c0.57-0.23,1.15-0.55,1.78-0.71c1-0.25,1.72,0.06,2.22,1.07
			c1.29,2.59,2.24,3.16,5.11,3.29c0.63,1.23,1.13,2.58,1.95,3.68c0.8,1.08,1.94,1.92,3.02,2.96c-0.83,0.9-1.61,1.73-2.47,2.66
			c-0.8-0.34-1.62-0.68-2.41-1.01c-1.55,1.66-1.56,1.78-0.69,3.44c0.27,0.51,0.6,1.02,0.72,1.57c0.25,1.09,0.72,1.85,1.93,1.94
			c1.29,0.09,2.52,0.06,3.31-1.21c0.31-0.5,0.57-1.02,0.9-1.49c1.33-1.9,4.02-1.81,5.16,0.2c0.32,0.57,0.39,1.27,0.69,1.86
			c0.28,0.56,0.6,1.32,1.09,1.52c1.08,0.44,2.06,0.88,2.95,1.71c0.93,0.87,1.93,0.46,3.59-1.09c-0.92-2.82-0.92-2.82,0.61-4.24
			C208.27,78.71,210.35,80.68,212.71,82.9z M155.76,88.32c-0.31-1.43-0.31-1.43-1.48-1C154.79,87.66,155.18,87.92,155.76,88.32z"/>
		<path id="XMLID_562_" class="st1" d="M463.49,176.62c0.68,1.06,1.24,2.13,1.98,3.05c0.42,0.52,1.1,0.93,1.74,1.15
			c0.51,0.18,1.15-0.05,1.73-0.03c1.91,0.05,2.39,0.45,2.95,2.31c0.18,0.61,0.43,1.2,0.72,2c0.93-0.71,1.68-1.28,2.4-1.82
			c3.02,1.98,3.34,2.72,2.44,5.39c1.6,1.91,1.6,1.91,4.32-0.1c1.07,1,2.2,2.04,3.32,3.1c0.35,0.34,0.61,0.78,0.99,1.07
			c2.57,1.96,2.58,1.95,1.41,5.28c-2.84-0.93-5.17,0.4-7.53,2.05c-0.42-0.37-0.93-0.67-1.23-1.11c-1.04-1.5-2.3-2.5-4.21-2.79
			c-0.71-0.11-1.41-1.03-1.89-1.73c-1.23-1.77-2.96-1.94-4.27-0.3c-1.06,1.32-2.1,2.65-3.26,4.12c-0.01-0.08-0.05,0.18,0.04,0.23
			c1.78,1.06,2.78,2.23,1.08,4.26c-0.28,0.34,0.1,1.4,0.4,2.01c0.24,0.48,0.82,0.79,1.31,1.22c-0.43,2.25-0.7,4.55-4.13,4.7
			c0.53,1.25,0.95,2.25,1.48,3.5c-0.62,0.28-1.18,0.53-1.74,0.78c-1.39,0.63-1.85,1.37-1.01,2.48c1.69,2.25,0.53,4.5,0.25,6.71
			c-0.09,0.68-0.86,1.55-1.52,1.81c-1.5,0.59-2.1,1.79-2.75,3.05c-0.33,0.64-0.81,1.21-1.24,1.81c-0.14,0.19-0.49,0.46-0.46,0.52
			c0.89,1.45-1.39,2.47-0.52,3.91c0.29,0.49,0.5,1.03,0.73,1.55c0.24,0.56,0.77,1.49,0.61,1.64c-0.49,0.45-1.23,0.7-1.91,0.83
			c-0.53,0.1-1.11-0.12-1.7-0.2c-0.03,0.59-0.05,1.07-0.09,1.98c-1.61-2.62-3.31-3.02-5.17-0.82c-2.24-1.83-3.02-1.83-5.16-0.11
			c-0.37,0.3-0.84,0.53-1.29,0.66c-2.52,0.75-2.49,0.75-1.94,3.17c0.15,0.67,0.13,1.54-0.18,2.12c-1.21,2.22-0.57,4.45,0.18,6.45
			c0.83,2.19,0.85,4.12-0.25,6.55c-1.1-0.77-2.09-1.46-3.06-2.15c-0.13-0.09-0.33-0.28-0.31-0.37c0.54-2.13-1.2-2.42-2.45-3.16
			c-0.4-0.24-0.66-0.71-0.98-1.08c-0.74,0.25-1.49,0.76-2.09,0.62c-0.57-0.13-0.9-1.07-1.48-1.43c-0.5-0.31-1.21-0.45-1.79-0.38
			c-0.88,0.1-1.54,0.67-1.61,1.64c-0.14,1.92-0.36,3.86,1.36,5.31c0.3,0.26,0.48,0.66,0.68,0.95c-0.21,1.11-0.92,1.48-1.83,1.38
			c-0.81-0.09-1.21-0.6-1.4-1.48c-0.18-0.8-0.8-1.5-1.39-2.54c0.22-0.73,0.54-1.79,0.83-2.74c-1.64,0.29-3.14,0.49-4.59,0.84
			c-0.66,0.16-1.44,0.44-1.83,0.93c-0.56,0.72-0.2,1.52,0.37,2.25c1.4,1.8,0.88,5.28-0.91,6.62c-1.18,0.88-2.14,0.84-3.55-0.11
			c-0.36,0.43-0.72,0.85-1.16,1.38c-0.68-0.48-1.27-0.89-1.94-1.35c-0.46,0.25-0.95,0.52-1.57,0.87c-0.51-0.78-0.99-1.51-1.62-2.45
			c-1,1.66-2.42,1.63-4.05,1.52c-4.06-0.29-4.94,0.65-5.18,4.75c-0.09,1.44-0.44,2.87-0.94,4.3c-0.8-3.29-3.08-6.09-2.66-9.65
			c0.07-0.61-0.43-1.26-0.5-1.91c-0.07-0.6-0.14-1.54,0.18-1.75c0.53-0.36,1.4-0.42,2.07-0.3c0.69,0.12,1.31,0.61,1.98,0.96
			c0.79-2.4-0.13-3.6-3.08-4.22c4.42-3.36,4.62-3.65,4.1-6.26c-1.96,1.28-3.89,2.67-6.48,1.33c-0.24,0.44-0.44,0.86-0.7,1.25
			c-0.98,1.49-1.49,1.66-3.09,0.89c-1.4-0.68-2.76-1.45-4.02-2.11c0.5-1.23,0.77-2.28,1.34-3.14c0.42-0.64,1.18-1.11,1.87-1.5
			c1.4-0.8,2.69-1.43,2.5-3.53c-0.09-1,0.82-2.09,1.25-3.1c-0.23-0.33-0.34-0.56-0.51-0.72c-1.91-1.84-1.92-1.97-0.63-4.2
			c0.39-0.68,0.67-1.41,1.13-2.4c-0.92-0.12-1.46-0.21-2-0.26c-1.82-0.17-2.31-0.94-1.59-2.66c0.29-0.68,0.71-1.3,1.03-1.87
			c4.1-0.55,4.64-1.29,3.57-4.56c-1.23-0.3-2.48-0.43-3.58-0.91c-1.48-0.64-1.53-1.13-1.06-2.72c0.49-1.65,0.83-3.36,1.34-5.01
			c0.26-0.83,0.76-1.59,1.33-2.76c-1.57-0.11-2.93-0.22-4.3-0.3c-0.5-0.03-1.05,0.17-1.48,0.02c-0.56-0.2-1.31-0.58-1.45-1.04
			c-0.14-0.45,0.22-1.29,0.63-1.64c2.05-1.75,2.05-2.58,0.03-4.36c-0.46-0.41-0.78-1.29-0.72-1.91c0.13-1.24-0.27-2.16-0.83-3.24
			c-0.59-1.14-0.54-2.61-0.86-4.48c-0.5-0.38-1.53-0.47-2.32,0.53c-0.56,0.72-0.85,1.55-2,1.58c-1.15,0.03-2.14-0.13-2.92-1.05
			c-0.09-0.11-0.3-0.13-0.62-0.27c-0.26,0.31-0.54,0.67-0.83,1.01c-0.93,1.08-2.41,0.91-2.59-0.42c-0.16-1.13-0.51-1.78-1.5-2.33
			c-0.37-0.21-0.56-1.15-0.47-1.7c0.13-0.77,0.58-1.5,0.92-2.28c-2.31,0.02-3.03-0.43-3.64-2.22c-0.43-1.25,0.57-4.1,2.07-4.71
			c2.19-0.88,1.9-2.37,1.6-4.21c-0.79,0-1.49,0-2.45,0c-0.17-1.07-0.44-2.03-0.43-2.98c0.02-1.15,0.55-2.04,1.79-2.41
			c1.08-0.32,1.94-0.58,2.89,0.5c0.95,1.09,1.65,0.98,2.29-0.28c0.54-1.06,1.34-1.41,2.34-1.6c1.06-0.2,2.13-0.48,3.2-0.48
			c0.76-0.01,1.73,0.15,2.26,0.62c1.68,1.49,3.6,1.05,5.47,0.89c0.47-0.04,1.06-0.75,1.28-1.28c0.35-0.87,0.72-1.62,1.75-1.24
			c1.04,0.38,2.31,0.6,2.55,2.05c0.39,2.35,1.08,2.68,3.2,1.52c1.68-0.91,2.55-0.82,4.05,0.44c0.44,0.37,0.89,0.75,1.34,1.11
			c0.46,0.36,0.93,0.7,1.55,1.16c1.05-1.32,2.48-1.14,3.96-0.94c0.82,0.11,1.71,0.18,2.48-0.03c1.43-0.4,2.75-0.38,4.1,0.66
			c0.17-0.49,0.25-0.78,0.37-1.05c0.23-0.49,0.46-1.34,0.73-1.36c0.56-0.03,1.35,0.22,1.68,0.65c1.3,1.72,3.04,2.12,5.05,2.18
			c1.9,0.05,3.34-0.66,4.37-2.43c1.22,1.38,1.89,3.49,4.32,2.19c-0.34-0.74-0.78-1.38-0.88-2.07c-0.07-0.45,0.23-1.21,0.58-1.4
			c0.37-0.19,1.39,0.01,1.48,0.27c0.73,2.07,2.42,1.76,3.96,1.69c1.41-0.06,2.82-0.23,4.2-0.51c0.57-0.12,1.32-0.54,1.54-1.02
			c0.58-1.32,1.63-1.44,2.69-1.16c2.11,0.54,4.06,0.23,6.11-0.36c2.33-0.67,4.62-0.02,6.77,0.99c0.47,0.22,0.87,0.74,1.14,1.21
			c0.35,0.61,0.36,1.65,0.83,1.89c0.83,0.43,1.9,0.46,2.88,0.54C462.04,177.04,462.53,176.82,463.49,176.62z M393.11,245.53
			c-0.92-0.02-1.7,0.78-1.7,1.76c0.01,0.86,0.38,1.46,1.32,1.44c1.01-0.02,1.47-0.67,1.53-1.61
			C394.31,246.3,394.08,245.63,393.11,245.53z M381.57,174.98c-0.31-1.44-0.72-1.89-1.48-1.58c-0.22,0.09-0.26,0.63-0.38,0.96
			C380.2,174.53,380.71,174.7,381.57,174.98z M455.91,176.89c0.02-0.13,0.05-0.27,0.07-0.4c-0.12-0.09-0.28-0.28-0.36-0.25
			c-0.24,0.08-0.45,0.25-0.67,0.38C455.26,176.71,455.58,176.8,455.91,176.89z"/>
		<path id="XMLID_559_" class="st1" d="M324.82,377.64c-1.12,0.62-2.01,1.12-3.19,1.78c1.54,1.61,2.85,2.97,4.3,4.49
			c0.53-0.27,1.16-0.64,1.82-0.92c2.15-0.93,3.05-0.41,3.44,1.91c0.37,2.2,0.79,4.4,1.23,6.9c-1.74,1.51-3.66,3.17-5.24,4.53
			c0.09,2.38,0.16,4.43,0.24,6.7c1.62-1,3.01-1.86,5.06-3.12c0.77-1.03-1.84-2.38-0.93-3.94c0.93,0.04,1.96-0.21,2.59,0.18
			c1.29,0.8,2.67,1.76,3.44,3.01c0.97,1.57,1.64,3.35,1.16,5.44c-0.42,1.8,0.07,3.63,1.21,5.2c0.58,0.81,0.71,1.51-0.08,2.43
			c-1.42,1.66-1.29,2.14,0.31,3.68c0.17,0.16,0.28,0.4,0.43,0.62c-0.96,2.59-1.07,5.5-2.99,7.84c-1.73-0.51-3.34-0.6-4.11,1.17
			c-1.03-0.07-1.87-0.13-3.12-0.22c0.41,1.13,0.67,1.8,0.91,2.48c0.76,2.18,0.1,3.94-1.83,5.26c-0.6,0.41-1.04,1.06-1.57,1.57
			c-0.47,0.45-0.91,1.01-1.48,1.27c-1.01,0.46-1.82-0.21-1.72-1.33c0.01-0.16,0.04-0.34,0.1-0.49c0.64-1.53,1.34-3.04,1.91-4.6
			c0.53-1.44,0.91-2.94,1.43-4.64c-0.23-0.14-0.71-0.42-1.01-0.6c0.37-0.49,0.92-0.98,1.15-1.59c0.22-0.58,0.1-1.29,0.13-1.91
			c-1.56-0.46-2.97-0.88-4.59-1.37c-0.08,1.98-0.25,3.55-2.08,4.42c-0.95,0.46-0.87,1.5-0.01,2.28c0.67,0.61,1.5,1.05,2.16,1.67
			c1.05,0.99,0.97,1.83-0.27,2.59c-0.7,0.43-1.54,0.62-2.29,0.97c-1.31,0.62-1.43,1.09-0.66,2.32c1.49,2.4,1.36,2.33-0.6,4.53
			c-1.26,1.42-2.17,3.11-4.06,3.88c-0.28,0.11-0.48,0.69-0.51,1.07c-0.13,2.22-0.97,4.19-2.06,6.07c-0.66,1.15-0.41,1.95,0.6,2.8
			c1.54,1.29,1.49,1.41,0.08,2.9c-1.08,1.14-2.17,2.28-3.34,3.5c-0.84-0.17-1.71-0.35-2.74-0.55c-0.36,0.77-0.7,1.49-1.12,2.4
			c-2.01-0.19-3.76-1.17-5.79-1.94c1.03-1.5,2.47-1.44,3.83-1.98c-0.23-0.57-0.38-1.09-0.63-1.56c-0.85-1.57-0.97-3.09-0.02-4.69
			c0.86-1.44,0.7-1.78-0.75-2.41c-2.05-0.89-2.29-1.64-1.17-3.55c0.12-0.21,0.22-0.44,0.39-0.76c-0.32-0.61-0.66-1.25-1.14-2.15
			c1.61-1.74,3.27-3.54,5.19-5.61c1.73,0.22,3.7,0.47,6,0.76c-0.36-1.11-0.65-2-1.01-3.09c0.53-0.3,1.08-0.6,1.63-0.92
			c0.83-0.49,1.35-1.5,0.81-2.08c-1.16-1.27-1.59-3.35-3.89-3.76c0,0.69,0,1.28,0,2.02c-0.4,0.19-0.89,0.42-1.42,0.67
			c0.03,0.27,0.03,0.52,0.1,0.74c0.59,1.87-0.05,3.12-1.89,3.48c-0.89,0.17-1.82,0.17-2.73,0.2c-1.6,0.06-2.7,0.66-2.74,2.21
			c-0.05,2.05-1.31,3.25-2.59,4.32c-1.06,0.89-1.6,1.66-1.61,3.08c-0.01,1.45-1,1.93-2.21,1.39c-0.93-0.42-1.24-1.07-0.79-2.01
			c0.18-0.37,0.36-0.78,0.65-1.06c1.46-1.36,1.89-2.97,1.66-4.96c-0.32-2.68,1.8-3.89,3.56-5.26c0.48-0.37,0.99-0.69,1.74-1.2
			c-3.93-0.88-5.91,1.2-7.63,3.76c-0.16,0.24-0.27,0.68-0.16,0.92c0.61,1.35-0.09,2.3-1.01,3.06c-1.71,1.4-2.29,3.14-2.08,5.3
			c0.08,0.83,0.32,1.98-1.01,2.18c-0.74,0.11-1.64-1.06-1.74-2.16c-0.03-0.32-0.01-0.68,0.12-0.97c0.66-1.49,0.4-2.67-0.85-3.78
			c-0.71-0.63-1.01-7.81-0.54-8.67c0.11-0.21,0.31-0.37,0.57-0.67c-1.77-0.87-1.86-2.47-1.93-4.13c-0.03-0.77-0.13-1.79-0.62-2.24
			c-1.03-0.94-0.84-1.82-0.49-2.92c1.15-3.66,3.58-6.55,5.76-9.58c0.51-0.71,1.63-0.99,2.61-1.54c-0.09-0.41-0.25-0.88-0.27-1.35
			c-0.09-1.49,0.39-2.08,2.02-2.59c1.67-0.52,1.68-0.54,1.33-2.91c-2.26,0.43-4.79,1.57-6.25-1.75c0.21-0.28,0.47-0.98,0.88-1.09
			c2.34-0.62,1.62-2.45,1.53-3.89c-0.1-1.59-0.93-2.82-2.68-3.14c-0.32-0.06-0.69-0.08-0.94-0.25c-0.82-0.55-0.91-2.06-0.06-2.54
			c1.08-0.6,1.94-1.15,1.89-2.6c-0.06-1.61-0.11-3.11-1.44-4.34c-0.76-0.71-1.25-1.71-1.72-2.37c0.53-1.37,0.97-2.48,1.51-3.89
			c0.3-0.07,0.94-0.18,1.56-0.36c1.49-0.43,1.82-1.7,0.71-2.81c-0.45-0.46-1-0.82-1.86-1.5c2.44-0.63,4.21-2.04,6.55-2
			c1.7,0.03,2.19-0.51,1.5-1.84c-0.86-1.66-0.18-2.65,0.94-3.68c0.36-0.33,0.79-0.68,0.97-1.11c0.92-2.23,2.53-3.81,4.32-5.37
			c0.84-0.73,1.59-1,2.49-1.02c1.3-2.48,1.62-2.6,3.51-1.24c-0.85,1.75-2.37,3.49-0.79,5.75c2.96-1.7,4.2,1.13,6.09,2.3
			c0.38,0.23,0.53,0.82,0.74,1.15c3.15-1.95,4.38-5.84,3.38-9.68c2.5-0.08,2.71,0.06,3.68,2.5c2,0.52,3.95,1.02,6.07,1.57
			c-0.44,1.34-0.79,2.4-1.23,3.73c2.15-0.33,3.12,1.07,4.36,2.33c-0.39,0.54-1.08,1.08-1.13,1.67c-0.06,0.61,0.5,1.28,0.74,1.8
			c-1.32,0.66-2.71,1.33-4.07,2.04c-1.71,0.88-1.8,1.45-0.51,2.97c0.2,0.24,0.4,0.49,0.51,0.62
			C327.09,375.57,324.41,375.71,324.82,377.64z M321.06,361.13c-0.34,0.38-0.59,0.56-0.67,0.8c-0.04,0.11,0.27,0.48,0.41,0.48
			c0.26-0.01,0.51-0.21,0.76-0.33C321.43,361.83,321.3,361.58,321.06,361.13z"/>
		<path id="XMLID_556_" class="st1" d="M343.84,437.25c-0.43-1.55-0.16-3.05,0.18-4.55c0.12-0.56,0.41-1.21,0.24-1.68
			c-0.47-1.27-0.59-2.37,0.59-3.3c-0.23-2.2,1.16-2.45,3.01-2.2c0.5-1.36,1.1-2.64,1.41-3.98c0.3-1.29,0.35-2.62-1.04-3.56
			c-0.83-0.56-0.93-1.57,0.02-2.03c1.25-0.6,1.64-1.42,1.67-2.73c0.03-1.45-0.92-2.02-1.88-2.69c-0.12-0.09-0.18-0.27-0.37-0.58
			c0.17-0.4,0.44-0.9,0.58-1.43c0.13-0.45,0.34-1.13,0.13-1.37c-1.29-1.52-0.82-3.09-0.14-4.81c-1.71-0.68-2.22-2.2-3.07-3.6
			c-1.73-2.87-3.58-5.78-6.58-7.61c-0.28-0.17-0.72-0.38-0.74-0.6c-0.1-1.14-0.26-2.33-0.06-3.44c0.14-0.77,0.84-1.44,1.45-2.42
			c-0.08-0.36-0.48-1.19-0.38-1.97c0.25-2.08,0.64-2.29,2.77-2.06c0.58,0.06,1.18,0.02,1.73,0.18c0.44,0.13,1.11,0.45,1.15,0.75
			c0.32,2.56,2.18,4.43,2.98,6.76c0.19,0.55,0.26,1.14,0.51,1.65c0.31,0.62,0.63,1.36,1.16,1.73c1.18,0.82,1.84,1.87,2.06,3.26
			c0.12,0.74,0.29,1.47,0.41,2.21c0.31,1.93,1.35,3.47,2.3,5.14c1.41,2.48,3.42,4.41,5.27,6.56c-0.41,0.47-0.58,0.77-0.83,0.94
			c-2.41,1.68-2.69,3.7-0.95,6.01c0.41,0.54,0.66,1.34,0.67,2.03c0.07,2.91,0,5.82,0.05,8.73c0.02,1.11-0.33,1.89-1.29,2.49
			c-0.63,0.39-1.18,0.93-1.71,1.45c-1.33,1.3-1.37,1.62-0.61,3.44c0.51,1.21-0.39,3.45-1.63,3.57c-2.4,0.24-3.5,2.01-4.67,3.66
			c-0.88,1.24-1.71,2.4-3.26,2.86c-0.65-2.44-0.11-3.46,2.66-4.96c-0.12-0.57-0.29-1.19-0.36-1.83c-0.06-0.55-0.01-1.12-0.01-1.7
			C345.43,434.85,345.38,437.32,343.84,437.25z M345.44,396.55c0.11,0.14,0.22,0.28,0.33,0.43c0.31-0.28,0.63-0.56,0.95-0.84
			c-0.08-0.11-0.17-0.21-0.25-0.32C346.12,396.06,345.78,396.31,345.44,396.55z"/>
		<path id="XMLID_555_" class="st1" d="M384.71,427.2c-0.98-0.22-1.68-0.38-2.57-0.58c-0.11,0.67-0.23,1.2-0.27,1.75
			c-0.03,0.32,0.06,0.66,0.11,0.99c0.23,1.46-0.24,2.95-1.44,3.45c-2.16,0.91-3.22,4.53-6.68,2.65c1.78-2.29,1.65-5.65,4.13-6.88
			c-0.02-1.8-0.05-3.14-0.04-4.48c0.02-1.99,0.06-3.98,0.1-5.97c0.02-1.23-0.1-2.46,1.23-3.29c0.45-0.28,0.57-1.08,1.33-1.66
			c0.3,1.46,0.61,2.91,0.91,4.37c2.44-0.62,3.15-0.2,3.53,2.18c0.25,1.54,0.49,3.11,0.47,4.66
			C385.52,425.29,385.02,426.2,384.71,427.2z"/>
		<path id="XMLID_552_" class="st1" d="M441.19,471.91c1.08-0.62,1.69-0.98,2.5-1.44c-0.1,1.21-0.18,2.31-0.31,3.81
			c0.72-0.4,1.01-0.51,1.24-0.71c0.73-0.61,1.45-1.25,2.36-0.33c0.82,0.83,0.81,1.83,0.02,2.82c-1.06,1.33-1.05,1.92-0.04,3.24
			c0.37,0.49,0.91,1.1,0.86,1.62c-0.1,1.3-0.37,2.63-0.83,3.84c-0.14,0.38-1.12,0.58-1.74,0.61c-1.31,0.07-2.65-0.22-3.86,0.63
			c-0.21,0.15-1.01-0.08-1.05-0.23c-0.1-0.5-0.17-1.22,0.11-1.55c0.4-0.47,1.14-0.63,1.68-0.99c0.76-0.5,1.41-1.4,0.6-2.04
			c-2.27-1.79-1.64-4.33-2.05-6.62c-0.11-0.61-0.43-1.18-0.56-1.79c-0.24-1.11-0.52-2.22-0.57-3.34c-0.02-0.35,0.65-0.73,1.01-1.1
			c0.21,0.38,0.53,0.75,0.6,1.16C441.27,470.13,441.19,470.78,441.19,471.91z M443.33,476.84c0.12,0.09,0.24,0.19,0.36,0.28
			c0.1-0.18,0.19-0.35,0.28-0.53c-0.15-0.05-0.31-0.16-0.43-0.12C443.45,476.51,443.4,476.71,443.33,476.84z"/>
		<path id="XMLID_551_" class="st1" d="M344.46,374.96c-0.89-0.14-1.77-0.3-2.66-0.4c-1.53-0.18-2.88-0.08-4.03,1.28
			c-1.35,1.58-3.5,0.83-5.32,1.93c-0.19-1.9-0.37-3.2-1.46-4.3c-0.85-0.85-0.21-2.03,1.09-1.98c1.86,0.07,3.52-0.26,5.26-0.98
			c1.27-0.52,2.75-0.25,3.91,0.9c1.1,1.09,2.33,2.05,3.5,3.06C344.65,374.63,344.55,374.79,344.46,374.96z"/>
		<path id="XMLID_550_" class="st1" d="M407.86,395.66c3.66,2.95,4.46,6.64,5.04,10.68c0.55,0.23,1.29,0.53,1.95,0.8
			c0.41,1.29-0.45,1.82-1.14,2.37c-0.69,0.56-1.46,0.52-1.88-0.33c-0.84-1.71-2.04-2.94-3.79-3.8c-0.53-0.26-0.87-1.37-0.88-2.1
			c-0.01-1.02,0.11-1.94-0.66-2.79c-0.26-0.28-0.3-0.96-0.16-1.36C406.71,398.05,407.24,397.04,407.86,395.66z"/>
		<path id="XMLID_549_" class="st1" d="M168.72,54.94c0.74-0.34,1.38-0.64,2.04-0.95c0.24,1.44-0.6,3.51-1.71,3.96
			c-1.68,0.68-2.47-0.85-3.47-1.62c-3.26,0.56-3.39,0.44-2.37-2.75c0.61-1.91,1.32-3.79,2.11-6.03c0.51,0.57,0.96,0.86,0.93,1.09
			C165.91,51.09,167.32,52.84,168.72,54.94z"/>
		<path id="XMLID_548_" class="st1" d="M301.14,451.16c0.01,1.96-1.63,4.32-3.21,4.85c-0.36,0.12-1.03-0.06-1.28-0.35
			c-0.26-0.3-0.35-0.94-0.23-1.34c0.13-0.43,0.55-0.82,0.94-1.12c0.86-0.67,1.06-1.41,0.58-2.4c-0.21-0.44-0.37-0.94-0.41-1.43
			c-0.07-0.74-0.16-1.73,0.79-1.82c0.59-0.05,1.47,0.45,1.8,0.97C300.68,449.42,300.91,450.52,301.14,451.16z"/>
		<path id="XMLID_547_" class="st1" d="M338.31,357.48c0.16,0.04,0.36,0.02,0.47,0.12c1.16,1.02,2.36,2.01,3.42,3.13
			c0.31,0.32,0.21,1.02,0.3,1.55c-0.51,0.06-1.12,0.32-1.51,0.13c-0.99-0.48-1.86-0.29-2.86-0.08c-1.22,0.26-2.45-0.75-2.47-1.79
			C335.62,359.03,337.05,357.39,338.31,357.48z"/>
		<path id="XMLID_546_" class="st1" d="M329.65,448.59c-1.31,1.18-2.49,2.24-3.73,3.35c-1.11-2-0.95-3.3,0.29-4.13
			C327.59,446.89,328.34,447.02,329.65,448.59z"/>
		<path id="XMLID_545_" class="st1" d="M329.1,327.67c2.2,0.07,3.62,1.2,5.16,2.04c-0.88,1.93-1.46,2.22-2.86,1.25
			C330.36,330.24,329.14,329.56,329.1,327.67z"/>
		<path id="XMLID_544_" class="st1" d="M449.48,473.37c0.29-2.34,1.24-4.56-1.97-5.09c0.92-1.41,1.96-1.24,2.95-0.82
			c0.89,0.37,1.16,1.13,0.89,2.06C451,470.72,451.34,472.21,449.48,473.37z"/>
		<path id="XMLID_543_" class="st1" d="M339.06,448.57c-0.48,0.98-0.67,1.65-1.07,2.13c-0.4,0.48-0.97,0.88-1.55,1.13
			c-0.44,0.19-1,0.11-1.51,0.15c-0.02-0.54-0.27-1.21-0.04-1.59C335.67,449.15,336.86,448.51,339.06,448.57z"/>
		<path id="XMLID_542_" class="st1" d="M332.62,438.82c0.82-2,2.75-3.08,4.75-2.69c0.05,0.22,0.18,0.47,0.14,0.68
			c-0.1,0.56-0.27,1.11-0.36,1.43C335.59,438.44,334.21,438.62,332.62,438.82z"/>
		<path id="XMLID_541_" class="st1" d="M386.84,402.89c-1.29,0.94-2.27,1.65-3.42,2.48c-0.42-0.45-0.83-0.89-1.16-1.25
			C382.69,402.97,384.89,402.35,386.84,402.89z"/>
		<path id="XMLID_540_" class="st1" d="M473.6,541.52c-2.11-0.32-3.4-1.46-3.45-2.82c-0.01-0.26,0.21-0.66,0.43-0.76
			c0.22-0.1,0.72,0,0.85,0.18C472.15,539.15,472.79,540.23,473.6,541.52z"/>
		<path id="XMLID_539_" class="st1" d="M367.4,428.43c0.13,1.6,0.67,3.23-0.44,4.73C365.93,431.85,366,430.81,367.4,428.43z"/>
		<path id="XMLID_538_" class="st1" d="M231.87,473.16c1.07-1.31,1.98-2.42,3.15-3.86c-0.17,1.23-0.31,2.06-0.4,2.89
			C234.45,473.83,234.07,474.01,231.87,473.16z"/>
		<path id="XMLID_537_" class="st1" d="M433,418.1c-0.78-1.56-0.38-2.43,0.75-2.92c0.32-0.14,1.02,0.05,1.23,0.33
			c0.21,0.27,0.19,1.02-0.03,1.26C434.48,417.27,433.8,417.58,433,418.1z"/>
		<path id="XMLID_536_" class="st1" d="M370.22,417.15c0.87,1.72-0.08,2.77-1.03,4.17C369.09,419.66,369.14,418.39,370.22,417.15z"
			/>
		<path id="XMLID_535_" class="st1" d="M224.22,466.75c-0.48-0.32-1.03-0.56-1.38-0.96c-0.19-0.22-0.17-0.75-0.04-1.07
			c0.06-0.16,0.59-0.25,0.86-0.19C224.68,464.74,224.84,465.33,224.22,466.75z"/>
		<path id="XMLID_534_" class="st1" d="M336.51,441.46c-0.57,1.53-1.48,1.76-2.81,1.58C334.12,441.59,334.89,441.11,336.51,441.46z"
			/>
		<path id="XMLID_533_" class="st1" d="M473.77,542.78c0.41,1.46,0.72,2.54,1.14,4.05C473.06,545.21,472.95,544.83,473.77,542.78z"
			/>
		<path id="XMLID_532_" class="st1" d="M257.48,440.15c0,0.83,0,1.66,0,3.04C256.41,441.85,256.49,441.02,257.48,440.15z"/>
		<path id="XMLID_531_" class="st1" d="M276.15,153.79c0,0.63,0.06,1.26-0.03,1.88c-0.03,0.18-0.52,0.45-0.72,0.4
			c-0.23-0.07-0.55-0.5-0.5-0.69c0.16-0.59,0.47-1.14,0.72-1.71C275.79,153.7,275.97,153.75,276.15,153.79z"/>
		<path id="XMLID_530_" class="st1" d="M439.92,456.08c-0.77-0.75-0.68-1.48,0.47-2.67c0.09,1.16,0.15,1.88,0.2,2.59
			C440.36,456.02,440.14,456.05,439.92,456.08z"/>
		<path id="XMLID_529_" class="st1" d="M382.8,302.18c0.18-0.82,0.59-1.19,1.38-0.8c0.15,0.08,0.31,0.49,0.24,0.62
			C383.99,302.74,383.42,302.67,382.8,302.18z"/>
		<path id="XMLID_515_" class="st1" d="M244.95,102.3c-1.22-0.56-1.45-1.15-0.96-2.18C245,100.49,245.25,101.08,244.95,102.3z"/>
		<path id="XMLID_476_" class="st1" d="M343.09,439.29c-0.35,0.24-0.58,0.39-0.82,0.55c-0.19-0.28-0.43-0.55-0.53-0.87
			c-0.02-0.08,0.45-0.46,0.64-0.42C342.62,438.61,342.79,438.95,343.09,439.29z"/>
		<path id="XMLID_474_" class="st1" d="M437.98,463.17c0.1-0.51,0.2-1.02,0.31-1.52c0.12,0,0.24,0,0.36,0
			c0.02,0.28,0.09,0.57,0.05,0.85c-0.04,0.29-0.2,0.56-0.3,0.84C438.26,463.28,438.12,463.22,437.98,463.17z"/>
		<path id="XMLID_460_" class="st1" d="M444.44,464.87c0,0.49,0,0.99,0,1.48c-0.08,0-0.16-0.01-0.24-0.01c0-0.49,0-0.99,0-1.48
			C444.28,464.86,444.36,464.87,444.44,464.87z"/>
		<path id="XMLID_458_" class="st1" d="M320.37,452.02c-0.34,0.41-0.47,0.57-0.61,0.74c-0.17-0.2-0.39-0.38-0.48-0.61
			c-0.03-0.07,0.27-0.38,0.44-0.4C319.92,451.73,320.13,451.91,320.37,452.02z"/>
		<path id="XMLID_457_" class="st1" d="M334.1,380.56c-0.26,0.15-0.56,0.38-0.61,0.34c-0.19-0.17-0.31-0.43-0.46-0.66
			c0.2-0.08,0.43-0.26,0.6-0.22C333.8,380.05,333.91,380.32,334.1,380.56z"/>
		<path id="XMLID_453_" class="st1" d="M394.83,384.3c0.41-0.11,0.81-0.22,1.22-0.32c0.04,0.12,0.08,0.25,0.12,0.37
			c-0.39,0.16-0.78,0.32-1.17,0.48C394.95,384.66,394.89,384.48,394.83,384.3z"/>
		<path id="XMLID_450_" class="st1" d="M283.23,380.88c0.83-0.09,1.64-0.12,2.19,1.54c-0.99-0.74-1.55-1.16-2.13-1.58
			C283.28,380.84,283.23,380.88,283.23,380.88z"/>
		<path id="XMLID_317_" class="st1" d="M322.31,447.05c-0.32,0.49-0.48,0.75-0.65,1.01c-0.03-0.25-0.09-0.5-0.08-0.75
			C321.59,447.25,321.84,447.21,322.31,447.05z"/>
		<path id="XMLID_311_" class="st1" d="M435.65,422.96c-0.08-0.11-0.23-0.22-0.23-0.32c0-0.11,0.15-0.21,0.24-0.32
			c0.09,0.11,0.24,0.22,0.24,0.32C435.89,422.75,435.74,422.85,435.65,422.96z"/>
	</g>
	<g>
		<g>
			<path class="st2" d="M594.37,341.58c3.25,0,6.42,0,9.65,0c0-0.16,0-0.29,0-0.42c0-3.05-0.01-6.11,0-9.16
				c0.01-2.22-1.27-3.17-3.11-3.55c-0.92-0.19-1.82-0.1-2.75,0.43c-0.55-1.24-1.18-2.44-1.62-3.7c-0.26-0.74,0.1-1.46,0.73-1.97
				c0.86-0.72,1.89-1.09,2.93-1.4c1.69-0.5,3.35-0.48,4.94,0.39c1.07,0.58,1.79,1.51,2.4,2.52c0.93,1.54,1.44,3.24,1.5,5.02
				c0.1,2.94,0.08,5.89,0.11,8.83c0.01,0.98,0,1.97,0,3.01c0.71,0,1.4,0.04,2.08-0.01c0.58-0.05,0.97,0.16,1.36,0.57
				c1.26,1.34,2.56,2.63,3.85,3.95c0.11,0.11,0.22,0.23,0.4,0.42c-2.6,0-5.12,0-7.69,0c0,0.5,0,0.94,0,1.38c0,4.16,0,8.32,0,12.49
				c0,2.29,1.61,4.01,3.89,4.33c2.1,0.29,3.99-0.19,5.74-1.32c2.78-1.8,5.03-4.11,6.52-7.1c0.64-1.28,0.93-2.49,1-3.89
				c-0.12,0.01-0.23,0.01-0.34,0.02c-1.25,0.11-2.47,0.06-3.67-0.35c-1.72-0.58-2.82-1.76-3.33-3.47c-0.49-1.63-0.66-3.29-0.16-4.94
				c0.67-2.22,2.1-3.65,4.46-4.04c2.39-0.39,4.64-0.15,6.59,1.4c2,1.58,3.32,3.65,3.93,6.12c0.96,3.85,0.43,7.56-1.36,11.07
				c-2.13,4.18-5.15,7.58-9.23,9.95c-2.3,1.34-4.82,1.97-7.48,2.24c-3.31,0.33-5.96-0.99-8.37-3.03c-1.22-1.03-2.3-2.2-2.98-3.68
				c-0.22-0.49-0.34-0.98-0.33-1.52c0.01-5.09,0.01-10.19,0.01-15.28c0-0.09,0-0.19,0-0.33c-0.16-0.01-0.3-0.02-0.44-0.02
				c-1.39,0-2.78,0-4.17-0.01c-0.17,0-0.38-0.07-0.49-0.18c-1.47-1.51-2.92-3.03-4.38-4.55
				C594.49,341.74,594.46,341.69,594.37,341.58z"/>
		</g>
	</g>
	<g>
		<g>
			<path class="st2" d="M40.64,144.95c5.21,0,10.29,0,15.46,0c0-0.25,0-0.46,0-0.67c0-4.89-0.01-9.79,0-14.68
				c0.01-3.56-2.03-5.08-4.98-5.69c-1.48-0.31-2.92-0.16-4.41,0.68c-0.89-1.99-1.89-3.91-2.6-5.93c-0.42-1.19,0.17-2.33,1.16-3.16
				c1.37-1.15,3.02-1.75,4.7-2.24c2.71-0.8,5.37-0.76,7.91,0.63c1.71,0.94,2.87,2.41,3.85,4.04c1.49,2.47,2.3,5.19,2.4,8.05
				c0.16,4.71,0.13,9.43,0.17,14.15c0.01,1.58,0,3.15,0,4.83c1.14,0,2.24,0.07,3.33-0.02c0.93-0.08,1.56,0.25,2.18,0.91
				c2.02,2.14,4.1,4.22,6.16,6.32c0.18,0.18,0.36,0.37,0.64,0.67c-4.17,0-8.21,0-12.32,0c0,0.8,0,1.51,0,2.22
				c0,6.67-0.01,13.34,0,20c0,3.68,2.57,6.43,6.23,6.93c3.36,0.46,6.4-0.3,9.19-2.11c4.46-2.89,8.05-6.59,10.44-11.38
				c1.02-2.04,1.49-3.99,1.6-6.23c-0.19,0.01-0.37,0.01-0.55,0.03c-2,0.18-3.96,0.09-5.89-0.56c-2.75-0.94-4.51-2.81-5.34-5.56
				c-0.79-2.61-1.06-5.27-0.26-7.91c1.08-3.56,3.36-5.85,7.15-6.46c3.82-0.62,7.43-0.24,10.56,2.24c3.2,2.54,5.32,5.84,6.3,9.8
				c1.53,6.17,0.69,12.11-2.18,17.73c-3.41,6.7-8.25,12.14-14.79,15.95c-3.69,2.15-7.73,3.16-11.98,3.59
				c-5.31,0.54-9.55-1.59-13.41-4.85c-1.96-1.65-3.69-3.52-4.78-5.9c-0.36-0.78-0.54-1.57-0.53-2.44
				c0.02-8.16,0.01-16.32,0.01-24.48c0-0.15,0-0.3,0-0.53c-0.26-0.01-0.48-0.03-0.71-0.03c-2.23,0-4.46,0.01-6.69-0.02
				c-0.27,0-0.61-0.11-0.79-0.29c-2.35-2.42-4.69-4.86-7.02-7.3C40.84,145.2,40.79,145.13,40.64,144.95z"/>
		</g>
	</g>
	<g>
		<path class="st2" d="M506.24,189.64H431.7c-8.75,0-15.91-7.16-15.91-15.91v-12c0-8.75,7.16-15.91,15.91-15.91h74.54
			c8.75,0,15.91,7.16,15.91,15.91v12.01C522.15,182.48,514.99,189.64,506.24,189.64z"/>
		<path class="st2" d="M428.63,183.03v24.18l27.87-27.87C456.5,179.34,429.2,183.03,428.63,183.03z"/>
		<path class="st3" d="M503.16,185.3h-68.38c-7.42,0-13.49-6.07-13.49-13.49v-8.16c0-7.42,6.07-13.49,13.49-13.49h68.38
			c7.42,0,13.49,6.07,13.49,13.49v8.16C516.65,179.22,510.58,185.3,503.16,185.3z"/>
		<path class="st1" d="M473.22,158.85h-43.08c-1.04,0-1.89-0.85-1.89-1.89c0-1.04,0.85-1.89,1.89-1.89h43.08
			c1.04,0,1.89,0.85,1.89,1.89C475.11,158,474.26,158.85,473.22,158.85z"/>
		<path class="st1" d="M509.19,166.07h-79.87c-0.58,0-1.06-0.48-1.06-1.06v0c0-0.58,0.48-1.06,1.06-1.06h79.87
			c0.58,0,1.06,0.48,1.06,1.06v0C510.25,165.59,509.77,166.07,509.19,166.07z"/>
		<path class="st1" d="M509.19,170.18h-79.87c-0.58,0-1.06-0.48-1.06-1.06l0,0c0-0.58,0.48-1.06,1.06-1.06h79.87
			c0.58,0,1.06,0.48,1.06,1.06v0C510.25,169.7,509.77,170.18,509.19,170.18z"/>
		<g>
			<path class="st1" d="M489.3,181.71h-0.46c-1.15,0-2.08-0.93-2.08-2.08l0,0c0-1.15,0.93-2.08,2.08-2.08h0.46
				c1.15,0,2.08,0.93,2.08,2.08l0,0C491.38,180.78,490.45,181.71,489.3,181.71z"/>
			<path class="st1" d="M497.7,181.71h-0.46c-1.15,0-2.08-0.93-2.08-2.08l0,0c0-1.15,0.93-2.08,2.08-2.08h0.46
				c1.15,0,2.08,0.93,2.08,2.08l0,0C499.77,180.78,498.84,181.71,497.7,181.71z"/>
			<path class="st1" d="M506.09,181.71h-0.46c-1.15,0-2.08-0.93-2.08-2.08v0c0-1.15,0.93-2.08,2.08-2.08h0.46
				c1.15,0,2.08,0.93,2.08,2.08l0,0C508.17,180.78,507.24,181.71,506.09,181.71z"/>
		</g>
	</g>
	<g>
		<path class="st4" d="M741.42,397.07c0.23-0.82,0.4-1.67,0.5-2.54l-2.62-1.18c0.01-0.25,0.02-0.5,0.02-0.75
			c0-0.7-0.05-1.38-0.15-2.05l2.5-1.42c-0.18-0.85-0.43-1.68-0.73-2.48l-2.87,0.17c-0.39-0.86-0.87-1.67-1.42-2.42l1.55-2.42
			c-0.55-0.66-1.16-1.28-1.8-1.85l-2.46,1.48c-0.74-0.57-1.53-1.07-2.38-1.48l0.25-2.86c-0.79-0.33-1.61-0.6-2.46-0.8l-1.49,2.46
			c-0.78-0.14-1.59-0.21-2.42-0.21c-0.13,0-0.26,0-0.38,0.01l-1.11-2.65c-0.87,0.08-1.72,0.22-2.55,0.43l-0.17,2.87
			c-0.9,0.29-1.76,0.66-2.57,1.12l-2.21-1.83c-0.73,0.47-1.41,0.99-2.05,1.57l1.18,2.62c-0.66,0.67-1.25,1.4-1.76,2.18l-2.81-0.59
			c-0.42,0.75-0.79,1.53-1.09,2.34l2.26,1.77c-0.27,0.88-0.45,1.8-0.54,2.75l-2.76,0.78c-0.01,0.17-0.01,0.34-0.01,0.51
			c0,0.7,0.04,1.39,0.13,2.07l2.82,0.52c0.18,0.93,0.45,1.83,0.8,2.69l-2.08,1.98c0.38,0.78,0.82,1.52,1.31,2.23l2.74-0.85
			c0.58,0.73,1.24,1.41,1.96,2.01l-0.93,2.72c0.69,0.51,1.42,0.97,2.19,1.37l2.03-2.03c0.85,0.38,1.74,0.67,2.67,0.87l0.44,2.84
			c0.82,0.12,1.65,0.19,2.51,0.19c0.02,0,0.05,0,0.07,0l0.85-2.74c0.95-0.06,1.88-0.22,2.77-0.47l1.71,2.31
			c0.82-0.28,1.61-0.63,2.37-1.03l-0.52-2.82c0.8-0.49,1.55-1.06,2.23-1.7l2.59,1.25c0.59-0.63,1.13-1.3,1.62-2.01l-1.77-2.26
			c0.48-0.8,0.88-1.65,1.19-2.54L741.42,397.07z M725.44,399.43c-3.77,0-6.83-3.06-6.83-6.83c0-3.77,3.06-6.83,6.83-6.83
			s6.83,3.06,6.83,6.83C732.27,396.38,729.21,399.43,725.44,399.43z"/>
		<g>
			<path class="st3" d="M715.78,400.05c-0.05,0-0.11-0.02-0.14-0.07c-0.39-0.52-0.74-1.08-1.04-1.66c-0.05-0.09-0.01-0.19,0.08-0.24
				c0.09-0.05,0.19-0.01,0.24,0.08c0.29,0.56,0.63,1.1,1.01,1.61c0.06,0.08,0.04,0.19-0.04,0.25
				C715.85,400.03,715.81,400.05,715.78,400.05z"/>
		</g>
		<g>
			<path class="st3" d="M723.96,404.86c-0.01,0-0.02,0-0.02,0c-2.14-0.28-4.17-1.12-5.89-2.44c-0.08-0.06-0.09-0.17-0.03-0.25
				c0.06-0.08,0.17-0.09,0.25-0.03c1.67,1.28,3.64,2.1,5.72,2.37c0.1,0.01,0.17,0.1,0.15,0.2
				C724.12,404.8,724.05,404.86,723.96,404.86z"/>
		</g>
	</g>
	<rect x="316.26" y="210.65" class="st1" width="259.05" height="143.72"/>
	<rect x="319.11" y="213.78" class="st3" width="248.79" height="130.9"/>
	<g class="st5">
		<g>
			<path class="st1" d="M558.99,334.4H323.04c-0.31,0-0.57-0.26-0.57-0.57v-118.2c0-0.31,0.26-0.57,0.57-0.57h235.94
				c0.31,0,0.57,0.26,0.57,0.57v118.2C559.56,334.15,559.3,334.4,558.99,334.4z M323.61,333.27h234.8V216.2h-234.8V333.27z"/>
		</g>
		<g>
			<path class="st1" d="M558.99,314.7H323.04c-0.31,0-0.57-0.26-0.57-0.57s0.26-0.57,0.57-0.57h235.94c0.31,0,0.57,0.26,0.57,0.57
				S559.3,314.7,558.99,314.7z"/>
		</g>
		<g>
			<path class="st1" d="M558.99,295H323.04c-0.31,0-0.57-0.26-0.57-0.57c0-0.31,0.26-0.57,0.57-0.57h235.94
				c0.31,0,0.57,0.26,0.57,0.57C559.56,294.75,559.3,295,558.99,295z"/>
		</g>
		<g>
			<path class="st1" d="M558.99,275.3H323.04c-0.31,0-0.57-0.26-0.57-0.57s0.26-0.57,0.57-0.57h235.94c0.31,0,0.57,0.26,0.57,0.57
				S559.3,275.3,558.99,275.3z"/>
		</g>
		<g>
			<path class="st1" d="M558.99,255.6H323.04c-0.31,0-0.57-0.26-0.57-0.57c0-0.31,0.26-0.57,0.57-0.57h235.94
				c0.31,0,0.57,0.26,0.57,0.57C559.56,255.35,559.3,255.6,558.99,255.6z"/>
		</g>
		<g>
			<path class="st1" d="M558.99,235.9H323.04c-0.31,0-0.57-0.26-0.57-0.57s0.26-0.57,0.57-0.57h235.94c0.31,0,0.57,0.26,0.57,0.57
				S559.3,235.9,558.99,235.9z"/>
		</g>
		<g>
			<path class="st1" d="M519.66,334.4c-0.31,0-0.57-0.26-0.57-0.57v-118.2c0-0.31,0.26-0.57,0.57-0.57c0.31,0,0.57,0.26,0.57,0.57
				v118.2C520.23,334.15,519.98,334.4,519.66,334.4z"/>
		</g>
		<g>
			<path class="st1" d="M480.34,334.4c-0.31,0-0.57-0.26-0.57-0.57v-118.2c0-0.31,0.26-0.57,0.57-0.57s0.57,0.26,0.57,0.57v118.2
				C480.91,334.15,480.65,334.4,480.34,334.4z"/>
		</g>
		<g>
			<path class="st1" d="M441.02,334.4c-0.31,0-0.57-0.26-0.57-0.57v-118.2c0-0.31,0.26-0.57,0.57-0.57s0.57,0.26,0.57,0.57v118.2
				C441.59,334.15,441.33,334.4,441.02,334.4z"/>
		</g>
		<g>
			<path class="st1" d="M401.69,334.4c-0.31,0-0.57-0.26-0.57-0.57v-118.2c0-0.31,0.26-0.57,0.57-0.57c0.31,0,0.57,0.26,0.57,0.57
				v118.2C402.26,334.15,402.01,334.4,401.69,334.4z"/>
		</g>
		<g>
			<path class="st1" d="M362.37,334.4c-0.31,0-0.57-0.26-0.57-0.57v-118.2c0-0.31,0.26-0.57,0.57-0.57c0.31,0,0.57,0.26,0.57,0.57
				v118.2C362.94,334.15,362.68,334.4,362.37,334.4z"/>
		</g>
	</g>
	<g>
		<path class="st2" d="M278.22,283.66h-23.67V163.51c0-5.45,4.42-9.87,9.87-9.87h69.24c5.45,0,9.87,4.42,9.87,9.87v54.84
			C343.52,254.42,314.28,283.66,278.22,283.66z"/>
		<path class="st3" d="M278.49,280.06h-22.94V165.21c0-5.18,4.2-9.37,9.37-9.37h66.23c5.18,0,9.37,4.2,9.37,9.37v52.81
			C340.52,252.28,312.75,280.06,278.49,280.06z"/>
		<path class="st1" d="M305.56,254.57v-2.24c0-1.77-1.24-3.2-2.76-3.2h-85.22c-1.53,0-2.76,1.43-2.76,3.2v2.24
			c0,15.88,11.12,28.75,24.84,28.75h87.07C313,283.32,305.37,271.9,305.56,254.57z"/>
		<path class="st3" d="M303.46,256.8v-1.81c0-1.43-1.16-2.59-2.59-2.59h-79.8c-1.43,0-2.59,1.16-2.59,2.59v1.81
			c0,12.85,10.41,23.26,23.26,23.26h84.98C313.87,280.06,303.46,273.84,303.46,256.8z"/>
		<g>
			<path class="st1" d="M331.6,207.67h-60.7c-1.92,0-3.48-1.56-3.48-3.48v-32.98c0-1.92,1.56-3.48,3.48-3.48h60.7
				c1.92,0,3.48,1.56,3.48,3.48v32.98C335.09,206.1,333.53,207.67,331.6,207.67z M270.91,168.86c-1.29,0-2.34,1.05-2.34,2.34v32.98
				c0,1.29,1.05,2.34,2.34,2.34h60.7c1.29,0,2.34-1.05,2.34-2.34v-32.98c0-1.29-1.05-2.34-2.34-2.34H270.91z"/>
		</g>
		<path class="st2" d="M311.43,223.67h-66.72c-0.95,0-1.72-0.78-1.72-1.72c0-0.95,0.78-1.72,1.72-1.72h66.72
			c0.95,0,1.72,0.78,1.72,1.72C313.15,222.9,312.38,223.67,311.43,223.67z"/>
		<path class="st2" d="M311.43,229.96h-66.72c-0.95,0-1.72-0.78-1.72-1.72c0-0.95,0.78-1.72,1.72-1.72h66.72
			c0.95,0,1.72,0.78,1.72,1.72C313.15,229.19,312.38,229.96,311.43,229.96z"/>
		<path class="st2" d="M311.43,236.03h-66.72c-0.95,0-1.72-0.78-1.72-1.72c0-0.95,0.78-1.72,1.72-1.72h66.72
			c0.95,0,1.72,0.78,1.72,1.72C313.15,235.26,312.38,236.03,311.43,236.03z"/>
		<g>
			<path class="st1" d="M314.12,176.51h-0.39c-0.98,0-1.77-0.79-1.77-1.77l0,0c0-0.98,0.79-1.77,1.77-1.77h0.39
				c0.98,0,1.77,0.79,1.77,1.77l0,0C315.89,175.72,315.1,176.51,314.12,176.51z"/>
			<path class="st1" d="M321.27,176.51h-0.39c-0.98,0-1.77-0.79-1.77-1.77l0,0c0-0.98,0.79-1.77,1.77-1.77h0.39
				c0.98,0,1.77,0.79,1.77,1.77l0,0C323.04,175.72,322.25,176.51,321.27,176.51z"/>
			<path class="st1" d="M328.43,176.51h-0.39c-0.98,0-1.77-0.79-1.77-1.77l0,0c0-0.98,0.79-1.77,1.77-1.77h0.39
				c0.98,0,1.77,0.79,1.77,1.77l0,0C330.2,175.72,329.41,176.51,328.43,176.51z"/>
		</g>
		<rect x="274.06" y="187.69" class="st1" width="8.98" height="14.83"/>
		<rect x="298.83" y="188.93" class="st1" width="8.98" height="13.6"/>
		<rect x="313.15" y="182.86" class="st1" width="8.98" height="19.67"/>
		<rect x="286.2" y="193.54" class="st1" width="8.98" height="8.98"/>
	</g>
	<g>
		<path class="st1" d="M776.58,320.86h31.98c0,17.54-14.44,31.98-31.98,31.98c-17.54,0-31.98-14.44-31.98-31.98
			c0-17.54,14.44-31.98,31.98-31.98V320.86z"/>
		<g>
			<path class="st1" d="M813.92,316.39c0-17.66-14.32-31.98-31.98-31.98v31.98H813.92z"/>
			<path class="st1" d="M749.96,316.39c0,17.66,14.32,31.98,31.98,31.98C764.39,348.37,749.96,333.93,749.96,316.39z"/>
			<path class="st1" d="M781.94,284.41c-17.66,0-31.98,14.32-31.98,31.98C749.96,298.84,764.39,284.41,781.94,284.41z"/>
			<path class="st1" d="M781.94,348.37c17.66,0,31.98-14.32,31.98-31.98C813.92,333.93,799.48,348.37,781.94,348.37z"/>
		</g>
	</g>
	<g>
		<circle class="st2" cx="233.52" cy="283.32" r="15.3"/>
		<g>
			<path class="st3" d="M232,288.67c-0.01,0-0.02,0-0.03,0c-0.23-0.01-0.45-0.11-0.61-0.29l-4.16-4.72
				c-0.31-0.35-0.28-0.89,0.08-1.21c0.35-0.31,0.89-0.28,1.21,0.08l3.56,4.05l8.24-8.06c0.34-0.33,0.88-0.32,1.21,0.01
				c0.33,0.34,0.32,0.88-0.01,1.21l-8.88,8.69C232.44,288.58,232.23,288.67,232,288.67z"/>
		</g>
	</g>
	<g>
		<rect x="17.32" y="191.18" class="st1" width="10.19" height="55.57"/>
		<rect x="60.48" y="207.35" class="st1" width="10.19" height="39.4"/>
		<rect x="82.07" y="191.18" class="st1" width="10.19" height="55.57"/>
		<rect x="103.65" y="227.05" class="st1" width="10.19" height="19.7"/>
		<rect x="38.9" y="174.26" class="st1" width="10.19" height="72.48"/>
		<rect x="125.31" y="207.35" class="st1" width="10.19" height="39.4"/>
	</g>
	<g>
		<rect x="644.04" y="196.21" class="st1" width="10.19" height="29.47"/>
		<rect x="774.6" y="205.8" class="st1" width="10.19" height="19.88"/>
		<rect x="687.21" y="156.73" class="st1" width="10.19" height="68.96"/>
		<rect x="708.79" y="194.69" class="st1" width="10.19" height="31"/>
		<rect x="730.38" y="185.92" class="st1" width="10.19" height="39.77"/>
		<rect x="665.63" y="176.75" class="st1" width="10.19" height="48.93"/>
		<rect x="752.03" y="165.42" class="st1" width="10.19" height="60.27"/>
	</g>
	<g>
		<defs>
			<path id="SVGID_1_" d="M119.4,320.08c-22.38,0-40.53,18.15-40.53,40.53c0,22.38,18.15,40.53,40.53,40.53s40.53-18.15,40.53-40.53
				C159.93,338.23,141.79,320.08,119.4,320.08z M119.4,382.08c-11.86,0-21.47-9.61-21.47-21.47c0-11.86,9.61-21.47,21.47-21.47
				s21.47,9.61,21.47,21.47C140.87,372.47,131.26,382.08,119.4,382.08z"/>
		</defs>
		<clipPath id="SVGID_00000129171164915197312110000004617315309308541577_">
			<use xlink:href="#SVGID_1_"  style="overflow:visible;"/>
		</clipPath>
		<path style="clip-path:url(#SVGID_00000129171164915197312110000004617315309308541577_);fill:#9EC8FF;" d="M156.03,383.01
			l-36.63-22.4l-6.63,42.42C129.98,405.74,147.05,397.68,156.03,383.01z"/>
		<path style="clip-path:url(#SVGID_00000129171164915197312110000004617315309308541577_);fill:#9EC8FF;" d="M156.07,382.96
			c0.1-0.16,0.23-0.38,0.22-0.38c7.74-12.96,8.05-29.06,0.95-42.27c-12.96,6.79-5.24,2.67-37.84,20.29
			C156.09,383.05,150.39,379.59,156.07,382.96z"/>
		<path style="clip-path:url(#SVGID_00000129171164915197312110000004617315309308541577_);fill:#9EC8FF;" d="M79.13,345.77
			l40.27,14.84l37.77-20.43C139.51,307.51,91.95,311.43,79.13,345.77z"/>
		<path style="clip-path:url(#SVGID_00000129171164915197312110000004617315309308541577_);fill:#9EC8FF;" d="M112.78,403.03
			l6.63-42.42l-40.27-14.84C69.56,371.44,86.55,398.9,112.78,403.03z"/>
		<path style="clip-path:url(#SVGID_00000129171164915197312110000004617315309308541577_);fill:#E7F3FE;" d="M157.97,382.52
			c7.28-12.8,7.69-28.59,1.11-41.75l0.02-0.01l-0.68-1.25c-0.01-0.03-0.03-0.05-0.04-0.08l-0.55-1.03l-0.02,0.01
			c-4.27-7.43-10.37-13.35-17.7-17.17c-7.18-3.74-15.34-5.41-23.6-4.84c-17.22,1.2-31.72,11.71-38.19,27.55l-0.02-0.01l-0.5,1.33
			l-0.5,1.34l0.02,0.01c-4.05,12.02-2.71,25.14,3.75,36.2c6.57,11.25,17.47,18.97,30.07,21.37l0,0.02l1.4,0.22
			c0,0,1.41,0.22,1.41,0.22l0-0.02c1.82,0.23,3.65,0.34,5.47,0.34c6.41,0,12.75-1.4,18.65-4.15c7.55-3.52,13.9-9.02,18.43-15.95
			l0.03,0.02l0.28-0.46c0.01,0,0.45-0.74,0.45-0.74c0.07-0.11,0.15-0.26,0.2-0.34l0.03-0.05c0.01-0.01,0.01-0.03,0.02-0.04
			l0.45-0.74L157.97,382.52z M153.68,343.79c0.84-0.44,1.81-0.95,2.96-1.55c6.04,12.23,5.64,26.87-1.07,38.76
			c0,0-0.27-0.16-0.27-0.16c-1.5-0.89-2.15-1.27-5.13-3.09l-27.91-17.07l23.17-12.53C148.83,346.33,150.22,345.6,153.68,343.79z
			 M80.99,344.94c6.07-14.78,19.63-24.57,35.71-25.69c15.89-1.1,30.52,6.67,38.52,20.37l-11.16,6.03c-2.3,1.24-5.52,2.98-10.91,5.9
			c-3.45,1.87-7.8,4.22-13.36,7.23l-0.34,0.19l-1.12-0.69l-0.06,0.39l-17.64-6.5L80.99,344.94z M83.54,381.38
			c-6.03-10.32-7.3-22.55-3.54-33.77l26.52,9.77l11.29,4.16l-6.22,39.84C99.84,399.11,89.67,391.88,83.54,381.38z M114.41,401.82
			l6.07-38.88l15.8,9.67c6.37,3.9,10.02,6.13,12.31,7.53l5.46,3.34C145.35,396.67,130.06,403.75,114.41,401.82z"/>
	</g>
	<path class="st1" d="M105.04,421.37c0,7.06-5.72,12.79-12.79,12.79c-7.06,0-12.79-5.72-12.79-12.79s5.72-12.79,12.79-12.79
		C99.31,408.58,105.04,414.31,105.04,421.37z"/>
	<path class="st3" d="M101.66,421.94c0,3.54-2.87,6.41-6.41,6.41c-3.54,0-6.41-2.87-6.41-6.41c0-3.54,2.87-6.41,6.41-6.41
		C98.79,415.52,101.66,418.39,101.66,421.94z"/>
	<path class="st1" d="M671.22,372.33L671.22,372.33c-13.37,0-24.31-10.94-24.31-24.31v0c0-13.37,10.94-24.31,24.31-24.31h0
		c13.37,0,24.31,10.94,24.31,24.31v0C695.53,361.39,684.59,372.33,671.22,372.33z"/>
	<g>
		<path class="st2" d="M701.88,381.2h-31.74c-5.44,0-9.87-4.43-9.87-9.87v-31.74c0-5.44,4.43-9.87,9.87-9.87h31.74
			c5.44,0,9.87,4.43,9.87,9.87v31.74C711.74,376.77,707.32,381.2,701.88,381.2z M670.13,332.57c-3.87,0-7.02,3.15-7.02,7.02v31.74
			c0,3.87,3.15,7.02,7.02,7.02h31.74c3.87,0,7.02-3.15,7.02-7.02v-31.74c0-3.87-3.15-7.02-7.02-7.02H670.13z"/>
	</g>
	<path class="st2" d="M335.39,331.5c0,3.95-3.2,7.15-7.15,7.15s-7.15-3.2-7.15-7.15s3.2-7.15,7.15-7.15S335.39,327.54,335.39,331.5z
		"/>
	<path class="st1" d="M769.35,394.01c0,3.94-3.19,7.13-7.13,7.13c-3.94,0-7.13-3.19-7.13-7.13c0-3.94,3.19-7.13,7.13-7.13
		C766.16,386.88,769.35,390.07,769.35,394.01z"/>
	<path class="st1" d="M739.65,276.08c0,3.94-3.19,7.13-7.13,7.13c-3.94,0-7.13-3.19-7.13-7.13c0-3.94,3.19-7.13,7.13-7.13
		C736.46,268.95,739.65,272.15,739.65,276.08z"/>
	
		<ellipse transform="matrix(0.1602 -0.9871 0.9871 0.1602 332.8633 1125.3043)" class="st1" cx="827.75" cy="367.04" rx="5.56" ry="5.56"/>
	<g>
		<path class="st2" d="M671.15,295.76H564.71c-4.51,0-8.17-3.66-8.17-8.17v-39.15c0-4.51,3.66-8.17,8.17-8.17h106.44
			c4.51,0,8.17,3.66,8.17,8.17v39.15C679.32,292.11,675.67,295.76,671.15,295.76z"/>
		<path class="st3" d="M669.37,293.16H566.5c-3.64,0-6.6-2.95-6.6-6.6v-25.11c0-3.64,2.95-6.6,6.6-6.6h102.87
			c3.64,0,6.6,2.95,6.6,6.6v25.11C675.97,290.21,673.01,293.16,669.37,293.16z"/>
		<g>
			<path class="st3" d="M564.25,248.69h-0.48c-1.2,0-2.16-0.97-2.16-2.16v0c0-1.2,0.97-2.16,2.16-2.16h0.48
				c1.2,0,2.16,0.97,2.16,2.16v0C566.41,247.72,565.44,248.69,564.25,248.69z"/>
			<path class="st3" d="M572.99,248.69h-0.48c-1.2,0-2.16-0.97-2.16-2.16v0c0-1.2,0.97-2.16,2.16-2.16h0.48
				c1.2,0,2.16,0.97,2.16,2.16v0C575.16,247.72,574.19,248.69,572.99,248.69z"/>
			<path class="st3" d="M581.74,248.69h-0.48c-1.2,0-2.16-0.97-2.16-2.16l0,0c0-1.2,0.97-2.16,2.16-2.16h0.48
				c1.2,0,2.16,0.97,2.16,2.16l0,0C583.9,247.72,582.94,248.69,581.74,248.69z"/>
		</g>
		<path class="st1" d="M671.24,263.25h-61.39c-1.01,0-1.84-0.83-1.84-1.84c0-1.01,0.83-1.84,1.84-1.84h61.39
			c1.01,0,1.84,0.83,1.84,1.84C673.08,262.42,672.25,263.25,671.24,263.25z"/>
		<path class="st1" d="M625.07,291.59h-61.39c-1.01,0-1.84-0.83-1.84-1.84c0-1.01,0.83-1.84,1.84-1.84h61.39
			c1.01,0,1.84,0.83,1.84,1.84C626.9,290.76,626.08,291.59,625.07,291.59z"/>
		<path class="st1" d="M635.17,291.59h-3.94c-1.01,0-1.84-0.83-1.84-1.84l0,0c0-1.01,0.83-1.84,1.84-1.84h3.94
			c1.01,0,1.84,0.83,1.84,1.84v0C637.01,290.76,636.18,291.59,635.17,291.59z"/>
		<path class="st1" d="M644.75,291.59h-3.94c-1.01,0-1.84-0.83-1.84-1.84v0c0-1.01,0.83-1.84,1.84-1.84h3.94
			c1.01,0,1.84,0.83,1.84,1.84l0,0C646.58,290.76,645.76,291.59,644.75,291.59z"/>
		<path class="st1" d="M671.83,271.25H570.17c-0.69,0-1.25-0.56-1.25-1.25c0-0.69,0.56-1.25,1.25-1.25h101.67
			c0.69,0,1.25,0.56,1.25,1.25C673.08,270.69,672.52,271.25,671.83,271.25z"/>
		<path class="st1" d="M671.83,276.63H570.17c-0.69,0-1.25-0.56-1.25-1.25c0-0.69,0.56-1.25,1.25-1.25h101.67
			c0.69,0,1.25,0.56,1.25,1.25C673.08,276.07,672.52,276.63,671.83,276.63z"/>
	</g>
	
		<ellipse transform="matrix(0.2298 -0.9732 0.9732 0.2298 -258.8092 240.2962)" class="st1" cx="22.41" cy="283.66" rx="14.1" ry="14.1"/>
	<path class="st1" d="M146.01,280.39H44.67c-1.04,0-1.88-0.85-1.88-1.88c0-1.04,0.85-1.88,1.88-1.88h101.34
		c1.04,0,1.88,0.85,1.88,1.88C147.89,279.55,147.04,280.39,146.01,280.39z"/>
	<path class="st1" d="M146.01,289.79H44.67c-1.04,0-1.88-0.85-1.88-1.88c0-1.04,0.85-1.88,1.88-1.88h101.34
		c1.04,0,1.88,0.85,1.88,1.88C147.89,288.95,147.04,289.79,146.01,289.79z"/>
	<g>
		<path class="st4" d="M627.21,381.31c0.09-0.84,0.14-1.7,0.14-2.57c0-0.46-0.02-0.91-0.04-1.37l-4.25-1.38
			c-0.26-1.79-0.78-3.5-1.51-5.09l2.82-3.47c-0.65-1.15-1.4-2.23-2.23-3.25l-4.25,1.39c-1.24-1.27-2.65-2.36-4.21-3.23l0.24-4.47
			c-1.19-0.54-2.43-0.98-3.71-1.32l-2.62,3.62c-1.02-0.17-2.07-0.26-3.15-0.26c-0.73,0-1.45,0.04-2.16,0.12l-2.43-3.76
			c-1.3,0.26-2.56,0.64-3.78,1.12l0.01,4.47c-1.6,0.8-3.07,1.81-4.37,3.01l-4.17-1.61c-0.89,0.97-1.69,2.01-2.4,3.12l2.63,3.61
			c-0.81,1.55-1.42,3.23-1.77,5.01l-4.32,1.15c-0.09,0.84-0.14,1.7-0.14,2.57c0,0.46,0.02,0.91,0.04,1.37l4.25,1.38
			c0.26,1.79,0.78,3.5,1.5,5.09l-2.82,3.47c0.65,1.15,1.4,2.23,2.23,3.25l4.25-1.39c1.24,1.27,2.65,2.36,4.21,3.23l-0.24,4.47
			c1.19,0.54,2.43,0.98,3.71,1.32l2.62-3.62c1.02,0.17,2.07,0.26,3.15,0.26c0.73,0,1.45-0.04,2.16-0.12l2.43,3.76
			c1.3-0.26,2.56-0.64,3.78-1.12l-0.01-4.47c1.6-0.8,3.07-1.81,4.37-3.01l4.17,1.61c0.89-0.97,1.69-2.01,2.4-3.12l-2.63-3.61
			c0.81-1.55,1.42-3.23,1.77-5.01L627.21,381.31z M604.44,387.72c-4.96,0-8.99-4.02-8.99-8.99c0-4.96,4.02-8.99,8.99-8.99
			c4.96,0,8.99,4.02,8.99,8.99C613.43,383.7,609.4,387.72,604.44,387.72z"/>
		<g>
			<path class="st3" d="M616.7,389.11c-0.1,0-0.21-0.04-0.3-0.11c-0.2-0.16-0.22-0.46-0.06-0.65c2.24-2.69,3.47-6.11,3.47-9.62
				c0-1.68-0.27-3.33-0.82-4.9c-0.08-0.24,0.05-0.51,0.29-0.59c0.24-0.08,0.51,0.05,0.59,0.29c0.58,1.67,0.87,3.42,0.87,5.2
				c0,3.72-1.31,7.35-3.69,10.21C616.96,389.05,616.83,389.11,616.7,389.11z"/>
		</g>
		<g>
			<path class="st3" d="M615.39,367.9c-0.11,0-0.23-0.04-0.32-0.13c-1.51-1.42-3.25-2.49-5.18-3.19c-0.24-0.09-0.36-0.35-0.28-0.59
				c0.09-0.24,0.35-0.36,0.59-0.28c2.05,0.74,3.9,1.88,5.5,3.39c0.19,0.18,0.19,0.47,0.02,0.65
				C615.64,367.85,615.52,367.9,615.39,367.9z"/>
		</g>
		<g>
			<path class="st3" d="M600.95,364.16c-0.21,0-0.4-0.14-0.45-0.35c-0.06-0.25,0.09-0.5,0.34-0.56c1.28-0.32,2.59-0.49,3.92-0.49
				c0.26,0,0.46,0.21,0.46,0.46c0,0.26-0.21,0.46-0.46,0.46c-1.25,0-2.49,0.15-3.7,0.46C601.03,364.15,600.99,364.16,600.95,364.16z
				"/>
		</g>
	</g>
	<g>
		<g>
			<path class="st2" d="M323.04,334.97c-0.29,0-0.57-0.11-0.8-0.32c-0.45-0.44-0.46-1.16-0.02-1.61l57.66-59.1
				c0.43-0.44,1.14-0.46,1.6-0.04l20.18,18.94l38.54-38.62c0.44-0.44,1.15-0.45,1.6-0.02l19.64,18.91l18.07-18.88
				c0.21-0.22,0.5-0.35,0.81-0.35c0.3,0,0.6,0.12,0.82,0.33l38.2,38.28l38.62-77.38c0.28-0.56,0.97-0.79,1.53-0.51
				c0.56,0.28,0.79,0.97,0.51,1.53l-39.32,78.8c-0.16,0.33-0.48,0.56-0.84,0.62c-0.36,0.06-0.73-0.06-0.99-0.32l-38.5-38.58
				l-18.05,18.86c-0.21,0.22-0.5,0.35-0.8,0.35c-0.3,0.01-0.6-0.11-0.81-0.32l-19.66-18.92l-38.53,38.61
				c-0.44,0.44-1.14,0.45-1.59,0.03l-20.17-18.94l-56.88,58.3C323.64,334.86,323.34,334.97,323.04,334.97z"/>
		</g>
	</g>
	<g>
		<g>
			<path class="st2" d="M323.04,334.97c-0.42,0-0.82-0.23-1.02-0.63c-0.28-0.56-0.05-1.25,0.51-1.53l39.17-19.62l20.2-19.44
				l18.76-39.22c0.07-0.14,0.16-0.26,0.27-0.36l21.33-19c0.27-0.24,0.64-0.34,0.99-0.27c0.35,0.07,0.65,0.31,0.8,0.64l17.98,38.66
				l21.36,37.95l16.09-18.48c0.21-0.24,0.51-0.38,0.82-0.39c0.32-0.02,0.62,0.11,0.85,0.34l18.3,18.39l19.13-57.35
				c0.06-0.17,0.15-0.32,0.27-0.44l39.32-39.4c0.44-0.45,1.17-0.45,1.61,0c0.45,0.44,0.45,1.17,0,1.61l-39.13,39.21l-19.63,58.85
				c-0.13,0.38-0.44,0.66-0.82,0.75c-0.38,0.09-0.79-0.03-1.07-0.31l-18.74-18.83l-16.34,18.78c-0.24,0.28-0.61,0.42-0.98,0.39
				c-0.37-0.04-0.7-0.25-0.88-0.57l-22.18-39.4c-0.01-0.03-0.03-0.05-0.04-0.08l-17.35-37.31l-20.01,17.83l-18.75,39.19
				c-0.06,0.12-0.14,0.23-0.24,0.33l-20.47,19.7c-0.08,0.08-0.18,0.15-0.28,0.2l-39.32,19.7
				C323.39,334.94,323.22,334.97,323.04,334.97z"/>
		</g>
	</g>
	
		<ellipse transform="matrix(0.9732 -0.2298 0.2298 0.9732 -52.9325 94.8493)" class="st2" cx="380.85" cy="274.73" rx="2.84" ry="2.84"/>
	<circle class="st2" cx="480.34" cy="255.03" r="2.84"/>
	<circle class="st2" cx="519.66" cy="255.03" r="2.84"/>
	
		<ellipse transform="matrix(0.9732 -0.2298 0.2298 0.9732 -42.9127 103.503)" class="st2" cx="423.02" cy="236.03" rx="2.84" ry="2.84"/>
	<circle class="st2" cx="441.02" cy="255.03" r="2.84"/>
</g>
</svg>
