<?xml version="1.0" encoding="UTF-8"?>
<svg id="Layer_1" data-name="Layer 1" xmlns="http://www.w3.org/2000/svg" viewBox="0 0 192.8 144">
  <defs>
    <style>
      .cls-1 {
        fill: gray;
      }
    </style>
  </defs>
  <path class="cls-1" d="m187.96,82.14c.06-14.59-.13-29.2.08-43.79-.45-2.98-12.81-.66-15.78-1.29-4.2.15-8.35-2.95-7.86-7.38-.06-4.42-.03-8.84-.04-13.26,0-3.11-.32-3.44-3.42-3.45-17.23.08-34.48-.41-51.63.53-7.18-1.08-5.63,6.65-5.82,11.22.07,2-2.38,1.56-2.51.02.24-5.01-1.78-12.9,5.17-14.05,16.02-.49,32.08-.09,48.11-.22,4.32.61,9.82-1.38,13.47,1.26,7.08,7.29,14.38,14.37,21.64,21.48,2.92,5.37.47,14.33,1.26,20.6.03,23.6.06,47.2.06,70.8.5,4.55-1.91,8.95-6.78,8.83-25.51.07-51.03.05-76.54.02-7.52-.18-6.63-8.5-6.45-13.88-.33-1.96,2.21-2.2,2.41-.64.68,3.79-1.46,10.83,3.87,11.51,24.49,1.26,49.09.18,73.62.49,3.92.35,7.86-1.49,7.25-6.03.01-14.26,0-28.52,0-42.78-.03,0-.06,0-.1,0Zm-10.53-48.11c2.49-.17,5.12.4,7.53-.3-5.25-6.13-11.33-12.65-17.74-17.48.37,10.33-4.38,19.57,10.21,17.78Z"/>
  <path class="cls-1" d="m2.39,81.33c0-15.1.01-30.19-.03-45.29,1.72-5.14,7.8-8.27,11.16-12.57,4.01-3.04,10.63-12.62,14.9-13.03,18.95.06,37.91.02,56.86.07,7.92.16,6.81,8.84,6.74,14.46.02,1.05-.56,1.13-1.33,1.14-2.53-.04-.82-6.53-1.28-8.54-.11-3.85-4.4-4.89-7.57-4.6-17.14.09-34.29-.22-51.43.18-4.42-.28.08,16.67-2.61,20.08-4.61,6.81-14.5,2.75-21.43,3.79-3.06-1.27-.83,16.39-1.48,18.97,0,23.26.03,46.53-.01,69.79-.12,4.75,4.35,5.11,8.05,5.07,14.6.03,29.2.05,43.8.08,5.86,0,11.72.03,17.58.04,4.84-.55,14.61,2.31,15.06-4.8.8-2.17-1.92-8.95,2.07-8.13.26.12.54.57.53.86-.09,5.64,1.59,14.44-6.68,14.59-16.04.04-32.07-.02-48.11-.01-47.49.01-32.28,6.27-34.79-52.14Zm5.26-47.75c.04.1.09.2.13.3,17.96.45,18.97,2.71,18.12-16.49.37-4.84-16.36,14.97-18.25,16.19Z"/>
  <path class="cls-1" d="m118.11,101.3c-3.4-.39-5.38-3.56-8.48-4.67-8.67-2.78-3.26,11.74-9.93,12.09-9.18.54-9.83.16-10.89-9.01-3.45-9.6-10.45,3.82-15.52.93-2.22-2.82-7.87-5.18-5.4-9.47,1.93-3.04,6.88-7.71,2.57-10.83-3.11-2.23-9.76-.11-10.74-4.67-.57-9.62-.24-9.97,9.26-11.46,9.6-3.4-5.24-10.94-.67-15.97,9.99-12.38,9.03.78,18.25-.98,3.86-2.01,1.91-7.89,4.28-11.17,2.52-1.5,6.27-.44,9.18-.74,4.35.41,3.05,6.54,4.33,9.59,3.24,6.96,9.05-1.35,13.4-2.08,1.51-.27,2.38.78,3.29,1.74,10.17,8.32-.04,8.28-.11,16.62.87,3.96,5.99,3.22,9.05,4.19,4.99.59,2.8,6.66,3.18,10.12-.06,1.98-.9,2.75-2.87,3.09-10.54,1.03-12.11,4.11-5.39,12.46,2.85,3.62-3.98,8.68-6.8,10.22Zm-.33-3.21c7.16-5.07,4.17-5.75.5-11.95-2.41-7.85,4.52-9.39,10.57-10.27,2.55-.65.85-4.25,1.3-6.16,0-.98-.47-1.56-1.43-1.57-2.89-.15-6.02-1.19-8.53-2.46-5.09-4.3-.93-9.84,1.97-14.04,1.32-1.91-1.97-3.15-2.89-4.55-2.69-2.98-6.22,2.88-9.29,3.39-6.78,1.93-9.04-5.47-9.42-10.74-.27-2.98-4.09-1.13-6.07-1.48-1.68.05-1.94.29-2.14,1.96-.19,11.56-8.37,13.13-16.19,6.02-2.14-1.2-3.57,2.51-5.18,3.53-2.25,3.48,10.02,9.69.83,16.52-6.51,3.09-9.98-1.54-9.13,7.97-.04,1.18.1,1.33,1.27,1.56,4.22,1.1,10.02.97,11,6.23,2.27,4.75-5.61,8.15-3.96,12.27,4.23,4.54,4.23,4.34,9.09.62,7.15-5.1,12.48,1.92,12.42,8.97.33,2.89,4.2,1.47,6.21,1.9,3.15-.3,1.96-6.13,3.2-8.44.36-2.26,2.31-2.92,4.26-3.59,4.31-2.27,7.79,3.01,11.62,4.32Z"/>
  <path class="cls-1" d="m61.32,116.35c1.11,1.81,12.23,5.35,6.94,7.06-4.32-1.17-7.85-4.39-11.79-6.46-2.52-1.52-5.38-2.37-1.43-4.64,1.7-.86,18.22-11.6,13.67-4.35-2.29,1.54-5.52,2.32-7.09,4.6,15.75,1.4,32.16.12,48.12.25,21.93-1.98,29.51-20.64,27.87-40.38-.21-2.39,2.74-2.03,2.54.07,2.18,18.87-5.36,38.52-25.76,42.57-17.57,1.5-35.35-.03-52.95.81-.04.16-.08.32-.12.48Z"/>
  <path class="cls-1" d="m131.64,31.1c-35.86,1.18-79.45-11.73-76.3,40.88,0,.69-.27,1.08-1.01,1.07-2.27.34-1.48-2.66-1.66-4.1-2.25-18.75,8.23-38.04,28.18-40.42,17.02-.99,34.27.65,51.23-.6-2.53-2.05-5.44-3.54-8.21-5.23-.7-.41-.44-.96-.3-1.5.38-1.55,2.24-.46,3.15-.04,3.95,2.32,7.89,4.65,11.81,7.03,3.47,2.29-2.97,4.31-4.52,5.61-2.69.82-8.45,6.74-10.61,4.06-.41-2.55,6.54-4.42,8.36-6.27-.04-.17-.09-.33-.13-.5Z"/>
  <path class="cls-1" d="m97.43,51.75c11.07-.31,13.28,8.61,4.96,3.64-25.92-7.62-33.26,32.3-6.07,34.14,13.78.05,22.24-15.25,15.22-26.32-.44-.73-.36-1.35.1-1.94,4.7-1.69,5.2,9.1,4.99,12.21-.45,19.47-27.92,25.71-37.64,9.26-8.27-13.17,1.89-32.32,18.44-30.99Z"/>
  <path class="cls-1" d="m110.93,58.56c.47,1.67-2.53,1.48-2.22-.02-.08-1.17.86-1.05,1.51-1.15.98-.14.6.71.71,1.17Z"/>
</svg>