<?xml version="1.0" encoding="utf-8"?>
<!-- Generator: Adobe Illustrator 27.5.0, SVG Export Plug-In . SVG Version: 6.00 Build 0)  -->
<svg version="1.1" id="Layer_1" xmlns="http://www.w3.org/2000/svg" xmlns:xlink="http://www.w3.org/1999/xlink" x="0px" y="0px"
	 viewBox="0 0 144 144" style="enable-background:new 0 0 144 144;" xml:space="preserve">
<style type="text/css">
	.st0{fill:#4670EA;stroke:#1F3741;stroke-width:0.5;stroke-miterlimit:10;}
	.st1{fill:#B9EDD6;}
	.st2{fill:#E6EAF6;stroke:#1F3741;stroke-width:0.5;stroke-miterlimit:10;}
	.st3{fill:#53A07C;}
	.st4{fill:#4B8C6B;}
	.st5{fill:#E23E3D;}
	.st6{opacity:0.3;}
	.st7{fill:#4670EA;}
	.st8{fill:#213740;}
	.st9{fill:#E6EAF6;}
	.st10{fill:#4670EA;stroke:#213741;stroke-width:0.5;stroke-miterlimit:10;}
	.st11{fill:#1F3741;}
	.st12{fill:#E6EAF6;stroke:#1F3741;stroke-width:0.75;stroke-miterlimit:10;}
	.st13{fill:#E6EAF6;stroke:#213740;stroke-width:0.5;stroke-miterlimit:10;}
	.st14{fill:#4670EA;stroke:#213740;stroke-width:0.5;stroke-miterlimit:10;}
	.st15{fill:none;stroke:#213740;stroke-width:0.25;stroke-miterlimit:10;}
	.st16{fill:none;stroke:#213740;stroke-width:0.25;stroke-miterlimit:10;stroke-dasharray:1.0502,1.0502;}
	.st17{fill:none;stroke:#213740;stroke-width:0.25;stroke-miterlimit:10;stroke-dasharray:1.0119,1.0119;}
	.st18{fill:none;stroke:#213740;stroke-width:0.25;stroke-miterlimit:10;stroke-dasharray:0.978,0.978;}
	.st19{fill:#4670EA;stroke:#1F3741;stroke-width:0.25;stroke-miterlimit:10;}
	.st20{fill:#E6EAF6;stroke:#1F3741;stroke-width:0.25;stroke-miterlimit:10;}
</style>
<g>
	<path class="st13" d="M117.9,31.5l-47.8-21c-0.5-0.2-1-0.2-1.5,0l-47.8,21c-0.7,0.3-1.1,1-1.1,1.7v24.2c0,32.5,19.2,61.9,48.9,74.9
		c0.2,0.1,0.5,0.2,0.8,0.2c0.3,0,0.5-0.1,0.8-0.2C99.8,119.4,119,90,119,57.5V33.3C119,32.5,118.6,31.8,117.9,31.5z"/>
	<path class="st7" d="M110.2,36.5L70.1,18.9c-0.5-0.2-1-0.2-1.5,0L28.5,36.5c-0.7,0.3-1.1,1-1.1,1.7v19.2
		c0,28.4,15.8,53.8,41.2,66.5c0.3,0.1,0.6,0.2,0.9,0.2c0.3,0,0.6-0.1,0.9-0.2c25.4-12.6,41.2-38.1,41.2-66.5V38.3
		C111.4,37.5,110.9,36.8,110.2,36.5z"/>
	<path class="st2" d="M69.9,46.7c-12.6-0.2-23.1,9.8-23.4,22.4c-0.3,12.6,9.8,23.1,22.4,23.4c0.2,0,0.3,0,0.5,0
		c12.4,0,22.6-10,22.9-22.4c0,0,0,0,0,0C92.5,57.4,82.5,46.9,69.9,46.7z"/>
	<g>
		<g>
			<path class="st7" d="M58.7,67.2c1.7,0,3.4,0,5.2,0c0-0.1,0-0.2,0-0.2c0-1.6,0-3.3,0-4.9c0-1.2-0.7-1.7-1.7-1.9
				c-0.5-0.1-1-0.1-1.5,0.2c-0.3-0.7-0.6-1.3-0.9-2c-0.1-0.4,0.1-0.8,0.4-1.1c0.5-0.4,1-0.6,1.6-0.7c0.9-0.3,1.8-0.3,2.6,0.2
				c0.6,0.3,1,0.8,1.3,1.3c0.5,0.8,0.8,1.7,0.8,2.7c0.1,1.6,0,3.1,0.1,4.7c0,0.5,0,1.1,0,1.6c0.4,0,0.7,0,1.1,0
				c0.3,0,0.5,0.1,0.7,0.3c0.7,0.7,1.4,1.4,2.1,2.1c0.1,0.1,0.1,0.1,0.2,0.2c-1.4,0-2.7,0-4.1,0c0,0.3,0,0.5,0,0.7
				c0,2.2,0,4.4,0,6.7c0,1.2,0.9,2.1,2.1,2.3c1.1,0.2,2.1-0.1,3.1-0.7c1.5-1,2.7-2.2,3.5-3.8c0.3-0.7,0.5-1.3,0.5-2.1
				c-0.1,0-0.1,0-0.2,0c-0.7,0.1-1.3,0-2-0.2c-0.9-0.3-1.5-0.9-1.8-1.9c-0.3-0.9-0.4-1.8-0.1-2.6c0.4-1.2,1.1-1.9,2.4-2.2
				c1.3-0.2,2.5-0.1,3.5,0.7c1.1,0.8,1.8,1.9,2.1,3.3c0.5,2.1,0.2,4-0.7,5.9c-1.1,2.2-2.7,4-4.9,5.3c-1.2,0.7-2.6,1.1-4,1.2
				c-1.8,0.2-3.2-0.5-4.5-1.6c-0.7-0.6-1.2-1.2-1.6-2c-0.1-0.3-0.2-0.5-0.2-0.8c0-2.7,0-5.4,0-8.2c0,0,0-0.1,0-0.2
				c-0.1,0-0.2,0-0.2,0c-0.7,0-1.5,0-2.2,0c-0.1,0-0.2,0-0.3-0.1c-0.8-0.8-1.6-1.6-2.3-2.4C58.8,67.3,58.8,67.3,58.7,67.2z"/>
		</g>
	</g>
</g>
</svg>
