<?xml version="1.0" encoding="utf-8"?>
<!-- Generator: Adobe Illustrator 27.5.0, SVG Export Plug-In . SVG Version: 6.00 Build 0)  -->
<svg version="1.1" id="Layer_1" xmlns="http://www.w3.org/2000/svg" xmlns:xlink="http://www.w3.org/1999/xlink" x="0px" y="0px"
	 viewBox="0 0 144 144" style="enable-background:new 0 0 144 144;" xml:space="preserve">
<style type="text/css">
	.st0{fill:#4670EA;stroke:#1F3741;stroke-width:0.5;stroke-miterlimit:10;}
	.st1{fill:#B9EDD6;}
	.st2{fill:#E6EAF6;stroke:#1F3741;stroke-width:0.5;stroke-miterlimit:10;}
	.st3{fill:#53A07C;}
	.st4{fill:#4B8C6B;}
	.st5{fill:#E23E3D;}
	.st6{opacity:0.3;}
	.st7{fill:#4670EA;}
	.st8{fill:#213740;}
	.st9{fill:#E6EAF6;}
	.st10{fill:#4670EA;stroke:#213741;stroke-width:0.5;stroke-miterlimit:10;}
	.st11{fill:#1F3741;}
	.st12{fill:#E6EAF6;stroke:#1F3741;stroke-width:0.75;stroke-miterlimit:10;}
	.st13{fill:#E6EAF6;stroke:#213740;stroke-width:0.5;stroke-miterlimit:10;}
	.st14{fill:#4670EA;stroke:#213740;stroke-width:0.5;stroke-miterlimit:10;}
	.st15{fill:none;stroke:#213740;stroke-width:0.25;stroke-miterlimit:10;}
	.st16{fill:none;stroke:#213740;stroke-width:0.25;stroke-miterlimit:10;stroke-dasharray:1.0502,1.0502;}
	.st17{fill:none;stroke:#213740;stroke-width:0.25;stroke-miterlimit:10;stroke-dasharray:1.0119,1.0119;}
	.st18{fill:none;stroke:#213740;stroke-width:0.25;stroke-miterlimit:10;stroke-dasharray:0.978,0.978;}
	.st19{fill:#4670EA;stroke:#1F3741;stroke-width:0.25;stroke-miterlimit:10;}
	.st20{fill:#E6EAF6;stroke:#1F3741;stroke-width:0.25;stroke-miterlimit:10;}
</style>
<g>
	<path class="st7" d="M119.3,98.3c-7.3,19.4-26,33.1-48,33.1c-21.9,0-40.6-13.8-48-33.1H119.3z"/>
</g>
<g>
	<path class="st8" d="M71.3,132.7c-10.9,0-21.3-3.3-30.2-9.5c-8.7-6.1-15.2-14.5-19-24.4L21.5,97h99.7l-0.7,1.7
		c-3.7,9.9-10.3,18.3-19,24.4C92.7,129.4,82.2,132.7,71.3,132.7z M25.3,99.6c7.8,18.3,26,30.5,46.1,30.5c20,0,38.3-12.2,46.1-30.5
		H25.3z"/>
</g>
<g>
	<path class="st9" d="M122.7,80.1c0,6.4-1.2,12.5-3.3,18.2H23.4c-2.1-5.7-3.3-11.8-3.3-18.2c0-28.3,23-51.3,51.3-51.3
		C99.7,28.8,122.7,51.8,122.7,80.1z"/>
	<path class="st8" d="M120.3,99.6H22.5l-0.3-0.8c-2.3-5.9-3.4-12.2-3.4-18.6c0-29,23.6-52.6,52.6-52.6c29,0,52.6,23.6,52.6,52.6
		c0,6.4-1.1,12.7-3.4,18.6L120.3,99.6z M24.3,97h94.2c1.9-5.4,2.9-11.1,2.9-16.9c0-27.6-22.4-50-50-50c-27.6,0-50,22.4-50,50
		C21.4,85.9,22.4,91.6,24.3,97z"/>
</g>
<g>
	<g>
		<path class="st9" d="M97.1,88.1c-3,2.9-10.1,8.5-14.8,15.2c-6.1,8.6-6,16.5-5.8,21.1c-11.6-3.6-19.8-6.8-31-11
			c1.2-5.2,2.8-12.6,8.9-21.3c5.4-7.8,11.5-12.8,15.7-15.8C78.1,80,89.1,84.4,97.1,88.1z"/>
	</g>
	<g>
		<path class="st8" d="M76.8,124.7l-0.4-0.1c-9.2-2.9-16.3-5.5-24.5-8.5c-2.1-0.8-4.3-1.6-6.6-2.4l-0.2-0.1l0.1-0.4
			c1.2-5.3,2.9-12.6,8.9-21.2c4.3-6.2,9.6-11.5,15.8-15.8L70,76l0.1,0.1c4,1.8,8.8,3.9,13.5,5.9c4.7,2,9.5,4,13.5,5.9l0.3,0.2
			l-0.3,0.3c-0.7,0.7-1.6,1.5-2.6,2.4c-3.4,3-8.6,7.7-12.2,12.8c-5.6,8-6,15.4-5.7,20.9L76.8,124.7z M45.8,113.2
			c2.2,0.8,4.3,1.6,6.4,2.3c8.1,3,15.1,5.6,24.1,8.4c-0.3-5.6,0.2-12.9,5.8-20.9c3.6-5.2,8.8-9.8,12.3-12.9c0.9-0.8,1.7-1.5,2.3-2.1
			c-3.9-1.8-8.6-3.8-13.2-5.7c-4.6-2-9.4-4-13.4-5.8c-6.1,4.3-11.3,9.5-15.5,15.6C48.6,100.8,47,108,45.8,113.2z"/>
	</g>
</g>
<g>
	<path class="st8" d="M52.3,78.6c-1.4,0.3-3,0.7-4.7,1.6c-1.4,0.7-2.6,1.6-3.5,2.4c-0.5-0.8-0.7-1.2-1.2-1.9c1-0.8,2.1-1.8,3.5-2.7
		c1.5-0.9,3.1-1.2,4.5-1.4C51.4,77.2,51.8,77.9,52.3,78.6z"/>
	<path class="st8" d="M44,83l-1.4-2.4l0.2-0.1c0.3-0.2,0.5-0.4,0.8-0.6c0.8-0.6,1.7-1.4,2.8-2c1.5-0.9,3-1.2,4.4-1.4l0.4-0.1
		l0.2,0.3c0.4,0.6,0.8,1.2,1.2,1.8l0.2,0.3l-0.4,0.1c-1.6,0.3-3.2,0.8-4.6,1.6c-1.2,0.6-2.4,1.4-3.5,2.4L44,83z M43.2,80.7l0.9,1.5
		c1-0.9,2.2-1.7,3.3-2.3c1.4-0.7,2.9-1.2,4.4-1.5c-0.3-0.5-0.7-1-1-1.5l0,0l-0.1,0c-1.3,0.2-2.8,0.5-4.2,1.4c-1.1,0.7-1.9,1.3-2.7,2
		C43.6,80.4,43.4,80.6,43.2,80.7z"/>
</g>
<g>
	<g>
		<path class="st9" d="M46.4,78c-1.5,0.7-2.5,1.8-3.5,2.7c-0.2-0.3-0.6-1-0.8-1.3c-0.1-1.8,0.7-3.6,2.3-4.6c1.6-1,3.7-1,5.3,0
			c0.4,0.6,0.8,1.2,1.2,1.8C49.5,76.8,48,77.3,46.4,78z"/>
	</g>
	<g>
		<path class="st8" d="M42.8,81l-1-1.6l0-0.1c-0.1-1.9,0.8-3.8,2.4-4.8c1.7-1.1,3.9-1.1,5.6,0l0.1,0.1l1.4,2.2L51,76.8
			c-1.5,0.3-3,0.8-4.4,1.4l0,0c-1,0.5-1.8,1.2-2.6,1.8c-0.3,0.3-0.6,0.6-0.9,0.8L42.8,81z M42.3,79.3l0.6,1c0.2-0.2,0.4-0.4,0.7-0.6
			c0.8-0.7,1.6-1.4,2.7-1.9c1.3-0.6,2.8-1.1,4.2-1.4l-1-1.5C48,74,46,74,44.5,75C43.1,75.9,42.2,77.5,42.3,79.3z"/>
	</g>
</g>
<g>
	<g>
		<path class="st9" d="M62.4,93.7c-3.7,0.2-6.8,2.3-8.5,5.4c-3.3-5.5-6.6-11-9.9-16.5c1-0.9,2.1-1.7,3.5-2.4
			c1.7-0.9,3.3-1.3,4.7-1.6C55.6,83.6,59,88.6,62.4,93.7z"/>
	</g>
	<g>
		<path class="st8" d="M54,99.6L43.7,82.5l0.2-0.1c1.1-1,2.3-1.8,3.6-2.5c1.5-0.8,3.1-1.3,4.8-1.6l0.2,0l0.1,0.1
			c3.4,5,6.8,10.1,10.1,15.1l0.3,0.4l-0.5,0c-3.5,0.2-6.6,2.2-8.2,5.3L54,99.6z M44.4,82.6l9.6,15.9c1.7-2.9,4.7-4.8,8-5.1
			c-3.3-4.9-6.5-9.8-9.8-14.6c-1.5,0.3-3,0.8-4.5,1.5C46.5,81,45.4,81.7,44.4,82.6z"/>
	</g>
</g>
<g>
	<g>
		<path class="st9" d="M64.3,107.8c-0.6-0.5-1.2-1-1.9-1.6c-2.8-2.3-5.6-4.7-8.4-7.1c0,0,0-0.1-0.1-0.1c1.6-3.1,4.8-5.2,8.5-5.4
			c0,0.1,0.1,0.1,0.1,0.2c0.5,3.8,1,7.6,1.5,11.5C64.1,106.2,64.2,107,64.3,107.8z"/>
	</g>
	<g>
		<path class="st8" d="M64.7,108.4l-2.4-2c-2.8-2.3-5.6-4.7-8.4-7.1l-0.1-0.1l-0.1-0.1l0.1-0.2c1.7-3.2,5-5.3,8.7-5.5l0.2,0l0.1,0.1
			c0,0,0,0.1,0.1,0.1l0.1,0.1l0,0.1c0.5,3.8,1,7.6,1.5,11.5l0,0.3c0.1,0.7,0.2,1.5,0.3,2.2L64.7,108.4z M54.3,99.1
			c2.8,2.3,5.6,4.6,8.4,7l1.4,1.1c-0.1-0.5-0.1-1-0.2-1.5l0-0.3c-0.5-3.8-1-7.6-1.5-11.4l0,0c0,0,0,0,0,0
			C58.9,94.2,55.9,96.1,54.3,99.1z"/>
	</g>
</g>
<g>
	<path class="st8" d="M64.1,107.3c-1-0.9-2-1.7-3-2.6c0.7-0.7,1.6-1.2,2.5-1.5C63.7,104.6,63.9,106,64.1,107.3z"/>
	<path class="st8" d="M64.4,107.9l-3.8-3.2l0.2-0.2c0.7-0.7,1.6-1.2,2.6-1.5l0.3-0.1l0.1,0.7c0.2,1.2,0.3,2.4,0.5,3.6L64.4,107.9z
		 M61.4,104.8l2.3,1.9c-0.1-1-0.3-1.9-0.4-2.9l0-0.1C62.6,103.9,62,104.3,61.4,104.8z"/>
</g>
<g>
	<g>
		<g>
			<path class="st10" d="M57.1,59.4l-2.1,15.3l-12.2-9.5l5.5-2.2c-1.8-2.5-3.9-4.6-6.5-6.3c-3.7-2.5-8.2-4.1-12.8-4.5l0.3-3.1
				c5.2,0.5,10.1,2.2,14.3,5c3,2,5.6,4.6,7.7,7.7L57.1,59.4z"/>
		</g>
	</g>
</g>
<g>
	<g>
		<g>
			<path class="st10" d="M86.7,67.1l4.7,1.8l-10,8.1l-2-12.7l4.9,1.8c2.1-3.4,4.7-6.1,7.9-8.3c3.8-2.6,8.4-4.2,13.2-4.7l0.2,2.6
				c-4.4,0.4-8.5,1.8-12,4.2C90.8,61.9,88.5,64.3,86.7,67.1z"/>
		</g>
	</g>
</g>
<g>
	<g>
		<g>
			<path class="st10" d="M77.6,58.2l-9.2,15.5L59.6,58l7.2,0.1c0-5,0-10.2-0.1-14.6c0-4.5-0.1-8.1,0-9.3l3.6,0.1c0,1.1,0,4.7,0,9.1
				c0,4.4,0.1,9.7,0.1,14.7L77.6,58.2z"/>
		</g>
	</g>
</g>
<g>
	<g>
		<g>
			<path class="st9" d="M46.7,42.4c-2,1.9-6.7,5.7-9.9,10.1c-4,5.7-4,11-3.8,14c-7.7-2.4-13.1-4.5-20.6-7.3
				c0.8-3.5,1.9-8.4,5.9-14.2c3.6-5.2,7.7-8.5,10.4-10.5C34,37,41.4,40,46.7,42.4z"/>
		</g>
		<g>
			<path class="st8" d="M33.3,66.9l-0.4-0.1c-6.1-1.9-10.8-3.7-16.3-5.7c-1.4-0.5-2.8-1.1-4.4-1.6l-0.2-0.1l0.1-0.4
				c0.8-3.5,1.9-8.4,5.9-14.1c2.9-4.1,6.4-7.7,10.5-10.6l0.1-0.1l0.1,0.1c2.7,1.2,5.9,2.6,9,3.9c3.1,1.3,6.3,2.7,9,3.9l0.3,0.2
				l-0.3,0.3c-0.5,0.4-1.1,1-1.7,1.6c-2.3,2-5.7,5.1-8.1,8.5c-3.7,5.3-4,10.2-3.8,13.9L33.3,66.9z M12.7,59.1c1.4,0.5,2.8,1,4.2,1.5
				c5.3,2,10,3.7,15.9,5.6c-0.2-3.7,0.2-8.6,3.9-13.8c2.4-3.4,5.9-6.5,8.2-8.6c0.6-0.5,1-0.9,1.5-1.3c-2.6-1.2-5.7-2.5-8.6-3.7
				c-3.1-1.3-6.2-2.6-8.9-3.8c-4,2.8-7.5,6.3-10.3,10.3C14.6,50.8,13.5,55.6,12.7,59.1z"/>
		</g>
	</g>
</g>
<g>
	<g>
		<g>
			<path class="st9" d="M131.5,45.8c-2,1.9-6.7,5.7-9.9,10.1c-4,5.7-4,11-3.8,14c-7.7-2.4-13.1-4.5-20.6-7.3
				c0.8-3.5,1.9-8.4,5.9-14.2c3.6-5.2,7.7-8.5,10.4-10.5C118.8,40.5,126.1,43.4,131.5,45.8z"/>
		</g>
		<g>
			<path class="st8" d="M118,70.3l-0.4-0.1c-6.1-1.9-10.8-3.7-16.3-5.7c-1.4-0.5-2.8-1.1-4.4-1.6l-0.2-0.1l0.1-0.4
				c0.8-3.5,1.9-8.4,5.9-14.1c2.9-4.1,6.4-7.7,10.5-10.6l0.1-0.1l0.1,0.1c2.7,1.2,5.9,2.6,9,3.9c3.1,1.3,6.3,2.7,9,3.9l0.3,0.2
				l-0.3,0.3c-0.5,0.4-1.1,1-1.7,1.6c-2.3,2-5.7,5.1-8.1,8.5c-3.7,5.3-4,10.2-3.8,13.9L118,70.3z M97.4,62.5c1.4,0.5,2.8,1,4.2,1.5
				c5.3,2,10,3.7,15.9,5.6c-0.2-3.7,0.2-8.6,3.9-13.8c2.4-3.4,5.9-6.5,8.2-8.6c0.6-0.5,1-0.9,1.5-1.3c-2.6-1.2-5.7-2.5-8.6-3.7
				c-3.1-1.3-6.2-2.6-8.9-3.8c-4,2.8-7.5,6.3-10.3,10.3C99.3,54.3,98.2,59,97.4,62.5z"/>
		</g>
	</g>
</g>
<g>
	<g>
		<g>
			<path class="st9" d="M96.3,19.8c-2.3,2.3-7.9,6.6-11.6,11.8C80,38.3,80.1,44.5,80.3,48c-9-2.8-15.4-5.3-24.2-8.5
				c0.9-4.1,2.2-9.8,6.9-16.6c4.2-6.1,9-10,12.2-12.3C81.5,13.5,90.1,17,96.3,19.8z"/>
		</g>
		<g>
			<path class="st8" d="M80.5,48.4l-0.4-0.1C73,46.1,67.5,44,61.1,41.6c-1.6-0.6-3.3-1.2-5.1-1.9l-0.2-0.1l0.1-0.4
				c0.9-4.1,2.2-9.8,6.9-16.5c3.3-4.8,7.5-9,12.3-12.3l0.1-0.1l0.1,0.1c3.1,1.4,6.9,3,10.5,4.6c3.6,1.5,7.4,3.1,10.5,4.6l0.3,0.2
				L96.5,20c-0.5,0.5-1.2,1.1-2,1.9c-2.7,2.4-6.7,6-9.5,9.9C80.6,38,80.3,43.7,80.5,48L80.5,48.4z M56.4,39.4
				c1.7,0.6,3.3,1.2,4.9,1.8c6.3,2.3,11.7,4.3,18.7,6.5c-0.2-4.3,0.2-10.1,4.6-16.2c2.8-4,6.9-7.6,9.6-10c0.7-0.6,1.3-1.1,1.8-1.6
				c-3-1.4-6.7-2.9-10.2-4.4c-3.6-1.5-7.3-3.1-10.4-4.5c-4.7,3.3-8.8,7.4-12,12.1C58.6,29.7,57.3,35.3,56.4,39.4z"/>
		</g>
	</g>
</g>
<g>
	<g>
		<line class="st15" x1="74.4" y1="14.1" x2="74.9" y2="14.3"/>
		<line class="st16" x1="75.9" y1="14.7" x2="89" y2="20.2"/>
		<line class="st15" x1="89.4" y1="20.4" x2="89.9" y2="20.6"/>
	</g>
</g>
<g>
	<g>
		<line class="st15" x1="113.4" y1="41.2" x2="113.9" y2="41.4"/>
		<line class="st17" x1="114.8" y1="41.9" x2="125.4" y2="46.7"/>
		<line class="st15" x1="125.8" y1="46.9" x2="126.3" y2="47.1"/>
	</g>
</g>
<g>
	<g>
		<line class="st15" x1="111.4" y1="42.9" x2="111.9" y2="43.1"/>
		<line class="st17" x1="112.8" y1="43.5" x2="123.4" y2="48.4"/>
		<line class="st15" x1="123.8" y1="48.6" x2="124.3" y2="48.8"/>
	</g>
</g>
<g>
	<g>
		<line class="st15" x1="109.3" y1="44.7" x2="109.8" y2="45"/>
		<line class="st17" x1="110.7" y1="45.4" x2="121.3" y2="50.2"/>
		<line class="st15" x1="121.8" y1="50.4" x2="122.2" y2="50.6"/>
	</g>
</g>
<g>
	<g>
		<line class="st15" x1="27.9" y1="37.3" x2="28.4" y2="37.5"/>
		<line class="st17" x1="29.3" y1="37.9" x2="39.9" y2="42.7"/>
		<line class="st15" x1="40.3" y1="43" x2="40.8" y2="43.2"/>
	</g>
</g>
<g>
	<g>
		<line class="st15" x1="25.9" y1="38.9" x2="26.4" y2="39.1"/>
		<line class="st17" x1="27.3" y1="39.6" x2="37.9" y2="44.4"/>
		<line class="st15" x1="38.4" y1="44.6" x2="38.8" y2="44.8"/>
	</g>
</g>
<g>
	<g>
		<line class="st15" x1="23.8" y1="40.8" x2="24.3" y2="41"/>
		<line class="st17" x1="25.2" y1="41.4" x2="35.8" y2="46.3"/>
		<line class="st15" x1="36.3" y1="46.5" x2="36.7" y2="46.7"/>
	</g>
</g>
<g>
	<g>
		<line class="st15" x1="69.8" y1="79.9" x2="70.2" y2="80.1"/>
		<line class="st18" x1="71.1" y1="80.5" x2="88.5" y2="88.4"/>
		<line class="st15" x1="88.9" y1="88.6" x2="89.4" y2="88.8"/>
	</g>
</g>
<g>
	<g>
		<line class="st15" x1="66.8" y1="82.4" x2="67.2" y2="82.6"/>
		<line class="st18" x1="68.1" y1="83" x2="85.5" y2="90.9"/>
		<line class="st15" x1="85.9" y1="91.1" x2="86.4" y2="91.3"/>
	</g>
</g>
<g>
	<g>
		<line class="st15" x1="63.6" y1="85.2" x2="64" y2="85.4"/>
		<line class="st18" x1="64.9" y1="85.8" x2="82.3" y2="93.7"/>
		<line class="st15" x1="82.7" y1="93.9" x2="83.2" y2="94.1"/>
	</g>
</g>
<g>
	<g>
		<line class="st15" x1="72.7" y1="16.3" x2="73.1" y2="16.5"/>
		<line class="st16" x1="74.1" y1="16.9" x2="87.2" y2="22.4"/>
		<line class="st15" x1="87.7" y1="22.6" x2="88.1" y2="22.8"/>
	</g>
</g>
<g>
	<g>
		<line class="st15" x1="70.6" y1="18.6" x2="71" y2="18.8"/>
		<line class="st16" x1="72" y1="19.2" x2="85.1" y2="24.6"/>
		<line class="st15" x1="85.6" y1="24.8" x2="86" y2="25"/>
	</g>
</g>
</svg>
