<?xml version="1.0" encoding="utf-8"?>
<!-- Generator: Adobe Illustrator 27.5.0, SVG Export Plug-In . SVG Version: 6.00 Build 0)  -->
<svg version="1.1" id="Layer_1" xmlns="http://www.w3.org/2000/svg" xmlns:xlink="http://www.w3.org/1999/xlink" x="0px" y="0px"
	 viewBox="0 0 144 144" style="enable-background:new 0 0 144 144;" xml:space="preserve">
<style type="text/css">
	.st0{fill:#4670EA;stroke:#1F3741;stroke-width:0.5;stroke-miterlimit:10;}
	.st1{fill:#B9EDD6;}
	.st2{fill:#E6EAF6;stroke:#1F3741;stroke-width:0.5;stroke-miterlimit:10;}
	.st3{fill:#53A07C;}
	.st4{fill:#4B8C6B;}
	.st5{fill:#E23E3D;}
	.st6{opacity:0.3;}
	.st7{fill:#4670EA;}
	.st8{fill:#213740;}
	.st9{fill:#E6EAF6;}
	.st10{fill:#4670EA;stroke:#213741;stroke-width:0.5;stroke-miterlimit:10;}
	.st11{fill:#1F3741;}
	.st12{fill:#E6EAF6;stroke:#1F3741;stroke-width:0.75;stroke-miterlimit:10;}
	.st13{fill:#E6EAF6;stroke:#213740;stroke-width:0.5;stroke-miterlimit:10;}
	.st14{fill:#4670EA;stroke:#213740;stroke-width:0.5;stroke-miterlimit:10;}
	.st15{fill:none;stroke:#213740;stroke-width:0.25;stroke-miterlimit:10;}
	.st16{fill:none;stroke:#213740;stroke-width:0.25;stroke-miterlimit:10;stroke-dasharray:1.0502,1.0502;}
	.st17{fill:none;stroke:#213740;stroke-width:0.25;stroke-miterlimit:10;stroke-dasharray:1.0119,1.0119;}
	.st18{fill:none;stroke:#213740;stroke-width:0.25;stroke-miterlimit:10;stroke-dasharray:0.978,0.978;}
	.st19{fill:#4670EA;stroke:#1F3741;stroke-width:0.25;stroke-miterlimit:10;}
	.st20{fill:#E6EAF6;stroke:#1F3741;stroke-width:0.25;stroke-miterlimit:10;}
</style>
<g>
	<g>
		<path class="st14" d="M51,110.4c-0.5,0.2-0.8,0.3-1.2,0.4c-4.4,1-5.5,3.5-6,7.6c-0.1,0.7-0.2,1.4-0.2,2.1c0,0.9-0.5,1.1-1.3,1.1
			c-11.4,0-22.8,0-34.3,0c-1.5,0-1.9-0.4-1.8-1.9c0.2-2.3,0.5-4.6,0.8-6.9c0.2-1.9,1.7-2.3,3.2-2.7c4.1-1.1,8.1-2.1,12.2-3.2
			c1.4-0.4,2-1.2,2.1-2.6c0.1-1.8-0.4-3.4-1.5-4.8c-0.4-0.5-0.9-1.1-1.1-1.7c-0.6-2.4-2.7-3.9-3.5-6.2c-0.5-1.3-0.5-2.8-0.5-4.1
			c0-0.7,0.5-1.5,1.1-2.1c0.5-0.5,0.6-0.9,0.5-1.6c-0.3-2.2-0.5-4.5,0.2-6.7c1-3.3,3.8-5.6,7.2-6.1c2.9-0.4,5.8-0.5,8.7,0.3
			c3.6,1,6.1,4.3,6.2,8c0,1.5-0.2,3-0.2,4.5c0,0.4,0.2,1,0.5,1.3c0.7,0.8,1.2,1.6,1.2,2.6c-0.1,1.8,0.1,3.8-1.3,5.2
			c-1.4,1.4-1.8,3.1-2.7,4.7c-0.4,0.7-0.9,1.4-1.4,2.1c-1.1,1.6-1.5,3.3-1.1,5.1c0.2,1.2,1,1.7,2.2,2c4,1,8,2.1,12,3.2
			C50.8,110.1,50.9,110.2,51,110.4z"/>
		<path class="st14" d="M93.3,110.1c1.5-0.4,3-0.8,4.4-1.2c2.6-0.7,5.2-1.4,7.8-2.1c1.3-0.4,1.9-1.1,2-2.6c0.1-1.6-0.4-3.1-1.3-4.5
			c-0.9-1.5-1.7-3.1-2.5-4.6c-0.2-0.3-0.4-0.7-0.7-1c-1.8-1.6-2.8-5.3-2.1-7.5c0.1-0.4,0.4-0.9,0.8-1.2c0.7-0.5,0.8-1.1,0.7-1.9
			c-0.4-2.4-0.5-4.7,0.4-7c1.3-3.2,3.6-5,6.9-5.5c3-0.5,6-0.5,9,0.4c3.1,0.9,5.7,4,5.9,7.2c0.1,1.8-0.2,3.5-0.2,5.3
			c0,0.4,0.3,0.9,0.5,1.3c0.3,0.6,1,1.1,1.1,1.7c0.2,2.6,0.2,5.3-2.1,7.2c-0.3,0.3-0.5,0.8-0.7,1.2c-0.7,1.4-1.3,2.8-2.2,4.1
			c-1,1.5-1.6,3.1-1.5,4.9c0.1,1.6,0.7,2.2,2.2,2.6c4.4,1.2,8.7,2.4,13,3.5c1.4,0.3,2,1.2,2.2,2.4c0.3,2.3,0.6,4.5,0.8,6.8
			c0.1,1.6-0.3,2-1.9,2c-9.9,0-19.7,0-29.6,0c-1.4,0-2.8,0-4.2,0c-0.7,0-1.1-0.2-1.1-1c-0.1-1.3-0.3-2.6-0.5-4
			c-0.5-3.1-2.3-4.9-5.3-5.7c-0.6-0.1-1.2-0.4-1.8-0.5C93.3,110.3,93.3,110.2,93.3,110.1z"/>
		<path class="st14" d="M109.4,22.9c-0.1,0.3-0.2,0.6-0.4,0.9c-0.6,1.1-1.3,2.2-1.9,3.3c-0.9,1.6-0.5,3.2,1.1,4.1
			c1,0.6,1.9,1.2,3,1.7c0.7,0.4,1.2,0.9,1,1.8c-0.3,2-0.5,4-0.9,6c-0.1,0.4-0.7,0.9-1.1,1.1c-1.1,0.4-2.3,0.6-3.4,0.9
			c-1.9,0.5-2.8,2.1-2.4,4c0.3,1.2,0.7,2.3,0.9,3.5c0.1,0.5-0.1,1.2-0.4,1.4c-1.6,1.3-3.3,2.5-5,3.7c-0.6,0.4-1.1,0.4-1.7,0
			c-1.1-0.7-2.1-1.3-3.2-1.9c-1.4-0.8-2.4-0.8-3.5,0.5c-1,1.1-1.7,2.3-2.5,3.6c-0.4,0.7-0.7,1.1-1.5,1c-2-0.3-4-0.6-6-0.8
			c-0.8-0.1-1.1-0.6-1.3-1.3c-0.3-1.1-0.5-2.2-0.8-3.2c-0.5-2-2.1-3-4.1-2.5c-1.1,0.3-2.2,0.5-3.3,0.9c-0.7,0.2-1.2,0.1-1.7-0.5
			c-1.2-1.7-2.5-3.3-3.7-5c-0.2-0.3-0.2-1,0-1.4c0.6-1.1,1.3-2.2,1.9-3.3c1-1.8,0.5-3.5-1.3-4.5c-1-0.6-2-1.1-3-1.8
			c-0.3-0.2-0.7-0.7-0.7-1.1c0.2-2.2,0.5-4.3,0.9-6.5c0.1-0.4,0.6-0.9,1.1-1c1.1-0.4,2.3-0.7,3.5-0.9c1.8-0.5,2.8-2.1,2.4-4
			c-0.3-1.1-0.6-2.2-0.9-3.3c-0.2-0.7-0.2-1.2,0.4-1.7c1.7-1.3,3.3-2.6,5.1-3.8c0.3-0.2,1-0.2,1.4,0c1,0.5,2,1.1,3,1.7
			c1.9,1.2,3.6,0.7,4.8-1.2c0.6-0.9,1.1-1.8,1.6-2.8c0.4-0.7,0.8-1,1.6-0.9c2.1,0.3,4.2,0.5,6.2,1c0.4,0.1,0.8,0.8,1,1.3
			c0.4,1.1,0.6,2.3,0.9,3.4c0.6,1.9,2.1,2.7,4,2.2c1.1-0.3,2.3-0.7,3.4-0.9c0.4-0.1,1.1,0,1.3,0.3c1.4,1.7,2.7,3.6,4.1,5.4
			C109.3,22.5,109.3,22.7,109.4,22.9z M87.7,47.5c6.9,0.2,13.5-5.3,13.4-13.3c0-8.3-6.8-13.2-13.2-13.3c-7.3-0.1-13.5,6-13.5,13.4
			C74.5,41.5,80.4,47.5,87.7,47.5z"/>
		<path class="st14" d="M49.1,131.9c-2.7,0-3-0.4-2.7-3.1c0.5-3.7,0.8-7.4,1.2-11.1c0.2-1.7,1-2.7,2.7-3.2c3.2-0.8,6.4-1.8,9.6-2.8
			c1.1-0.3,2-0.2,2.6,0.7c0,0.1,7.9,11.1,8.9,12.3c0.5,0.6,1,0.6,1.7,0c1.9-2,8-11.6,9.2-12.6c0.4-0.3,1.1-0.6,1.5-0.5
			c3.8,1,7.7,2.1,11.5,3.4c0.6,0.2,1.2,1.2,1.4,1.9c0.4,1.9,0.6,3.9,0.8,5.8c0.3,2.3,0.5,4.6,0.7,6.8c0.2,1.5-0.4,2.3-1.8,2.3
			C88.4,131.8,56.8,131.9,49.1,131.9z"/>
		<path class="st14" d="M76,93.2c0.3,0.8,0.8,2.7,0.7,2.8c-1.2-2.2-3.6-2.7-5.4-4.1c-1-0.8-1.8-1.8-2.6-2.8c-0.6-0.7-1-0.9-1.8-0.4
			c-1,0.6-2.2,0.9-3.2,1.4c-0.4,0.2-1,0.6-1,1c-0.2,3.3-0.4,6.7,1,9.8c0.7,1.5,1.5,2.9,2.3,4.4c-0.4,0.1-0.7,0.3-1.1,0.3
			c-2.1,0.3-4.3,0.7-6.5,1c-1.7,0.3-2.4-0.7-1.8-2.2c1-2.5,0.7-5,0.5-7.5c-0.3-3-1.1-6.1-0.3-9.1c1.9-6.7,6-11.3,12.9-12.7
			c5.7-1.1,10.6,0.9,14.3,5.4c4,4.7,4.9,10.2,3.7,16.1c-0.5,2.4-0.6,4.9,0.3,7.3c0.8,2.2-0.1,3.1-2.4,2.7c-1.9-0.3-3.7-0.6-5.6-0.9
			c-1.3-0.2-1.4-0.4-0.7-1.5c2-3.1,3.3-6.4,3.6-10.1c0-0.5,0.2-0.9-0.5-0.9C80.3,93.2,78.1,93.2,76,93.2z"/>
		<path class="st14" d="M37,42.1c-0.2-0.7-0.3-1.4-0.5-2c-0.3-0.9-0.2-1.6,0.6-2.1c0.2-0.1,0.3-0.3,0.5-0.5c2.2-1.9,2.5-2,5.1-0.5
			c1.6,0.9,2.4,0.7,3.4-0.9c1.5-2.4,1.7-2.5,4.4-2c1.4,0.2,2.6,0.6,2.6,2.4c0,0.4,0.2,0.8,0.3,1.2c0.3,1,1,1.5,2.1,1.4
			c0.2,0,0.4-0.1,0.7-0.1c0.9-0.2,2.2-0.8,2.7-0.4c1.2,0.9,2,2.3,2.9,3.6c0.1,0.2,0,0.6-0.1,0.9c-0.3,0.7-0.8,1.3-1.1,1.9
			c-0.7,1.2-0.5,2,0.6,2.8c0.1,0.1,0.2,0.2,0.4,0.3c0.7,0.6,2,1.1,2.1,1.7c0.2,1.4-0.2,3-0.4,4.5c0,0.3-0.6,0.5-0.9,0.6
			c-0.8,0.3-1.6,0.4-2.3,0.7c-1.1,0.4-1.5,1.2-1.3,2.3c0.1,0.4,0.2,0.7,0.3,1.1c0.5,2.1,0.5,2.1-1.2,3.5c-0.1,0.1-0.3,0.2-0.4,0.3
			c-1.8,1.4-1.8,1.4-3.8,0.2c-1.9-1.2-2.9-1-3.9,0.7c-1.6,2.9-1,2.2-4.5,1.9c-1.3-0.1-2.5-0.4-2.4-2.2c0-0.4-0.2-0.9-0.4-1.3
			c-0.4-1.1-1.3-1.6-2.4-1.4c-0.4,0.1-0.8,0.1-1.2,0.3c-2,0.8-2,0.4-3.2-1.1c-0.2-0.2-0.4-0.5-0.6-0.7c-1.3-1.6-1.3-1.8-0.2-3.6
			c0.4-0.6,0.7-1.2,0.8-1.9c0.1-0.9-0.3-1.5-1.1-2C31.5,50,31.5,50,32,46.8c0.3-1.8,0.3-1.8,2.2-2.3c1-0.3,2.3-0.4,2.6-1.7
			C36.9,42.6,36.9,42.3,37,42.1z M39.1,49.7c-0.3,4.5,3.5,8.9,8.7,8.8c5-0.1,9-4,8.6-9.4c-0.2-4.3-3.9-8-8.7-8.1
			C43,41,38.8,45.2,39.1,49.7z"/>
		<path class="st14" d="M72.1,114.7c-2-0.1-4-0.7-5.7-2c-0.6-0.4-1.1-0.9-0.6-1.7c0.5-0.8,1.2-0.5,1.8-0.1c3,2.1,6.1,2.1,9.2,0
			c0.7-0.5,1.4-0.8,1.9,0.1c0.5,0.8,0,1.4-0.7,1.8C76.2,114,74.4,114.7,72.1,114.7z"/>
	</g>
</g>
</svg>
